G04 #@! TF.FileFunction,Copper,L2,Inr,Plane*
%FSLAX46Y46*%
G04 Gerber Fmt 4.6, Leading zero omitted, Abs format (unit mm)*
G04 Created by KiCad (PCBNEW 4.0.7) date 06/11/18 13:45:27*
%MOMM*%
%LPD*%
G01*
G04 APERTURE LIST*
%ADD10C,0.100000*%
%ADD11C,0.600000*%
%ADD12R,1.700000X1.700000*%
%ADD13O,1.700000X1.700000*%
%ADD14C,0.250000*%
%ADD15C,0.254000*%
G04 APERTURE END LIST*
D10*
D11*
X152810000Y-107660000D03*
X153280000Y-102450000D03*
X151180000Y-102550000D03*
X130220000Y-81740000D03*
X151140000Y-70150000D03*
X148450000Y-65150000D03*
X147910000Y-67420000D03*
X147800000Y-66000000D03*
X135430000Y-67160000D03*
X133410000Y-68500000D03*
X134570000Y-65450000D03*
X136860000Y-66300000D03*
X133000000Y-66640000D03*
X130930000Y-69760000D03*
X129860000Y-71710000D03*
X129160000Y-81730000D03*
X129910000Y-84450000D03*
X130940000Y-84420000D03*
X132080000Y-84420000D03*
X129070000Y-74210000D03*
X130280000Y-74520000D03*
X131790000Y-74860000D03*
X131840000Y-76070000D03*
X130820000Y-75890000D03*
X129240000Y-75830000D03*
X132600000Y-123780000D03*
X129380000Y-122440000D03*
X130310000Y-120140000D03*
X130760000Y-122760000D03*
X132320000Y-120420000D03*
X131750000Y-121750000D03*
X131780000Y-114370000D03*
X129460000Y-99300000D03*
X129770000Y-94440000D03*
X131310000Y-96590000D03*
X131360000Y-89440000D03*
X129570000Y-92860000D03*
X132330000Y-95770000D03*
X132020000Y-92090000D03*
X133430000Y-91380000D03*
X129770000Y-89860000D03*
X129430000Y-85570000D03*
X130130000Y-87610000D03*
X149110000Y-64170000D03*
X147110000Y-64170000D03*
X145110000Y-64170000D03*
X143110000Y-64170000D03*
X141110000Y-64170000D03*
X139110000Y-64170000D03*
X137110000Y-64170000D03*
X135110000Y-64170000D03*
X133110000Y-64170000D03*
X131990000Y-65420000D03*
X128030000Y-66120000D03*
X128030000Y-68120000D03*
X128030000Y-70120000D03*
X128030000Y-72120000D03*
X128030000Y-74120000D03*
X128030000Y-76120000D03*
X128030000Y-78120000D03*
X128030000Y-80120000D03*
X128030000Y-82120000D03*
X128030000Y-84120000D03*
X128030000Y-86120000D03*
X128030000Y-88120000D03*
X128030000Y-90120000D03*
X128030000Y-92120000D03*
X128030000Y-94120000D03*
X128030000Y-96120000D03*
X128030000Y-98120000D03*
X128030000Y-100120000D03*
X128030000Y-102120000D03*
X128030000Y-104120000D03*
X128030000Y-106120000D03*
X128030000Y-108120000D03*
X128030000Y-110120000D03*
X128030000Y-112120000D03*
X128030000Y-114120000D03*
X128030000Y-116120000D03*
X128030000Y-118120000D03*
X128030000Y-120120000D03*
X128030000Y-122120000D03*
X128030000Y-124120000D03*
X156770000Y-118910000D03*
X145280000Y-114590000D03*
X133340000Y-93060000D03*
X129700000Y-96810000D03*
X130530000Y-91150000D03*
X131100000Y-94070000D03*
X129080000Y-114840000D03*
X129240000Y-117780000D03*
X136610000Y-114990000D03*
X153430000Y-122940000D03*
D12*
X153230000Y-71650000D03*
D13*
X155770000Y-71650000D03*
X153230000Y-74190000D03*
X155770000Y-74190000D03*
X153230000Y-76730000D03*
X155770000Y-76730000D03*
X153230000Y-79270000D03*
X155770000Y-79270000D03*
X153230000Y-81810000D03*
X155770000Y-81810000D03*
X153230000Y-84350000D03*
X155770000Y-84350000D03*
X153230000Y-86890000D03*
X155770000Y-86890000D03*
D11*
X156720000Y-92741000D03*
X137670000Y-91090000D03*
X151767000Y-99980000D03*
X138720000Y-97560000D03*
X145036000Y-96297000D03*
X146052000Y-103409000D03*
D12*
X156570000Y-112350000D03*
D13*
X156570000Y-109810000D03*
D11*
X154960000Y-94440000D03*
X154860000Y-99580000D03*
X140596942Y-120166942D03*
X138041000Y-94896890D03*
X144147000Y-67341000D03*
X140610000Y-119270000D03*
X140972000Y-67214000D03*
X137416000Y-98329000D03*
X141149489Y-122870381D03*
X151386000Y-73437000D03*
X141044529Y-121957457D03*
X151259000Y-72294000D03*
X142560000Y-123490000D03*
X151386000Y-75723000D03*
X154434000Y-88423000D03*
X146052000Y-95281000D03*
X138559000Y-101123000D03*
X153164000Y-88550000D03*
X143512000Y-102012000D03*
X141590000Y-124580000D03*
X144180000Y-113570000D03*
X151386000Y-78644000D03*
X147314950Y-121760000D03*
X151386000Y-83216000D03*
X146516130Y-121803476D03*
X149481000Y-90963000D03*
X141494380Y-121295915D03*
X145671000Y-65563000D03*
X141607000Y-93122000D03*
X140590000Y-121020000D03*
X139206000Y-93933984D03*
X145036000Y-66452000D03*
X154310000Y-123730000D03*
X151386000Y-82200000D03*
X145592843Y-122057244D03*
X151386000Y-81057000D03*
X144660000Y-123070000D03*
X151386000Y-79787000D03*
X140353908Y-122627534D03*
X144060000Y-115090000D03*
X151386000Y-77755000D03*
X135917400Y-122217700D03*
X130469100Y-116236000D03*
X143355401Y-91749484D03*
X141630000Y-123510000D03*
X151386000Y-74580000D03*
X152440000Y-121980000D03*
D14*
X153230000Y-81810000D02*
X154594999Y-83174999D01*
X154594999Y-83174999D02*
X154594999Y-85714999D01*
X154594999Y-85714999D02*
X154920001Y-86040001D01*
X154920001Y-86040001D02*
X155770000Y-86890000D01*
D15*
G36*
X152674439Y-64042687D02*
X151765877Y-64949664D01*
X151273561Y-66135294D01*
X151272441Y-67419074D01*
X151762687Y-68605561D01*
X152669664Y-69514123D01*
X153855294Y-70006439D01*
X155139074Y-70007559D01*
X156325561Y-69517313D01*
X157234123Y-68610336D01*
X157513000Y-67938725D01*
X157513000Y-108682456D01*
X157451358Y-108614817D01*
X156926892Y-108368514D01*
X156697000Y-108489181D01*
X156697000Y-109683000D01*
X156717000Y-109683000D01*
X156717000Y-109937000D01*
X156697000Y-109937000D01*
X156697000Y-109957000D01*
X156443000Y-109957000D01*
X156443000Y-109937000D01*
X155249845Y-109937000D01*
X155128524Y-110166890D01*
X155298355Y-110576924D01*
X155688642Y-111005183D01*
X155815236Y-111064635D01*
X155720000Y-111064635D01*
X155561763Y-111094409D01*
X155416433Y-111187927D01*
X155318936Y-111330619D01*
X155284635Y-111500000D01*
X155284635Y-113200000D01*
X155314409Y-113358237D01*
X155407927Y-113503567D01*
X155550619Y-113601064D01*
X155720000Y-113635365D01*
X157420000Y-113635365D01*
X157513000Y-113617866D01*
X157513000Y-124613000D01*
X156680000Y-124613000D01*
X156673787Y-124614236D01*
X156646608Y-124613289D01*
X156592136Y-124622165D01*
X156536942Y-124622165D01*
X156226972Y-124683823D01*
X156226967Y-124683823D01*
X156130033Y-124723975D01*
X156055018Y-124755047D01*
X156055016Y-124755049D01*
X155792236Y-124930633D01*
X155749869Y-124973000D01*
X142213996Y-124973000D01*
X142316874Y-124725244D01*
X142317126Y-124436025D01*
X142206680Y-124168725D01*
X142103099Y-124064964D01*
X142104915Y-124063151D01*
X142147650Y-124105961D01*
X142414756Y-124216874D01*
X142703975Y-124217126D01*
X142971275Y-124106680D01*
X143175961Y-123902350D01*
X143187743Y-123873975D01*
X153582874Y-123873975D01*
X153693320Y-124141275D01*
X153897650Y-124345961D01*
X154164756Y-124456874D01*
X154453975Y-124457126D01*
X154721275Y-124346680D01*
X154925961Y-124142350D01*
X155036874Y-123875244D01*
X155037126Y-123586025D01*
X154926680Y-123318725D01*
X154722350Y-123114039D01*
X154455244Y-123003126D01*
X154166025Y-123002874D01*
X153898725Y-123113320D01*
X153694039Y-123317650D01*
X153583126Y-123584756D01*
X153582874Y-123873975D01*
X143187743Y-123873975D01*
X143286874Y-123635244D01*
X143287126Y-123346025D01*
X143232565Y-123213975D01*
X143932874Y-123213975D01*
X144043320Y-123481275D01*
X144247650Y-123685961D01*
X144514756Y-123796874D01*
X144803975Y-123797126D01*
X145071275Y-123686680D01*
X145275961Y-123482350D01*
X145386874Y-123215244D01*
X145387126Y-122926025D01*
X145303823Y-122724417D01*
X145447599Y-122784118D01*
X145736818Y-122784370D01*
X146004118Y-122673924D01*
X146208804Y-122469594D01*
X146211123Y-122464010D01*
X146370886Y-122530350D01*
X146660105Y-122530602D01*
X146927405Y-122420156D01*
X146951384Y-122396218D01*
X147169706Y-122486874D01*
X147458925Y-122487126D01*
X147726225Y-122376680D01*
X147930911Y-122172350D01*
X147950998Y-122123975D01*
X151712874Y-122123975D01*
X151823320Y-122391275D01*
X152027650Y-122595961D01*
X152294756Y-122706874D01*
X152583975Y-122707126D01*
X152851275Y-122596680D01*
X153055961Y-122392350D01*
X153166874Y-122125244D01*
X153167126Y-121836025D01*
X153056680Y-121568725D01*
X152852350Y-121364039D01*
X152585244Y-121253126D01*
X152296025Y-121252874D01*
X152028725Y-121363320D01*
X151824039Y-121567650D01*
X151713126Y-121834756D01*
X151712874Y-122123975D01*
X147950998Y-122123975D01*
X148041824Y-121905244D01*
X148042076Y-121616025D01*
X147931630Y-121348725D01*
X147727300Y-121144039D01*
X147460194Y-121033126D01*
X147170975Y-121032874D01*
X146903675Y-121143320D01*
X146879696Y-121167258D01*
X146661374Y-121076602D01*
X146372155Y-121076350D01*
X146104855Y-121186796D01*
X145900169Y-121391126D01*
X145897850Y-121396710D01*
X145738087Y-121330370D01*
X145448868Y-121330118D01*
X145181568Y-121440564D01*
X144976882Y-121644894D01*
X144865969Y-121912000D01*
X144865717Y-122201219D01*
X144949020Y-122402827D01*
X144805244Y-122343126D01*
X144516025Y-122342874D01*
X144248725Y-122453320D01*
X144044039Y-122657650D01*
X143933126Y-122924756D01*
X143932874Y-123213975D01*
X143232565Y-123213975D01*
X143176680Y-123078725D01*
X142972350Y-122874039D01*
X142705244Y-122763126D01*
X142416025Y-122762874D01*
X142148725Y-122873320D01*
X142085085Y-122936849D01*
X142042350Y-122894039D01*
X141876529Y-122825184D01*
X141876615Y-122726406D01*
X141766169Y-122459106D01*
X141665348Y-122358109D01*
X141771403Y-122102701D01*
X141771520Y-121968018D01*
X141905655Y-121912595D01*
X142110341Y-121708265D01*
X142221254Y-121441159D01*
X142221506Y-121151940D01*
X142111060Y-120884640D01*
X141906730Y-120679954D01*
X141639624Y-120569041D01*
X141350405Y-120568789D01*
X141213545Y-120625339D01*
X141206680Y-120608725D01*
X141195070Y-120597094D01*
X141212903Y-120579292D01*
X141269214Y-120443681D01*
X155212849Y-120443681D01*
X155346082Y-120766131D01*
X155592571Y-121013051D01*
X155914789Y-121146847D01*
X156263681Y-121147151D01*
X156586131Y-121013918D01*
X156833051Y-120767429D01*
X156966847Y-120445211D01*
X156967151Y-120096319D01*
X156833918Y-119773869D01*
X156587429Y-119526949D01*
X156265211Y-119393153D01*
X155916319Y-119392849D01*
X155593869Y-119526082D01*
X155346949Y-119772571D01*
X155213153Y-120094789D01*
X155212849Y-120443681D01*
X141269214Y-120443681D01*
X141323816Y-120312186D01*
X141324068Y-120022967D01*
X141213622Y-119755667D01*
X141183122Y-119725114D01*
X141225961Y-119682350D01*
X141336874Y-119415244D01*
X141337126Y-119126025D01*
X141226680Y-118858725D01*
X141022350Y-118654039D01*
X140755244Y-118543126D01*
X140466025Y-118542874D01*
X140198725Y-118653320D01*
X139994039Y-118857650D01*
X139883126Y-119124756D01*
X139882874Y-119413975D01*
X139993320Y-119681275D01*
X140023820Y-119711828D01*
X139980981Y-119754592D01*
X139870068Y-120021698D01*
X139869816Y-120310917D01*
X139980262Y-120578217D01*
X139991872Y-120589848D01*
X139974039Y-120607650D01*
X139863126Y-120874756D01*
X139862874Y-121163975D01*
X139973320Y-121431275D01*
X140177650Y-121635961D01*
X140359489Y-121711468D01*
X140317655Y-121812213D01*
X140317578Y-121900502D01*
X140209933Y-121900408D01*
X139942633Y-122010854D01*
X139737947Y-122215184D01*
X139627034Y-122482290D01*
X139626782Y-122771509D01*
X139737228Y-123038809D01*
X139941558Y-123243495D01*
X140208664Y-123354408D01*
X140497883Y-123354660D01*
X140574205Y-123323124D01*
X140737139Y-123486342D01*
X140902960Y-123555197D01*
X140902874Y-123653975D01*
X141013320Y-123921275D01*
X141116901Y-124025036D01*
X140974039Y-124167650D01*
X140863126Y-124434756D01*
X140862874Y-124723975D01*
X140965769Y-124973000D01*
X140447000Y-124973000D01*
X140447000Y-124130000D01*
X140410691Y-123947460D01*
X140307290Y-123792710D01*
X140152540Y-123689309D01*
X139970000Y-123653000D01*
X138460000Y-123653000D01*
X138277460Y-123689309D01*
X138122710Y-123792710D01*
X138019309Y-123947460D01*
X137983000Y-124130000D01*
X137983000Y-124973000D01*
X130147705Y-124973000D01*
X130146551Y-124971846D01*
X129893500Y-124802763D01*
X129721552Y-124731539D01*
X129721551Y-124731539D01*
X129423058Y-124672165D01*
X129356076Y-124672165D01*
X129310000Y-124663000D01*
X127557000Y-124663000D01*
X127557000Y-122361675D01*
X135190274Y-122361675D01*
X135300720Y-122628975D01*
X135505050Y-122833661D01*
X135772156Y-122944574D01*
X136061375Y-122944826D01*
X136328675Y-122834380D01*
X136533361Y-122630050D01*
X136644274Y-122362944D01*
X136644526Y-122073725D01*
X136534080Y-121806425D01*
X136329750Y-121601739D01*
X136062644Y-121490826D01*
X135773425Y-121490574D01*
X135506125Y-121601020D01*
X135301439Y-121805350D01*
X135190526Y-122072456D01*
X135190274Y-122361675D01*
X127557000Y-122361675D01*
X127557000Y-117443681D01*
X155212849Y-117443681D01*
X155346082Y-117766131D01*
X155592571Y-118013051D01*
X155914789Y-118146847D01*
X156263681Y-118147151D01*
X156586131Y-118013918D01*
X156833051Y-117767429D01*
X156966847Y-117445211D01*
X156967151Y-117096319D01*
X156833918Y-116773869D01*
X156587429Y-116526949D01*
X156265211Y-116393153D01*
X155916319Y-116392849D01*
X155593869Y-116526082D01*
X155346949Y-116772571D01*
X155213153Y-117094789D01*
X155212849Y-117443681D01*
X127557000Y-117443681D01*
X127557000Y-116379975D01*
X129741974Y-116379975D01*
X129852420Y-116647275D01*
X130056750Y-116851961D01*
X130323856Y-116962874D01*
X130613075Y-116963126D01*
X130880375Y-116852680D01*
X131085061Y-116648350D01*
X131195974Y-116381244D01*
X131196226Y-116092025D01*
X131085780Y-115824725D01*
X130881450Y-115620039D01*
X130614344Y-115509126D01*
X130325125Y-115508874D01*
X130057825Y-115619320D01*
X129853139Y-115823650D01*
X129742226Y-116090756D01*
X129741974Y-116379975D01*
X127557000Y-116379975D01*
X127557000Y-115233975D01*
X143332874Y-115233975D01*
X143443320Y-115501275D01*
X143647650Y-115705961D01*
X143914756Y-115816874D01*
X144203975Y-115817126D01*
X144471275Y-115706680D01*
X144675961Y-115502350D01*
X144786874Y-115235244D01*
X144787126Y-114946025D01*
X144676680Y-114678725D01*
X144472350Y-114474039D01*
X144205244Y-114363126D01*
X143916025Y-114362874D01*
X143648725Y-114473320D01*
X143444039Y-114677650D01*
X143333126Y-114944756D01*
X143332874Y-115233975D01*
X127557000Y-115233975D01*
X127557000Y-113713975D01*
X143452874Y-113713975D01*
X143563320Y-113981275D01*
X143767650Y-114185961D01*
X144034756Y-114296874D01*
X144323975Y-114297126D01*
X144591275Y-114186680D01*
X144795961Y-113982350D01*
X144906874Y-113715244D01*
X144907126Y-113426025D01*
X144796680Y-113158725D01*
X144592350Y-112954039D01*
X144325244Y-112843126D01*
X144036025Y-112842874D01*
X143768725Y-112953320D01*
X143564039Y-113157650D01*
X143453126Y-113424756D01*
X143452874Y-113713975D01*
X127557000Y-113713975D01*
X127557000Y-109453110D01*
X155128524Y-109453110D01*
X155249845Y-109683000D01*
X156443000Y-109683000D01*
X156443000Y-108489181D01*
X156213108Y-108368514D01*
X155688642Y-108614817D01*
X155298355Y-109043076D01*
X155128524Y-109453110D01*
X127557000Y-109453110D01*
X127557000Y-102155975D01*
X142784874Y-102155975D01*
X142895320Y-102423275D01*
X143099650Y-102627961D01*
X143366756Y-102738874D01*
X143655975Y-102739126D01*
X143923275Y-102628680D01*
X144127961Y-102424350D01*
X144238874Y-102157244D01*
X144239126Y-101868025D01*
X144128680Y-101600725D01*
X143924350Y-101396039D01*
X143657244Y-101285126D01*
X143368025Y-101284874D01*
X143100725Y-101395320D01*
X142896039Y-101599650D01*
X142785126Y-101866756D01*
X142784874Y-102155975D01*
X127557000Y-102155975D01*
X127557000Y-101266975D01*
X137831874Y-101266975D01*
X137942320Y-101534275D01*
X138146650Y-101738961D01*
X138413756Y-101849874D01*
X138702975Y-101850126D01*
X138970275Y-101739680D01*
X139174961Y-101535350D01*
X139285874Y-101268244D01*
X139286126Y-100979025D01*
X139175680Y-100711725D01*
X138971350Y-100507039D01*
X138704244Y-100396126D01*
X138415025Y-100395874D01*
X138147725Y-100506320D01*
X137943039Y-100710650D01*
X137832126Y-100977756D01*
X137831874Y-101266975D01*
X127557000Y-101266975D01*
X127557000Y-99723975D01*
X154132874Y-99723975D01*
X154243320Y-99991275D01*
X154447650Y-100195961D01*
X154714756Y-100306874D01*
X155003975Y-100307126D01*
X155271275Y-100196680D01*
X155475961Y-99992350D01*
X155586874Y-99725244D01*
X155587126Y-99436025D01*
X155476680Y-99168725D01*
X155272350Y-98964039D01*
X155005244Y-98853126D01*
X154716025Y-98852874D01*
X154448725Y-98963320D01*
X154244039Y-99167650D01*
X154133126Y-99434756D01*
X154132874Y-99723975D01*
X127557000Y-99723975D01*
X127557000Y-98472975D01*
X136688874Y-98472975D01*
X136799320Y-98740275D01*
X137003650Y-98944961D01*
X137270756Y-99055874D01*
X137559975Y-99056126D01*
X137827275Y-98945680D01*
X138031961Y-98741350D01*
X138142874Y-98474244D01*
X138143126Y-98185025D01*
X138032680Y-97917725D01*
X137828350Y-97713039D01*
X137561244Y-97602126D01*
X137272025Y-97601874D01*
X137004725Y-97712320D01*
X136800039Y-97916650D01*
X136689126Y-98183756D01*
X136688874Y-98472975D01*
X127557000Y-98472975D01*
X127557000Y-95040865D01*
X137313874Y-95040865D01*
X137424320Y-95308165D01*
X137628650Y-95512851D01*
X137895756Y-95623764D01*
X138184975Y-95624016D01*
X138452275Y-95513570D01*
X138541024Y-95424975D01*
X145324874Y-95424975D01*
X145435320Y-95692275D01*
X145639650Y-95896961D01*
X145906756Y-96007874D01*
X146195975Y-96008126D01*
X146463275Y-95897680D01*
X146667961Y-95693350D01*
X146778874Y-95426244D01*
X146779126Y-95137025D01*
X146668680Y-94869725D01*
X146464350Y-94665039D01*
X146269128Y-94583975D01*
X154232874Y-94583975D01*
X154343320Y-94851275D01*
X154547650Y-95055961D01*
X154814756Y-95166874D01*
X155103975Y-95167126D01*
X155371275Y-95056680D01*
X155575961Y-94852350D01*
X155686874Y-94585244D01*
X155687126Y-94296025D01*
X155576680Y-94028725D01*
X155372350Y-93824039D01*
X155105244Y-93713126D01*
X154816025Y-93712874D01*
X154548725Y-93823320D01*
X154344039Y-94027650D01*
X154233126Y-94294756D01*
X154232874Y-94583975D01*
X146269128Y-94583975D01*
X146197244Y-94554126D01*
X145908025Y-94553874D01*
X145640725Y-94664320D01*
X145436039Y-94868650D01*
X145325126Y-95135756D01*
X145324874Y-95424975D01*
X138541024Y-95424975D01*
X138656961Y-95309240D01*
X138767874Y-95042134D01*
X138768126Y-94752915D01*
X138657680Y-94485615D01*
X138453350Y-94280929D01*
X138186244Y-94170016D01*
X137897025Y-94169764D01*
X137629725Y-94280210D01*
X137425039Y-94484540D01*
X137314126Y-94751646D01*
X137313874Y-95040865D01*
X127557000Y-95040865D01*
X127557000Y-94077959D01*
X138478874Y-94077959D01*
X138589320Y-94345259D01*
X138793650Y-94549945D01*
X139060756Y-94660858D01*
X139349975Y-94661110D01*
X139617275Y-94550664D01*
X139821961Y-94346334D01*
X139932874Y-94079228D01*
X139933126Y-93790009D01*
X139822680Y-93522709D01*
X139618350Y-93318023D01*
X139493006Y-93265975D01*
X140879874Y-93265975D01*
X140990320Y-93533275D01*
X141194650Y-93737961D01*
X141461756Y-93848874D01*
X141750975Y-93849126D01*
X142018275Y-93738680D01*
X142222961Y-93534350D01*
X142333874Y-93267244D01*
X142334126Y-92978025D01*
X142223680Y-92710725D01*
X142019350Y-92506039D01*
X141752244Y-92395126D01*
X141463025Y-92394874D01*
X141195725Y-92505320D01*
X140991039Y-92709650D01*
X140880126Y-92976756D01*
X140879874Y-93265975D01*
X139493006Y-93265975D01*
X139351244Y-93207110D01*
X139062025Y-93206858D01*
X138794725Y-93317304D01*
X138590039Y-93521634D01*
X138479126Y-93788740D01*
X138478874Y-94077959D01*
X127557000Y-94077959D01*
X127557000Y-91893459D01*
X142628275Y-91893459D01*
X142738721Y-92160759D01*
X142943051Y-92365445D01*
X143210157Y-92476358D01*
X143499376Y-92476610D01*
X143766676Y-92366164D01*
X143971362Y-92161834D01*
X144082275Y-91894728D01*
X144082527Y-91605509D01*
X143972081Y-91338209D01*
X143767751Y-91133523D01*
X143703817Y-91106975D01*
X148753874Y-91106975D01*
X148864320Y-91374275D01*
X149068650Y-91578961D01*
X149335756Y-91689874D01*
X149624975Y-91690126D01*
X149892275Y-91579680D01*
X150096961Y-91375350D01*
X150207874Y-91108244D01*
X150208126Y-90819025D01*
X150097680Y-90551725D01*
X149893350Y-90347039D01*
X149626244Y-90236126D01*
X149337025Y-90235874D01*
X149069725Y-90346320D01*
X148865039Y-90550650D01*
X148754126Y-90817756D01*
X148753874Y-91106975D01*
X143703817Y-91106975D01*
X143500645Y-91022610D01*
X143211426Y-91022358D01*
X142944126Y-91132804D01*
X142739440Y-91337134D01*
X142628527Y-91604240D01*
X142628275Y-91893459D01*
X127557000Y-91893459D01*
X127557000Y-72437975D01*
X150531874Y-72437975D01*
X150642320Y-72705275D01*
X150846650Y-72909961D01*
X150873683Y-72921186D01*
X150770039Y-73024650D01*
X150659126Y-73291756D01*
X150658874Y-73580975D01*
X150769320Y-73848275D01*
X150929366Y-74008600D01*
X150770039Y-74167650D01*
X150659126Y-74434756D01*
X150658874Y-74723975D01*
X150769320Y-74991275D01*
X150929366Y-75151600D01*
X150770039Y-75310650D01*
X150659126Y-75577756D01*
X150658874Y-75866975D01*
X150769320Y-76134275D01*
X150973650Y-76338961D01*
X151240756Y-76449874D01*
X151529975Y-76450126D01*
X151797275Y-76339680D01*
X152001961Y-76135350D01*
X152112874Y-75868244D01*
X152113126Y-75579025D01*
X152002680Y-75311725D01*
X151842634Y-75151400D01*
X152001961Y-74992350D01*
X152091190Y-74777465D01*
X152302007Y-75092975D01*
X152716295Y-75369794D01*
X153169791Y-75460000D01*
X152716295Y-75550206D01*
X152302007Y-75827025D01*
X152025188Y-76241313D01*
X151927982Y-76730000D01*
X152025188Y-77218687D01*
X152302007Y-77632975D01*
X152716295Y-77909794D01*
X153169791Y-78000000D01*
X152716295Y-78090206D01*
X152302007Y-78367025D01*
X152112995Y-78649900D01*
X152113126Y-78500025D01*
X152002680Y-78232725D01*
X151969634Y-78199621D01*
X152001961Y-78167350D01*
X152112874Y-77900244D01*
X152113126Y-77611025D01*
X152002680Y-77343725D01*
X151798350Y-77139039D01*
X151531244Y-77028126D01*
X151242025Y-77027874D01*
X150974725Y-77138320D01*
X150770039Y-77342650D01*
X150659126Y-77609756D01*
X150658874Y-77898975D01*
X150769320Y-78166275D01*
X150802366Y-78199379D01*
X150770039Y-78231650D01*
X150659126Y-78498756D01*
X150658874Y-78787975D01*
X150769320Y-79055275D01*
X150929366Y-79215600D01*
X150770039Y-79374650D01*
X150659126Y-79641756D01*
X150658874Y-79930975D01*
X150769320Y-80198275D01*
X150973650Y-80402961D01*
X151019282Y-80421909D01*
X150974725Y-80440320D01*
X150770039Y-80644650D01*
X150659126Y-80911756D01*
X150658874Y-81200975D01*
X150769320Y-81468275D01*
X150929366Y-81628600D01*
X150770039Y-81787650D01*
X150659126Y-82054756D01*
X150658874Y-82343975D01*
X150769320Y-82611275D01*
X150865866Y-82707989D01*
X150770039Y-82803650D01*
X150659126Y-83070756D01*
X150658874Y-83359975D01*
X150769320Y-83627275D01*
X150973650Y-83831961D01*
X151240756Y-83942874D01*
X151529975Y-83943126D01*
X151797275Y-83832680D01*
X152001961Y-83628350D01*
X152112874Y-83361244D01*
X152113126Y-83072025D01*
X152002680Y-82804725D01*
X151906134Y-82708011D01*
X151996033Y-82618268D01*
X152348642Y-83005183D01*
X152709583Y-83174691D01*
X152302007Y-83447025D01*
X152025188Y-83861313D01*
X151927982Y-84350000D01*
X152025188Y-84838687D01*
X152302007Y-85252975D01*
X152716295Y-85529794D01*
X153169791Y-85620000D01*
X152716295Y-85710206D01*
X152302007Y-85987025D01*
X152025188Y-86401313D01*
X151927982Y-86890000D01*
X152025188Y-87378687D01*
X152302007Y-87792975D01*
X152656222Y-88029655D01*
X152548039Y-88137650D01*
X152437126Y-88404756D01*
X152436874Y-88693975D01*
X152547320Y-88961275D01*
X152751650Y-89165961D01*
X153018756Y-89276874D01*
X153307975Y-89277126D01*
X153575275Y-89166680D01*
X153779961Y-88962350D01*
X153828495Y-88845469D01*
X154021650Y-89038961D01*
X154288756Y-89149874D01*
X154577975Y-89150126D01*
X154845275Y-89039680D01*
X155049961Y-88835350D01*
X155160874Y-88568244D01*
X155161126Y-88279025D01*
X155127353Y-88197288D01*
X155413108Y-88331486D01*
X155643000Y-88210819D01*
X155643000Y-87017000D01*
X155897000Y-87017000D01*
X155897000Y-88210819D01*
X156126892Y-88331486D01*
X156651358Y-88085183D01*
X157041645Y-87656924D01*
X157211476Y-87246890D01*
X157090155Y-87017000D01*
X155897000Y-87017000D01*
X155643000Y-87017000D01*
X155623000Y-87017000D01*
X155623000Y-86763000D01*
X155643000Y-86763000D01*
X155643000Y-86743000D01*
X155897000Y-86743000D01*
X155897000Y-86763000D01*
X157090155Y-86763000D01*
X157211476Y-86533110D01*
X157041645Y-86123076D01*
X156651358Y-85694817D01*
X156290417Y-85525309D01*
X156697993Y-85252975D01*
X156974812Y-84838687D01*
X157072018Y-84350000D01*
X156974812Y-83861313D01*
X156697993Y-83447025D01*
X156283705Y-83170206D01*
X155830209Y-83080000D01*
X156283705Y-82989794D01*
X156697993Y-82712975D01*
X156974812Y-82298687D01*
X157072018Y-81810000D01*
X156974812Y-81321313D01*
X156697993Y-80907025D01*
X156283705Y-80630206D01*
X155830209Y-80540000D01*
X156283705Y-80449794D01*
X156697993Y-80172975D01*
X156974812Y-79758687D01*
X157072018Y-79270000D01*
X156974812Y-78781313D01*
X156697993Y-78367025D01*
X156290417Y-78094691D01*
X156651358Y-77925183D01*
X157041645Y-77496924D01*
X157211476Y-77086890D01*
X157090155Y-76857000D01*
X155897000Y-76857000D01*
X155897000Y-76877000D01*
X155643000Y-76877000D01*
X155643000Y-76857000D01*
X155623000Y-76857000D01*
X155623000Y-76603000D01*
X155643000Y-76603000D01*
X155643000Y-76583000D01*
X155897000Y-76583000D01*
X155897000Y-76603000D01*
X157090155Y-76603000D01*
X157211476Y-76373110D01*
X157041645Y-75963076D01*
X156651358Y-75534817D01*
X156290417Y-75365309D01*
X156697993Y-75092975D01*
X156974812Y-74678687D01*
X157072018Y-74190000D01*
X156974812Y-73701313D01*
X156697993Y-73287025D01*
X156283705Y-73010206D01*
X155830209Y-72920000D01*
X156283705Y-72829794D01*
X156697993Y-72552975D01*
X156974812Y-72138687D01*
X157072018Y-71650000D01*
X156974812Y-71161313D01*
X156697993Y-70747025D01*
X156283705Y-70470206D01*
X155795018Y-70373000D01*
X155744982Y-70373000D01*
X155256295Y-70470206D01*
X154842007Y-70747025D01*
X154565188Y-71161313D01*
X154515365Y-71411790D01*
X154515365Y-70800000D01*
X154485591Y-70641763D01*
X154392073Y-70496433D01*
X154249381Y-70398936D01*
X154080000Y-70364635D01*
X152380000Y-70364635D01*
X152221763Y-70394409D01*
X152076433Y-70487927D01*
X151978936Y-70630619D01*
X151944635Y-70800000D01*
X151944635Y-72049609D01*
X151875680Y-71882725D01*
X151671350Y-71678039D01*
X151404244Y-71567126D01*
X151115025Y-71566874D01*
X150847725Y-71677320D01*
X150643039Y-71881650D01*
X150532126Y-72148756D01*
X150531874Y-72437975D01*
X127557000Y-72437975D01*
X127557000Y-67357975D01*
X140244874Y-67357975D01*
X140355320Y-67625275D01*
X140559650Y-67829961D01*
X140826756Y-67940874D01*
X141115975Y-67941126D01*
X141383275Y-67830680D01*
X141587961Y-67626350D01*
X141646665Y-67484975D01*
X143419874Y-67484975D01*
X143530320Y-67752275D01*
X143734650Y-67956961D01*
X144001756Y-68067874D01*
X144290975Y-68068126D01*
X144558275Y-67957680D01*
X144762961Y-67753350D01*
X144873874Y-67486244D01*
X144874126Y-67197025D01*
X144861629Y-67166779D01*
X144890756Y-67178874D01*
X145179975Y-67179126D01*
X145447275Y-67068680D01*
X145651961Y-66864350D01*
X145762874Y-66597244D01*
X145763126Y-66308025D01*
X145755709Y-66290074D01*
X145814975Y-66290126D01*
X146082275Y-66179680D01*
X146286961Y-65975350D01*
X146397874Y-65708244D01*
X146398126Y-65419025D01*
X146287680Y-65151725D01*
X146083350Y-64947039D01*
X145816244Y-64836126D01*
X145527025Y-64835874D01*
X145259725Y-64946320D01*
X145055039Y-65150650D01*
X144944126Y-65417756D01*
X144943874Y-65706975D01*
X144951291Y-65724926D01*
X144892025Y-65724874D01*
X144624725Y-65835320D01*
X144420039Y-66039650D01*
X144309126Y-66306756D01*
X144308874Y-66595975D01*
X144321371Y-66626221D01*
X144292244Y-66614126D01*
X144003025Y-66613874D01*
X143735725Y-66724320D01*
X143531039Y-66928650D01*
X143420126Y-67195756D01*
X143419874Y-67484975D01*
X141646665Y-67484975D01*
X141698874Y-67359244D01*
X141699126Y-67070025D01*
X141588680Y-66802725D01*
X141384350Y-66598039D01*
X141117244Y-66487126D01*
X140828025Y-66486874D01*
X140560725Y-66597320D01*
X140356039Y-66801650D01*
X140245126Y-67068756D01*
X140244874Y-67357975D01*
X127557000Y-67357975D01*
X127557000Y-66397264D01*
X128135512Y-65175981D01*
X129146531Y-64260741D01*
X130457857Y-63792419D01*
X130983670Y-63757000D01*
X153365855Y-63757000D01*
X152674439Y-64042687D01*
X152674439Y-64042687D01*
G37*
X152674439Y-64042687D02*
X151765877Y-64949664D01*
X151273561Y-66135294D01*
X151272441Y-67419074D01*
X151762687Y-68605561D01*
X152669664Y-69514123D01*
X153855294Y-70006439D01*
X155139074Y-70007559D01*
X156325561Y-69517313D01*
X157234123Y-68610336D01*
X157513000Y-67938725D01*
X157513000Y-108682456D01*
X157451358Y-108614817D01*
X156926892Y-108368514D01*
X156697000Y-108489181D01*
X156697000Y-109683000D01*
X156717000Y-109683000D01*
X156717000Y-109937000D01*
X156697000Y-109937000D01*
X156697000Y-109957000D01*
X156443000Y-109957000D01*
X156443000Y-109937000D01*
X155249845Y-109937000D01*
X155128524Y-110166890D01*
X155298355Y-110576924D01*
X155688642Y-111005183D01*
X155815236Y-111064635D01*
X155720000Y-111064635D01*
X155561763Y-111094409D01*
X155416433Y-111187927D01*
X155318936Y-111330619D01*
X155284635Y-111500000D01*
X155284635Y-113200000D01*
X155314409Y-113358237D01*
X155407927Y-113503567D01*
X155550619Y-113601064D01*
X155720000Y-113635365D01*
X157420000Y-113635365D01*
X157513000Y-113617866D01*
X157513000Y-124613000D01*
X156680000Y-124613000D01*
X156673787Y-124614236D01*
X156646608Y-124613289D01*
X156592136Y-124622165D01*
X156536942Y-124622165D01*
X156226972Y-124683823D01*
X156226967Y-124683823D01*
X156130033Y-124723975D01*
X156055018Y-124755047D01*
X156055016Y-124755049D01*
X155792236Y-124930633D01*
X155749869Y-124973000D01*
X142213996Y-124973000D01*
X142316874Y-124725244D01*
X142317126Y-124436025D01*
X142206680Y-124168725D01*
X142103099Y-124064964D01*
X142104915Y-124063151D01*
X142147650Y-124105961D01*
X142414756Y-124216874D01*
X142703975Y-124217126D01*
X142971275Y-124106680D01*
X143175961Y-123902350D01*
X143187743Y-123873975D01*
X153582874Y-123873975D01*
X153693320Y-124141275D01*
X153897650Y-124345961D01*
X154164756Y-124456874D01*
X154453975Y-124457126D01*
X154721275Y-124346680D01*
X154925961Y-124142350D01*
X155036874Y-123875244D01*
X155037126Y-123586025D01*
X154926680Y-123318725D01*
X154722350Y-123114039D01*
X154455244Y-123003126D01*
X154166025Y-123002874D01*
X153898725Y-123113320D01*
X153694039Y-123317650D01*
X153583126Y-123584756D01*
X153582874Y-123873975D01*
X143187743Y-123873975D01*
X143286874Y-123635244D01*
X143287126Y-123346025D01*
X143232565Y-123213975D01*
X143932874Y-123213975D01*
X144043320Y-123481275D01*
X144247650Y-123685961D01*
X144514756Y-123796874D01*
X144803975Y-123797126D01*
X145071275Y-123686680D01*
X145275961Y-123482350D01*
X145386874Y-123215244D01*
X145387126Y-122926025D01*
X145303823Y-122724417D01*
X145447599Y-122784118D01*
X145736818Y-122784370D01*
X146004118Y-122673924D01*
X146208804Y-122469594D01*
X146211123Y-122464010D01*
X146370886Y-122530350D01*
X146660105Y-122530602D01*
X146927405Y-122420156D01*
X146951384Y-122396218D01*
X147169706Y-122486874D01*
X147458925Y-122487126D01*
X147726225Y-122376680D01*
X147930911Y-122172350D01*
X147950998Y-122123975D01*
X151712874Y-122123975D01*
X151823320Y-122391275D01*
X152027650Y-122595961D01*
X152294756Y-122706874D01*
X152583975Y-122707126D01*
X152851275Y-122596680D01*
X153055961Y-122392350D01*
X153166874Y-122125244D01*
X153167126Y-121836025D01*
X153056680Y-121568725D01*
X152852350Y-121364039D01*
X152585244Y-121253126D01*
X152296025Y-121252874D01*
X152028725Y-121363320D01*
X151824039Y-121567650D01*
X151713126Y-121834756D01*
X151712874Y-122123975D01*
X147950998Y-122123975D01*
X148041824Y-121905244D01*
X148042076Y-121616025D01*
X147931630Y-121348725D01*
X147727300Y-121144039D01*
X147460194Y-121033126D01*
X147170975Y-121032874D01*
X146903675Y-121143320D01*
X146879696Y-121167258D01*
X146661374Y-121076602D01*
X146372155Y-121076350D01*
X146104855Y-121186796D01*
X145900169Y-121391126D01*
X145897850Y-121396710D01*
X145738087Y-121330370D01*
X145448868Y-121330118D01*
X145181568Y-121440564D01*
X144976882Y-121644894D01*
X144865969Y-121912000D01*
X144865717Y-122201219D01*
X144949020Y-122402827D01*
X144805244Y-122343126D01*
X144516025Y-122342874D01*
X144248725Y-122453320D01*
X144044039Y-122657650D01*
X143933126Y-122924756D01*
X143932874Y-123213975D01*
X143232565Y-123213975D01*
X143176680Y-123078725D01*
X142972350Y-122874039D01*
X142705244Y-122763126D01*
X142416025Y-122762874D01*
X142148725Y-122873320D01*
X142085085Y-122936849D01*
X142042350Y-122894039D01*
X141876529Y-122825184D01*
X141876615Y-122726406D01*
X141766169Y-122459106D01*
X141665348Y-122358109D01*
X141771403Y-122102701D01*
X141771520Y-121968018D01*
X141905655Y-121912595D01*
X142110341Y-121708265D01*
X142221254Y-121441159D01*
X142221506Y-121151940D01*
X142111060Y-120884640D01*
X141906730Y-120679954D01*
X141639624Y-120569041D01*
X141350405Y-120568789D01*
X141213545Y-120625339D01*
X141206680Y-120608725D01*
X141195070Y-120597094D01*
X141212903Y-120579292D01*
X141269214Y-120443681D01*
X155212849Y-120443681D01*
X155346082Y-120766131D01*
X155592571Y-121013051D01*
X155914789Y-121146847D01*
X156263681Y-121147151D01*
X156586131Y-121013918D01*
X156833051Y-120767429D01*
X156966847Y-120445211D01*
X156967151Y-120096319D01*
X156833918Y-119773869D01*
X156587429Y-119526949D01*
X156265211Y-119393153D01*
X155916319Y-119392849D01*
X155593869Y-119526082D01*
X155346949Y-119772571D01*
X155213153Y-120094789D01*
X155212849Y-120443681D01*
X141269214Y-120443681D01*
X141323816Y-120312186D01*
X141324068Y-120022967D01*
X141213622Y-119755667D01*
X141183122Y-119725114D01*
X141225961Y-119682350D01*
X141336874Y-119415244D01*
X141337126Y-119126025D01*
X141226680Y-118858725D01*
X141022350Y-118654039D01*
X140755244Y-118543126D01*
X140466025Y-118542874D01*
X140198725Y-118653320D01*
X139994039Y-118857650D01*
X139883126Y-119124756D01*
X139882874Y-119413975D01*
X139993320Y-119681275D01*
X140023820Y-119711828D01*
X139980981Y-119754592D01*
X139870068Y-120021698D01*
X139869816Y-120310917D01*
X139980262Y-120578217D01*
X139991872Y-120589848D01*
X139974039Y-120607650D01*
X139863126Y-120874756D01*
X139862874Y-121163975D01*
X139973320Y-121431275D01*
X140177650Y-121635961D01*
X140359489Y-121711468D01*
X140317655Y-121812213D01*
X140317578Y-121900502D01*
X140209933Y-121900408D01*
X139942633Y-122010854D01*
X139737947Y-122215184D01*
X139627034Y-122482290D01*
X139626782Y-122771509D01*
X139737228Y-123038809D01*
X139941558Y-123243495D01*
X140208664Y-123354408D01*
X140497883Y-123354660D01*
X140574205Y-123323124D01*
X140737139Y-123486342D01*
X140902960Y-123555197D01*
X140902874Y-123653975D01*
X141013320Y-123921275D01*
X141116901Y-124025036D01*
X140974039Y-124167650D01*
X140863126Y-124434756D01*
X140862874Y-124723975D01*
X140965769Y-124973000D01*
X140447000Y-124973000D01*
X140447000Y-124130000D01*
X140410691Y-123947460D01*
X140307290Y-123792710D01*
X140152540Y-123689309D01*
X139970000Y-123653000D01*
X138460000Y-123653000D01*
X138277460Y-123689309D01*
X138122710Y-123792710D01*
X138019309Y-123947460D01*
X137983000Y-124130000D01*
X137983000Y-124973000D01*
X130147705Y-124973000D01*
X130146551Y-124971846D01*
X129893500Y-124802763D01*
X129721552Y-124731539D01*
X129721551Y-124731539D01*
X129423058Y-124672165D01*
X129356076Y-124672165D01*
X129310000Y-124663000D01*
X127557000Y-124663000D01*
X127557000Y-122361675D01*
X135190274Y-122361675D01*
X135300720Y-122628975D01*
X135505050Y-122833661D01*
X135772156Y-122944574D01*
X136061375Y-122944826D01*
X136328675Y-122834380D01*
X136533361Y-122630050D01*
X136644274Y-122362944D01*
X136644526Y-122073725D01*
X136534080Y-121806425D01*
X136329750Y-121601739D01*
X136062644Y-121490826D01*
X135773425Y-121490574D01*
X135506125Y-121601020D01*
X135301439Y-121805350D01*
X135190526Y-122072456D01*
X135190274Y-122361675D01*
X127557000Y-122361675D01*
X127557000Y-117443681D01*
X155212849Y-117443681D01*
X155346082Y-117766131D01*
X155592571Y-118013051D01*
X155914789Y-118146847D01*
X156263681Y-118147151D01*
X156586131Y-118013918D01*
X156833051Y-117767429D01*
X156966847Y-117445211D01*
X156967151Y-117096319D01*
X156833918Y-116773869D01*
X156587429Y-116526949D01*
X156265211Y-116393153D01*
X155916319Y-116392849D01*
X155593869Y-116526082D01*
X155346949Y-116772571D01*
X155213153Y-117094789D01*
X155212849Y-117443681D01*
X127557000Y-117443681D01*
X127557000Y-116379975D01*
X129741974Y-116379975D01*
X129852420Y-116647275D01*
X130056750Y-116851961D01*
X130323856Y-116962874D01*
X130613075Y-116963126D01*
X130880375Y-116852680D01*
X131085061Y-116648350D01*
X131195974Y-116381244D01*
X131196226Y-116092025D01*
X131085780Y-115824725D01*
X130881450Y-115620039D01*
X130614344Y-115509126D01*
X130325125Y-115508874D01*
X130057825Y-115619320D01*
X129853139Y-115823650D01*
X129742226Y-116090756D01*
X129741974Y-116379975D01*
X127557000Y-116379975D01*
X127557000Y-115233975D01*
X143332874Y-115233975D01*
X143443320Y-115501275D01*
X143647650Y-115705961D01*
X143914756Y-115816874D01*
X144203975Y-115817126D01*
X144471275Y-115706680D01*
X144675961Y-115502350D01*
X144786874Y-115235244D01*
X144787126Y-114946025D01*
X144676680Y-114678725D01*
X144472350Y-114474039D01*
X144205244Y-114363126D01*
X143916025Y-114362874D01*
X143648725Y-114473320D01*
X143444039Y-114677650D01*
X143333126Y-114944756D01*
X143332874Y-115233975D01*
X127557000Y-115233975D01*
X127557000Y-113713975D01*
X143452874Y-113713975D01*
X143563320Y-113981275D01*
X143767650Y-114185961D01*
X144034756Y-114296874D01*
X144323975Y-114297126D01*
X144591275Y-114186680D01*
X144795961Y-113982350D01*
X144906874Y-113715244D01*
X144907126Y-113426025D01*
X144796680Y-113158725D01*
X144592350Y-112954039D01*
X144325244Y-112843126D01*
X144036025Y-112842874D01*
X143768725Y-112953320D01*
X143564039Y-113157650D01*
X143453126Y-113424756D01*
X143452874Y-113713975D01*
X127557000Y-113713975D01*
X127557000Y-109453110D01*
X155128524Y-109453110D01*
X155249845Y-109683000D01*
X156443000Y-109683000D01*
X156443000Y-108489181D01*
X156213108Y-108368514D01*
X155688642Y-108614817D01*
X155298355Y-109043076D01*
X155128524Y-109453110D01*
X127557000Y-109453110D01*
X127557000Y-102155975D01*
X142784874Y-102155975D01*
X142895320Y-102423275D01*
X143099650Y-102627961D01*
X143366756Y-102738874D01*
X143655975Y-102739126D01*
X143923275Y-102628680D01*
X144127961Y-102424350D01*
X144238874Y-102157244D01*
X144239126Y-101868025D01*
X144128680Y-101600725D01*
X143924350Y-101396039D01*
X143657244Y-101285126D01*
X143368025Y-101284874D01*
X143100725Y-101395320D01*
X142896039Y-101599650D01*
X142785126Y-101866756D01*
X142784874Y-102155975D01*
X127557000Y-102155975D01*
X127557000Y-101266975D01*
X137831874Y-101266975D01*
X137942320Y-101534275D01*
X138146650Y-101738961D01*
X138413756Y-101849874D01*
X138702975Y-101850126D01*
X138970275Y-101739680D01*
X139174961Y-101535350D01*
X139285874Y-101268244D01*
X139286126Y-100979025D01*
X139175680Y-100711725D01*
X138971350Y-100507039D01*
X138704244Y-100396126D01*
X138415025Y-100395874D01*
X138147725Y-100506320D01*
X137943039Y-100710650D01*
X137832126Y-100977756D01*
X137831874Y-101266975D01*
X127557000Y-101266975D01*
X127557000Y-99723975D01*
X154132874Y-99723975D01*
X154243320Y-99991275D01*
X154447650Y-100195961D01*
X154714756Y-100306874D01*
X155003975Y-100307126D01*
X155271275Y-100196680D01*
X155475961Y-99992350D01*
X155586874Y-99725244D01*
X155587126Y-99436025D01*
X155476680Y-99168725D01*
X155272350Y-98964039D01*
X155005244Y-98853126D01*
X154716025Y-98852874D01*
X154448725Y-98963320D01*
X154244039Y-99167650D01*
X154133126Y-99434756D01*
X154132874Y-99723975D01*
X127557000Y-99723975D01*
X127557000Y-98472975D01*
X136688874Y-98472975D01*
X136799320Y-98740275D01*
X137003650Y-98944961D01*
X137270756Y-99055874D01*
X137559975Y-99056126D01*
X137827275Y-98945680D01*
X138031961Y-98741350D01*
X138142874Y-98474244D01*
X138143126Y-98185025D01*
X138032680Y-97917725D01*
X137828350Y-97713039D01*
X137561244Y-97602126D01*
X137272025Y-97601874D01*
X137004725Y-97712320D01*
X136800039Y-97916650D01*
X136689126Y-98183756D01*
X136688874Y-98472975D01*
X127557000Y-98472975D01*
X127557000Y-95040865D01*
X137313874Y-95040865D01*
X137424320Y-95308165D01*
X137628650Y-95512851D01*
X137895756Y-95623764D01*
X138184975Y-95624016D01*
X138452275Y-95513570D01*
X138541024Y-95424975D01*
X145324874Y-95424975D01*
X145435320Y-95692275D01*
X145639650Y-95896961D01*
X145906756Y-96007874D01*
X146195975Y-96008126D01*
X146463275Y-95897680D01*
X146667961Y-95693350D01*
X146778874Y-95426244D01*
X146779126Y-95137025D01*
X146668680Y-94869725D01*
X146464350Y-94665039D01*
X146269128Y-94583975D01*
X154232874Y-94583975D01*
X154343320Y-94851275D01*
X154547650Y-95055961D01*
X154814756Y-95166874D01*
X155103975Y-95167126D01*
X155371275Y-95056680D01*
X155575961Y-94852350D01*
X155686874Y-94585244D01*
X155687126Y-94296025D01*
X155576680Y-94028725D01*
X155372350Y-93824039D01*
X155105244Y-93713126D01*
X154816025Y-93712874D01*
X154548725Y-93823320D01*
X154344039Y-94027650D01*
X154233126Y-94294756D01*
X154232874Y-94583975D01*
X146269128Y-94583975D01*
X146197244Y-94554126D01*
X145908025Y-94553874D01*
X145640725Y-94664320D01*
X145436039Y-94868650D01*
X145325126Y-95135756D01*
X145324874Y-95424975D01*
X138541024Y-95424975D01*
X138656961Y-95309240D01*
X138767874Y-95042134D01*
X138768126Y-94752915D01*
X138657680Y-94485615D01*
X138453350Y-94280929D01*
X138186244Y-94170016D01*
X137897025Y-94169764D01*
X137629725Y-94280210D01*
X137425039Y-94484540D01*
X137314126Y-94751646D01*
X137313874Y-95040865D01*
X127557000Y-95040865D01*
X127557000Y-94077959D01*
X138478874Y-94077959D01*
X138589320Y-94345259D01*
X138793650Y-94549945D01*
X139060756Y-94660858D01*
X139349975Y-94661110D01*
X139617275Y-94550664D01*
X139821961Y-94346334D01*
X139932874Y-94079228D01*
X139933126Y-93790009D01*
X139822680Y-93522709D01*
X139618350Y-93318023D01*
X139493006Y-93265975D01*
X140879874Y-93265975D01*
X140990320Y-93533275D01*
X141194650Y-93737961D01*
X141461756Y-93848874D01*
X141750975Y-93849126D01*
X142018275Y-93738680D01*
X142222961Y-93534350D01*
X142333874Y-93267244D01*
X142334126Y-92978025D01*
X142223680Y-92710725D01*
X142019350Y-92506039D01*
X141752244Y-92395126D01*
X141463025Y-92394874D01*
X141195725Y-92505320D01*
X140991039Y-92709650D01*
X140880126Y-92976756D01*
X140879874Y-93265975D01*
X139493006Y-93265975D01*
X139351244Y-93207110D01*
X139062025Y-93206858D01*
X138794725Y-93317304D01*
X138590039Y-93521634D01*
X138479126Y-93788740D01*
X138478874Y-94077959D01*
X127557000Y-94077959D01*
X127557000Y-91893459D01*
X142628275Y-91893459D01*
X142738721Y-92160759D01*
X142943051Y-92365445D01*
X143210157Y-92476358D01*
X143499376Y-92476610D01*
X143766676Y-92366164D01*
X143971362Y-92161834D01*
X144082275Y-91894728D01*
X144082527Y-91605509D01*
X143972081Y-91338209D01*
X143767751Y-91133523D01*
X143703817Y-91106975D01*
X148753874Y-91106975D01*
X148864320Y-91374275D01*
X149068650Y-91578961D01*
X149335756Y-91689874D01*
X149624975Y-91690126D01*
X149892275Y-91579680D01*
X150096961Y-91375350D01*
X150207874Y-91108244D01*
X150208126Y-90819025D01*
X150097680Y-90551725D01*
X149893350Y-90347039D01*
X149626244Y-90236126D01*
X149337025Y-90235874D01*
X149069725Y-90346320D01*
X148865039Y-90550650D01*
X148754126Y-90817756D01*
X148753874Y-91106975D01*
X143703817Y-91106975D01*
X143500645Y-91022610D01*
X143211426Y-91022358D01*
X142944126Y-91132804D01*
X142739440Y-91337134D01*
X142628527Y-91604240D01*
X142628275Y-91893459D01*
X127557000Y-91893459D01*
X127557000Y-72437975D01*
X150531874Y-72437975D01*
X150642320Y-72705275D01*
X150846650Y-72909961D01*
X150873683Y-72921186D01*
X150770039Y-73024650D01*
X150659126Y-73291756D01*
X150658874Y-73580975D01*
X150769320Y-73848275D01*
X150929366Y-74008600D01*
X150770039Y-74167650D01*
X150659126Y-74434756D01*
X150658874Y-74723975D01*
X150769320Y-74991275D01*
X150929366Y-75151600D01*
X150770039Y-75310650D01*
X150659126Y-75577756D01*
X150658874Y-75866975D01*
X150769320Y-76134275D01*
X150973650Y-76338961D01*
X151240756Y-76449874D01*
X151529975Y-76450126D01*
X151797275Y-76339680D01*
X152001961Y-76135350D01*
X152112874Y-75868244D01*
X152113126Y-75579025D01*
X152002680Y-75311725D01*
X151842634Y-75151400D01*
X152001961Y-74992350D01*
X152091190Y-74777465D01*
X152302007Y-75092975D01*
X152716295Y-75369794D01*
X153169791Y-75460000D01*
X152716295Y-75550206D01*
X152302007Y-75827025D01*
X152025188Y-76241313D01*
X151927982Y-76730000D01*
X152025188Y-77218687D01*
X152302007Y-77632975D01*
X152716295Y-77909794D01*
X153169791Y-78000000D01*
X152716295Y-78090206D01*
X152302007Y-78367025D01*
X152112995Y-78649900D01*
X152113126Y-78500025D01*
X152002680Y-78232725D01*
X151969634Y-78199621D01*
X152001961Y-78167350D01*
X152112874Y-77900244D01*
X152113126Y-77611025D01*
X152002680Y-77343725D01*
X151798350Y-77139039D01*
X151531244Y-77028126D01*
X151242025Y-77027874D01*
X150974725Y-77138320D01*
X150770039Y-77342650D01*
X150659126Y-77609756D01*
X150658874Y-77898975D01*
X150769320Y-78166275D01*
X150802366Y-78199379D01*
X150770039Y-78231650D01*
X150659126Y-78498756D01*
X150658874Y-78787975D01*
X150769320Y-79055275D01*
X150929366Y-79215600D01*
X150770039Y-79374650D01*
X150659126Y-79641756D01*
X150658874Y-79930975D01*
X150769320Y-80198275D01*
X150973650Y-80402961D01*
X151019282Y-80421909D01*
X150974725Y-80440320D01*
X150770039Y-80644650D01*
X150659126Y-80911756D01*
X150658874Y-81200975D01*
X150769320Y-81468275D01*
X150929366Y-81628600D01*
X150770039Y-81787650D01*
X150659126Y-82054756D01*
X150658874Y-82343975D01*
X150769320Y-82611275D01*
X150865866Y-82707989D01*
X150770039Y-82803650D01*
X150659126Y-83070756D01*
X150658874Y-83359975D01*
X150769320Y-83627275D01*
X150973650Y-83831961D01*
X151240756Y-83942874D01*
X151529975Y-83943126D01*
X151797275Y-83832680D01*
X152001961Y-83628350D01*
X152112874Y-83361244D01*
X152113126Y-83072025D01*
X152002680Y-82804725D01*
X151906134Y-82708011D01*
X151996033Y-82618268D01*
X152348642Y-83005183D01*
X152709583Y-83174691D01*
X152302007Y-83447025D01*
X152025188Y-83861313D01*
X151927982Y-84350000D01*
X152025188Y-84838687D01*
X152302007Y-85252975D01*
X152716295Y-85529794D01*
X153169791Y-85620000D01*
X152716295Y-85710206D01*
X152302007Y-85987025D01*
X152025188Y-86401313D01*
X151927982Y-86890000D01*
X152025188Y-87378687D01*
X152302007Y-87792975D01*
X152656222Y-88029655D01*
X152548039Y-88137650D01*
X152437126Y-88404756D01*
X152436874Y-88693975D01*
X152547320Y-88961275D01*
X152751650Y-89165961D01*
X153018756Y-89276874D01*
X153307975Y-89277126D01*
X153575275Y-89166680D01*
X153779961Y-88962350D01*
X153828495Y-88845469D01*
X154021650Y-89038961D01*
X154288756Y-89149874D01*
X154577975Y-89150126D01*
X154845275Y-89039680D01*
X155049961Y-88835350D01*
X155160874Y-88568244D01*
X155161126Y-88279025D01*
X155127353Y-88197288D01*
X155413108Y-88331486D01*
X155643000Y-88210819D01*
X155643000Y-87017000D01*
X155897000Y-87017000D01*
X155897000Y-88210819D01*
X156126892Y-88331486D01*
X156651358Y-88085183D01*
X157041645Y-87656924D01*
X157211476Y-87246890D01*
X157090155Y-87017000D01*
X155897000Y-87017000D01*
X155643000Y-87017000D01*
X155623000Y-87017000D01*
X155623000Y-86763000D01*
X155643000Y-86763000D01*
X155643000Y-86743000D01*
X155897000Y-86743000D01*
X155897000Y-86763000D01*
X157090155Y-86763000D01*
X157211476Y-86533110D01*
X157041645Y-86123076D01*
X156651358Y-85694817D01*
X156290417Y-85525309D01*
X156697993Y-85252975D01*
X156974812Y-84838687D01*
X157072018Y-84350000D01*
X156974812Y-83861313D01*
X156697993Y-83447025D01*
X156283705Y-83170206D01*
X155830209Y-83080000D01*
X156283705Y-82989794D01*
X156697993Y-82712975D01*
X156974812Y-82298687D01*
X157072018Y-81810000D01*
X156974812Y-81321313D01*
X156697993Y-80907025D01*
X156283705Y-80630206D01*
X155830209Y-80540000D01*
X156283705Y-80449794D01*
X156697993Y-80172975D01*
X156974812Y-79758687D01*
X157072018Y-79270000D01*
X156974812Y-78781313D01*
X156697993Y-78367025D01*
X156290417Y-78094691D01*
X156651358Y-77925183D01*
X157041645Y-77496924D01*
X157211476Y-77086890D01*
X157090155Y-76857000D01*
X155897000Y-76857000D01*
X155897000Y-76877000D01*
X155643000Y-76877000D01*
X155643000Y-76857000D01*
X155623000Y-76857000D01*
X155623000Y-76603000D01*
X155643000Y-76603000D01*
X155643000Y-76583000D01*
X155897000Y-76583000D01*
X155897000Y-76603000D01*
X157090155Y-76603000D01*
X157211476Y-76373110D01*
X157041645Y-75963076D01*
X156651358Y-75534817D01*
X156290417Y-75365309D01*
X156697993Y-75092975D01*
X156974812Y-74678687D01*
X157072018Y-74190000D01*
X156974812Y-73701313D01*
X156697993Y-73287025D01*
X156283705Y-73010206D01*
X155830209Y-72920000D01*
X156283705Y-72829794D01*
X156697993Y-72552975D01*
X156974812Y-72138687D01*
X157072018Y-71650000D01*
X156974812Y-71161313D01*
X156697993Y-70747025D01*
X156283705Y-70470206D01*
X155795018Y-70373000D01*
X155744982Y-70373000D01*
X155256295Y-70470206D01*
X154842007Y-70747025D01*
X154565188Y-71161313D01*
X154515365Y-71411790D01*
X154515365Y-70800000D01*
X154485591Y-70641763D01*
X154392073Y-70496433D01*
X154249381Y-70398936D01*
X154080000Y-70364635D01*
X152380000Y-70364635D01*
X152221763Y-70394409D01*
X152076433Y-70487927D01*
X151978936Y-70630619D01*
X151944635Y-70800000D01*
X151944635Y-72049609D01*
X151875680Y-71882725D01*
X151671350Y-71678039D01*
X151404244Y-71567126D01*
X151115025Y-71566874D01*
X150847725Y-71677320D01*
X150643039Y-71881650D01*
X150532126Y-72148756D01*
X150531874Y-72437975D01*
X127557000Y-72437975D01*
X127557000Y-67357975D01*
X140244874Y-67357975D01*
X140355320Y-67625275D01*
X140559650Y-67829961D01*
X140826756Y-67940874D01*
X141115975Y-67941126D01*
X141383275Y-67830680D01*
X141587961Y-67626350D01*
X141646665Y-67484975D01*
X143419874Y-67484975D01*
X143530320Y-67752275D01*
X143734650Y-67956961D01*
X144001756Y-68067874D01*
X144290975Y-68068126D01*
X144558275Y-67957680D01*
X144762961Y-67753350D01*
X144873874Y-67486244D01*
X144874126Y-67197025D01*
X144861629Y-67166779D01*
X144890756Y-67178874D01*
X145179975Y-67179126D01*
X145447275Y-67068680D01*
X145651961Y-66864350D01*
X145762874Y-66597244D01*
X145763126Y-66308025D01*
X145755709Y-66290074D01*
X145814975Y-66290126D01*
X146082275Y-66179680D01*
X146286961Y-65975350D01*
X146397874Y-65708244D01*
X146398126Y-65419025D01*
X146287680Y-65151725D01*
X146083350Y-64947039D01*
X145816244Y-64836126D01*
X145527025Y-64835874D01*
X145259725Y-64946320D01*
X145055039Y-65150650D01*
X144944126Y-65417756D01*
X144943874Y-65706975D01*
X144951291Y-65724926D01*
X144892025Y-65724874D01*
X144624725Y-65835320D01*
X144420039Y-66039650D01*
X144309126Y-66306756D01*
X144308874Y-66595975D01*
X144321371Y-66626221D01*
X144292244Y-66614126D01*
X144003025Y-66613874D01*
X143735725Y-66724320D01*
X143531039Y-66928650D01*
X143420126Y-67195756D01*
X143419874Y-67484975D01*
X141646665Y-67484975D01*
X141698874Y-67359244D01*
X141699126Y-67070025D01*
X141588680Y-66802725D01*
X141384350Y-66598039D01*
X141117244Y-66487126D01*
X140828025Y-66486874D01*
X140560725Y-66597320D01*
X140356039Y-66801650D01*
X140245126Y-67068756D01*
X140244874Y-67357975D01*
X127557000Y-67357975D01*
X127557000Y-66397264D01*
X128135512Y-65175981D01*
X129146531Y-64260741D01*
X130457857Y-63792419D01*
X130983670Y-63757000D01*
X153365855Y-63757000D01*
X152674439Y-64042687D01*
G36*
X154565188Y-84838687D02*
X154842007Y-85252975D01*
X155249583Y-85525309D01*
X154888642Y-85694817D01*
X154498355Y-86123076D01*
X154402896Y-86353548D01*
X154157993Y-85987025D01*
X153743705Y-85710206D01*
X153290209Y-85620000D01*
X153743705Y-85529794D01*
X154157993Y-85252975D01*
X154434812Y-84838687D01*
X154500000Y-84510965D01*
X154565188Y-84838687D01*
X154565188Y-84838687D01*
G37*
X154565188Y-84838687D02*
X154842007Y-85252975D01*
X155249583Y-85525309D01*
X154888642Y-85694817D01*
X154498355Y-86123076D01*
X154402896Y-86353548D01*
X154157993Y-85987025D01*
X153743705Y-85710206D01*
X153290209Y-85620000D01*
X153743705Y-85529794D01*
X154157993Y-85252975D01*
X154434812Y-84838687D01*
X154500000Y-84510965D01*
X154565188Y-84838687D01*
G36*
X154842007Y-82712975D02*
X155256295Y-82989794D01*
X155709791Y-83080000D01*
X155256295Y-83170206D01*
X154842007Y-83447025D01*
X154565188Y-83861313D01*
X154500000Y-84189035D01*
X154434812Y-83861313D01*
X154157993Y-83447025D01*
X153750417Y-83174691D01*
X154111358Y-83005183D01*
X154501645Y-82576924D01*
X154597104Y-82346452D01*
X154842007Y-82712975D01*
X154842007Y-82712975D01*
G37*
X154842007Y-82712975D02*
X155256295Y-82989794D01*
X155709791Y-83080000D01*
X155256295Y-83170206D01*
X154842007Y-83447025D01*
X154565188Y-83861313D01*
X154500000Y-84189035D01*
X154434812Y-83861313D01*
X154157993Y-83447025D01*
X153750417Y-83174691D01*
X154111358Y-83005183D01*
X154501645Y-82576924D01*
X154597104Y-82346452D01*
X154842007Y-82712975D01*
G36*
X153357000Y-81683000D02*
X153377000Y-81683000D01*
X153377000Y-81937000D01*
X153357000Y-81937000D01*
X153357000Y-81957000D01*
X153103000Y-81957000D01*
X153103000Y-81937000D01*
X153083000Y-81937000D01*
X153083000Y-81683000D01*
X153103000Y-81683000D01*
X153103000Y-81663000D01*
X153357000Y-81663000D01*
X153357000Y-81683000D01*
X153357000Y-81683000D01*
G37*
X153357000Y-81683000D02*
X153377000Y-81683000D01*
X153377000Y-81937000D01*
X153357000Y-81937000D01*
X153357000Y-81957000D01*
X153103000Y-81957000D01*
X153103000Y-81937000D01*
X153083000Y-81937000D01*
X153083000Y-81683000D01*
X153103000Y-81683000D01*
X153103000Y-81663000D01*
X153357000Y-81663000D01*
X153357000Y-81683000D01*
M02*
