G04 #@! TF.FileFunction,Soldermask,Top*
%FSLAX46Y46*%
G04 Gerber Fmt 4.6, Leading zero omitted, Abs format (unit mm)*
G04 Created by KiCad (PCBNEW 4.0.7) date 06/11/18 13:45:27*
%MOMM*%
%LPD*%
G01*
G04 APERTURE LIST*
%ADD10C,0.100000*%
%ADD11R,0.600000X2.000000*%
%ADD12C,0.900000*%
%ADD13R,1.500000X0.700000*%
%ADD14R,0.800000X1.000000*%
%ADD15R,2.400000X1.500000*%
%ADD16R,4.600000X1.100000*%
%ADD17R,9.400000X10.800000*%
%ADD18R,1.700000X1.700000*%
%ADD19O,1.700000X1.700000*%
%ADD20R,2.550000X2.500000*%
%ADD21R,0.800000X0.750000*%
%ADD22R,0.600000X0.500000*%
%ADD23R,3.500000X1.600000*%
%ADD24R,0.750000X0.800000*%
%ADD25R,0.500000X0.600000*%
%ADD26R,0.900000X1.200000*%
%ADD27R,0.600000X0.700000*%
%ADD28R,1.050000X1.000000*%
%ADD29R,2.200000X1.050000*%
%ADD30R,0.700000X1.300000*%
%ADD31R,0.900000X0.800000*%
%ADD32R,0.400000X0.600000*%
%ADD33R,0.600000X0.400000*%
%ADD34R,0.900000X1.700000*%
%ADD35R,1.800000X0.600000*%
%ADD36R,0.600000X1.800000*%
%ADD37C,6.200000*%
%ADD38R,2.500000X1.800000*%
G04 APERTURE END LIST*
D10*
D11*
X131265001Y-126785001D03*
X132065001Y-126785001D03*
X132865001Y-126785001D03*
X133665001Y-126785001D03*
X134465001Y-126785001D03*
X135265001Y-126785001D03*
X136065001Y-126785001D03*
X136865001Y-126785001D03*
X140865001Y-126785001D03*
X141665001Y-126785001D03*
X142465001Y-126785001D03*
X143265001Y-126785001D03*
X144065001Y-126785001D03*
X144865001Y-126785001D03*
X145665001Y-126785001D03*
X146465001Y-126785001D03*
X147265001Y-126785001D03*
X148065001Y-126785001D03*
X148865001Y-126785001D03*
X149665001Y-126785001D03*
X150465001Y-126785001D03*
X151265001Y-126785001D03*
X152065001Y-126785001D03*
X152865001Y-126785001D03*
X153665001Y-126785001D03*
X154465001Y-126785001D03*
D12*
X156090000Y-120270000D03*
X156090000Y-117270000D03*
D13*
X154330000Y-121020000D03*
X154330000Y-118020000D03*
X154330000Y-116520000D03*
D14*
X157190000Y-122420000D03*
X157190000Y-115120000D03*
X154980000Y-115120000D03*
X154980000Y-122420000D03*
D15*
X149360000Y-114620000D03*
X149360000Y-110620000D03*
D16*
X142640000Y-111190000D03*
X142640000Y-109490000D03*
X142640000Y-107790000D03*
X142640000Y-106090000D03*
X142640000Y-104390000D03*
D17*
X133490000Y-107790000D03*
D18*
X153230000Y-71650000D03*
D19*
X155770000Y-71650000D03*
X153230000Y-74190000D03*
X155770000Y-74190000D03*
X153230000Y-76730000D03*
X155770000Y-76730000D03*
X153230000Y-79270000D03*
X155770000Y-79270000D03*
X153230000Y-81810000D03*
X155770000Y-81810000D03*
X153230000Y-84350000D03*
X155770000Y-84350000D03*
X153230000Y-86890000D03*
X155770000Y-86890000D03*
D20*
X136161000Y-95281000D03*
X141211000Y-95281000D03*
D21*
X139956000Y-92487000D03*
X138456000Y-92487000D03*
D22*
X138686000Y-91090000D03*
X139786000Y-91090000D03*
X138644000Y-90074000D03*
X139744000Y-90074000D03*
D23*
X139100000Y-117887000D03*
X133700000Y-117887000D03*
D24*
X143710000Y-116380000D03*
X143710000Y-117880000D03*
D25*
X153630000Y-109980000D03*
X153630000Y-111080000D03*
D26*
X134748000Y-99472000D03*
X131448000Y-99472000D03*
D27*
X156960000Y-95280000D03*
X155860000Y-95280000D03*
X156970000Y-96860000D03*
X155870000Y-96860000D03*
D28*
X131180000Y-79230000D03*
D29*
X129655000Y-80705000D03*
X129655000Y-77755000D03*
D18*
X156570000Y-112350000D03*
D19*
X156570000Y-109810000D03*
D30*
X141922000Y-99599000D03*
X140022000Y-99599000D03*
D31*
X149070000Y-97890000D03*
X149070000Y-99790000D03*
X151070000Y-98840000D03*
X149878000Y-93696000D03*
X149878000Y-95596000D03*
X151878000Y-94646000D03*
X143840000Y-92680000D03*
X143840000Y-94580000D03*
X145840000Y-93630000D03*
D32*
X153400000Y-93440000D03*
X154300000Y-93440000D03*
X153350000Y-91690000D03*
X154250000Y-91690000D03*
X153340000Y-89947000D03*
X154240000Y-89947000D03*
X155660000Y-90080000D03*
X156560000Y-90080000D03*
X155660000Y-91680000D03*
X156560000Y-91680000D03*
D33*
X146306000Y-96667000D03*
X146306000Y-97567000D03*
X147449000Y-97175000D03*
X147449000Y-98075000D03*
D32*
X154320000Y-95270000D03*
X153420000Y-95270000D03*
X147270000Y-91200000D03*
X146370000Y-91200000D03*
D33*
X148465000Y-94334000D03*
X148465000Y-93434000D03*
D32*
X154320000Y-96860000D03*
X153420000Y-96860000D03*
D33*
X146680000Y-105140000D03*
X146680000Y-106040000D03*
D32*
X144220000Y-91310000D03*
X145120000Y-91310000D03*
D33*
X147195000Y-94461000D03*
X147195000Y-93561000D03*
X146710000Y-107400000D03*
X146710000Y-108300000D03*
D34*
X156540000Y-99400000D03*
X153140000Y-99400000D03*
D35*
X149910000Y-84610000D03*
X149910000Y-83510000D03*
X149910000Y-82410000D03*
X149910000Y-81310000D03*
X149910000Y-80210000D03*
X149910000Y-79110000D03*
X149910000Y-78010000D03*
X149910000Y-76910000D03*
X149910000Y-75810000D03*
X149910000Y-74710000D03*
X149910000Y-73610000D03*
X149910000Y-72510000D03*
D36*
X146360000Y-69660000D03*
X145260000Y-69660000D03*
X144160000Y-69660000D03*
X143060000Y-69660000D03*
X141960000Y-69660000D03*
X140860000Y-69660000D03*
X139760000Y-69660000D03*
X138660000Y-69660000D03*
X137560000Y-69660000D03*
D35*
X134010000Y-72510000D03*
X134010000Y-73610000D03*
X134010000Y-74710000D03*
X134010000Y-75810000D03*
X134010000Y-76910000D03*
X134010000Y-78010000D03*
X134010000Y-79110000D03*
X134010000Y-80210000D03*
X134010000Y-81310000D03*
X134010000Y-82410000D03*
X134010000Y-83510000D03*
X134010000Y-84610000D03*
D36*
X137560000Y-87460000D03*
X138660000Y-87460000D03*
X139760000Y-87460000D03*
X140860000Y-87460000D03*
X141960000Y-87460000D03*
X143060000Y-87460000D03*
X144160000Y-87460000D03*
X145260000Y-87460000D03*
X146360000Y-87460000D03*
D37*
X154500000Y-66780000D03*
D33*
X131190000Y-82610000D03*
X131190000Y-83510000D03*
D22*
X130050000Y-83540000D03*
X128950000Y-83540000D03*
X130060000Y-82610000D03*
X128960000Y-82610000D03*
D23*
X150180000Y-104740000D03*
X155580000Y-104740000D03*
D38*
X146100000Y-117750000D03*
X150100000Y-117750000D03*
M02*
