G04 #@! TF.FileFunction,Legend,Top*
%FSLAX46Y46*%
G04 Gerber Fmt 4.6, Leading zero omitted, Abs format (unit mm)*
G04 Created by KiCad (PCBNEW 4.0.7) date 06/11/18 13:45:27*
%MOMM*%
%LPD*%
G01*
G04 APERTURE LIST*
%ADD10C,0.100000*%
%ADD11C,0.200000*%
%ADD12C,0.300000*%
%ADD13C,0.010000*%
%ADD14C,0.120000*%
%ADD15C,0.127000*%
%ADD16C,0.150000*%
G04 APERTURE END LIST*
D10*
D11*
X128856667Y-96106667D02*
X128856667Y-95630476D01*
X129142381Y-96201905D02*
X128142381Y-95868572D01*
X129142381Y-95535238D01*
X129142381Y-95201905D02*
X128475714Y-95201905D01*
X128142381Y-95201905D02*
X128190000Y-95249524D01*
X128237619Y-95201905D01*
X128190000Y-95154286D01*
X128142381Y-95201905D01*
X128237619Y-95201905D01*
X129142381Y-94725715D02*
X128475714Y-94725715D01*
X128666190Y-94725715D02*
X128570952Y-94678096D01*
X128523333Y-94630477D01*
X128475714Y-94535239D01*
X128475714Y-94440000D01*
X129094762Y-93678095D02*
X129142381Y-93773333D01*
X129142381Y-93963810D01*
X129094762Y-94059048D01*
X129047143Y-94106667D01*
X128951905Y-94154286D01*
X128666190Y-94154286D01*
X128570952Y-94106667D01*
X128523333Y-94059048D01*
X128475714Y-93963810D01*
X128475714Y-93773333D01*
X128523333Y-93678095D01*
X129142381Y-93249524D02*
X128142381Y-93249524D01*
X129142381Y-92820952D02*
X128618571Y-92820952D01*
X128523333Y-92868571D01*
X128475714Y-92963809D01*
X128475714Y-93106667D01*
X128523333Y-93201905D01*
X128570952Y-93249524D01*
X129142381Y-92344762D02*
X128475714Y-92344762D01*
X128142381Y-92344762D02*
X128190000Y-92392381D01*
X128237619Y-92344762D01*
X128190000Y-92297143D01*
X128142381Y-92344762D01*
X128237619Y-92344762D01*
X128475714Y-91868572D02*
X129475714Y-91868572D01*
X128523333Y-91868572D02*
X128475714Y-91773334D01*
X128475714Y-91582857D01*
X128523333Y-91487619D01*
X128570952Y-91440000D01*
X128666190Y-91392381D01*
X128951905Y-91392381D01*
X129047143Y-91440000D01*
X129094762Y-91487619D01*
X129142381Y-91582857D01*
X129142381Y-91773334D01*
X129094762Y-91868572D01*
X128142381Y-90344762D02*
X128142381Y-89773333D01*
X129142381Y-90059048D02*
X128142381Y-90059048D01*
X129094762Y-89059047D02*
X129142381Y-89154285D01*
X129142381Y-89344762D01*
X129094762Y-89440000D01*
X128999524Y-89487619D01*
X128618571Y-89487619D01*
X128523333Y-89440000D01*
X128475714Y-89344762D01*
X128475714Y-89154285D01*
X128523333Y-89059047D01*
X128618571Y-89011428D01*
X128713810Y-89011428D01*
X128809048Y-89487619D01*
X129094762Y-88154285D02*
X129142381Y-88249523D01*
X129142381Y-88440000D01*
X129094762Y-88535238D01*
X129047143Y-88582857D01*
X128951905Y-88630476D01*
X128666190Y-88630476D01*
X128570952Y-88582857D01*
X128523333Y-88535238D01*
X128475714Y-88440000D01*
X128475714Y-88249523D01*
X128523333Y-88154285D01*
X129142381Y-87725714D02*
X128142381Y-87725714D01*
X129142381Y-87297142D02*
X128618571Y-87297142D01*
X128523333Y-87344761D01*
X128475714Y-87439999D01*
X128475714Y-87582857D01*
X128523333Y-87678095D01*
X128570952Y-87725714D01*
X129047143Y-86820952D02*
X129094762Y-86773333D01*
X129142381Y-86820952D01*
X129094762Y-86868571D01*
X129047143Y-86820952D01*
X129142381Y-86820952D01*
X130556667Y-97892381D02*
X130556667Y-97416190D01*
X130842381Y-97987619D02*
X129842381Y-97654286D01*
X130842381Y-97320952D01*
X130842381Y-96987619D02*
X130175714Y-96987619D01*
X129842381Y-96987619D02*
X129890000Y-97035238D01*
X129937619Y-96987619D01*
X129890000Y-96940000D01*
X129842381Y-96987619D01*
X129937619Y-96987619D01*
X130842381Y-96511429D02*
X130175714Y-96511429D01*
X130366190Y-96511429D02*
X130270952Y-96463810D01*
X130223333Y-96416191D01*
X130175714Y-96320953D01*
X130175714Y-96225714D01*
X130842381Y-95892381D02*
X129842381Y-95892381D01*
X130556667Y-95559047D01*
X129842381Y-95225714D01*
X130842381Y-95225714D01*
X130842381Y-94606667D02*
X130794762Y-94701905D01*
X130747143Y-94749524D01*
X130651905Y-94797143D01*
X130366190Y-94797143D01*
X130270952Y-94749524D01*
X130223333Y-94701905D01*
X130175714Y-94606667D01*
X130175714Y-94463809D01*
X130223333Y-94368571D01*
X130270952Y-94320952D01*
X130366190Y-94273333D01*
X130651905Y-94273333D01*
X130747143Y-94320952D01*
X130794762Y-94368571D01*
X130842381Y-94463809D01*
X130842381Y-94606667D01*
X130842381Y-93844762D02*
X129842381Y-93844762D01*
X130223333Y-93844762D02*
X130175714Y-93749524D01*
X130175714Y-93559047D01*
X130223333Y-93463809D01*
X130270952Y-93416190D01*
X130366190Y-93368571D01*
X130651905Y-93368571D01*
X130747143Y-93416190D01*
X130794762Y-93463809D01*
X130842381Y-93559047D01*
X130842381Y-93749524D01*
X130794762Y-93844762D01*
X130842381Y-92940000D02*
X130175714Y-92940000D01*
X129842381Y-92940000D02*
X129890000Y-92987619D01*
X129937619Y-92940000D01*
X129890000Y-92892381D01*
X129842381Y-92940000D01*
X129937619Y-92940000D01*
X130842381Y-92320953D02*
X130794762Y-92416191D01*
X130699524Y-92463810D01*
X129842381Y-92463810D01*
X130794762Y-91559047D02*
X130842381Y-91654285D01*
X130842381Y-91844762D01*
X130794762Y-91940000D01*
X130699524Y-91987619D01*
X130318571Y-91987619D01*
X130223333Y-91940000D01*
X130175714Y-91844762D01*
X130175714Y-91654285D01*
X130223333Y-91559047D01*
X130318571Y-91511428D01*
X130413810Y-91511428D01*
X130509048Y-91987619D01*
X130842381Y-89749523D02*
X130366190Y-90082857D01*
X130842381Y-90320952D02*
X129842381Y-90320952D01*
X129842381Y-89939999D01*
X129890000Y-89844761D01*
X129937619Y-89797142D01*
X130032857Y-89749523D01*
X130175714Y-89749523D01*
X130270952Y-89797142D01*
X130318571Y-89844761D01*
X130366190Y-89939999D01*
X130366190Y-90320952D01*
X130794762Y-88939999D02*
X130842381Y-89035237D01*
X130842381Y-89225714D01*
X130794762Y-89320952D01*
X130699524Y-89368571D01*
X130318571Y-89368571D01*
X130223333Y-89320952D01*
X130175714Y-89225714D01*
X130175714Y-89035237D01*
X130223333Y-88939999D01*
X130318571Y-88892380D01*
X130413810Y-88892380D01*
X130509048Y-89368571D01*
X130175714Y-88559047D02*
X130842381Y-88320952D01*
X130175714Y-88082856D01*
X130842381Y-86416189D02*
X130842381Y-86987618D01*
X130842381Y-86701904D02*
X129842381Y-86701904D01*
X129985238Y-86797142D01*
X130080476Y-86892380D01*
X130128095Y-86987618D01*
X130747143Y-85987618D02*
X130794762Y-85939999D01*
X130842381Y-85987618D01*
X130794762Y-86035237D01*
X130747143Y-85987618D01*
X130842381Y-85987618D01*
X129842381Y-85320952D02*
X129842381Y-85225713D01*
X129890000Y-85130475D01*
X129937619Y-85082856D01*
X130032857Y-85035237D01*
X130223333Y-84987618D01*
X130461429Y-84987618D01*
X130651905Y-85035237D01*
X130747143Y-85082856D01*
X130794762Y-85130475D01*
X130842381Y-85225713D01*
X130842381Y-85320952D01*
X130794762Y-85416190D01*
X130747143Y-85463809D01*
X130651905Y-85511428D01*
X130461429Y-85559047D01*
X130223333Y-85559047D01*
X130032857Y-85511428D01*
X129937619Y-85463809D01*
X129890000Y-85416190D01*
X129842381Y-85320952D01*
D12*
X154138572Y-113197143D02*
X155281429Y-113197143D01*
X154710000Y-113768571D02*
X154710000Y-112625714D01*
D10*
X155464287Y-123684286D02*
X155630953Y-123684286D01*
X155702382Y-123946190D02*
X155464287Y-123946190D01*
X155464287Y-123446190D01*
X155702382Y-123446190D01*
X155869049Y-123446190D02*
X156202382Y-123946190D01*
X156202382Y-123446190D02*
X155869049Y-123946190D01*
X156321429Y-123446190D02*
X156607143Y-123446190D01*
X156464286Y-123946190D02*
X156464286Y-123446190D01*
X153816190Y-115284285D02*
X153578095Y-115450952D01*
X153816190Y-115569999D02*
X153316190Y-115569999D01*
X153316190Y-115379523D01*
X153340000Y-115331904D01*
X153363810Y-115308095D01*
X153411429Y-115284285D01*
X153482857Y-115284285D01*
X153530476Y-115308095D01*
X153554286Y-115331904D01*
X153578095Y-115379523D01*
X153578095Y-115569999D01*
X153816190Y-115069999D02*
X153316190Y-115069999D01*
X153316190Y-114879523D01*
X153340000Y-114831904D01*
X153363810Y-114808095D01*
X153411429Y-114784285D01*
X153482857Y-114784285D01*
X153530476Y-114808095D01*
X153554286Y-114831904D01*
X153578095Y-114879523D01*
X153578095Y-115069999D01*
X153816190Y-114569999D02*
X153482857Y-114569999D01*
X153316190Y-114569999D02*
X153340000Y-114593809D01*
X153363810Y-114569999D01*
X153340000Y-114546190D01*
X153316190Y-114569999D01*
X153363810Y-114569999D01*
D12*
X151005001Y-87603571D02*
X151005001Y-87960714D01*
X150647858Y-87817857D02*
X151005001Y-87960714D01*
X151362143Y-87817857D01*
X150790715Y-88246429D02*
X151005001Y-87960714D01*
X151219286Y-88246429D01*
D13*
X139965001Y-124185001D02*
X139965001Y-125135001D01*
X139965001Y-125135001D02*
X157965001Y-125135001D01*
X138465001Y-125135001D02*
X138465001Y-124135001D01*
X138465001Y-124135001D02*
X139965001Y-124135001D01*
X127965001Y-125135001D02*
X138465001Y-125135001D01*
D14*
X154640000Y-117370000D02*
X154640000Y-117170000D01*
X157490000Y-121620000D02*
X157490000Y-115920000D01*
X154640000Y-120370000D02*
X154640000Y-118670000D01*
X155690000Y-122220000D02*
X156480000Y-122220000D01*
X156480000Y-115320000D02*
X155690000Y-115320000D01*
X150860000Y-109320000D02*
X152560000Y-109320000D01*
X152560000Y-109320000D02*
X152560000Y-115920000D01*
X152560000Y-115920000D02*
X150860000Y-115920000D01*
X147860000Y-115920000D02*
X146160000Y-115920000D01*
X146160000Y-115920000D02*
X146160000Y-109320000D01*
X146160000Y-109320000D02*
X147860000Y-109320000D01*
X138315000Y-112990000D02*
X139815000Y-112990000D01*
X139815000Y-112990000D02*
X139815000Y-112040000D01*
X139815000Y-112040000D02*
X144940000Y-112040000D01*
X138315000Y-102590000D02*
X139815000Y-102590000D01*
X139815000Y-102590000D02*
X139815000Y-103540000D01*
X139815000Y-103540000D02*
X140915000Y-103540000D01*
X151900000Y-88220000D02*
X157100000Y-88220000D01*
X151900000Y-72920000D02*
X151900000Y-88220000D01*
X157100000Y-70320000D02*
X157100000Y-88220000D01*
X151900000Y-72920000D02*
X154500000Y-72920000D01*
X154500000Y-72920000D02*
X154500000Y-70320000D01*
X154500000Y-70320000D02*
X157100000Y-70320000D01*
X151900000Y-71650000D02*
X151900000Y-70320000D01*
X151900000Y-70320000D02*
X153230000Y-70320000D01*
X134586000Y-93431000D02*
X141686000Y-93431000D01*
X134586000Y-97131000D02*
X141686000Y-97131000D01*
X134586000Y-93431000D02*
X134586000Y-97131000D01*
X139556000Y-93087000D02*
X138856000Y-93087000D01*
X138856000Y-91887000D02*
X139556000Y-91887000D01*
X139486000Y-90620000D02*
X138986000Y-90620000D01*
X138986000Y-91560000D02*
X139486000Y-91560000D01*
X139444000Y-89604000D02*
X138944000Y-89604000D01*
X138944000Y-90544000D02*
X139444000Y-90544000D01*
X139700000Y-115347000D02*
X139700000Y-116767000D01*
X133100000Y-114587000D02*
X133100000Y-116767000D01*
X133100000Y-121187000D02*
X133100000Y-119007000D01*
X139700000Y-120427000D02*
X139700000Y-119007000D01*
X133100000Y-114587000D02*
X138940000Y-114587000D01*
X138940000Y-114587000D02*
X139700000Y-115347000D01*
X139700000Y-120427000D02*
X138940000Y-121187000D01*
X138940000Y-121187000D02*
X133100000Y-121187000D01*
X144310000Y-116780000D02*
X144310000Y-117480000D01*
X143110000Y-117480000D02*
X143110000Y-116780000D01*
X154100000Y-110780000D02*
X154100000Y-110280000D01*
X153160000Y-110280000D02*
X153160000Y-110780000D01*
X135348000Y-100472000D02*
X135348000Y-98472000D01*
X135348000Y-98472000D02*
X131448000Y-98472000D01*
X135348000Y-100472000D02*
X131448000Y-100472000D01*
X155460000Y-94830000D02*
X155460000Y-95730000D01*
X155460000Y-95730000D02*
X156910000Y-95730000D01*
X155460000Y-94830000D02*
X156910000Y-94830000D01*
X155470000Y-96410000D02*
X155470000Y-97310000D01*
X155470000Y-97310000D02*
X156920000Y-97310000D01*
X155470000Y-96410000D02*
X156920000Y-96410000D01*
D15*
X128355000Y-80530000D02*
X128355000Y-77930000D01*
D14*
X140372000Y-98719000D02*
X141572000Y-98719000D01*
X141572000Y-100479000D02*
X140372000Y-100479000D01*
X150830000Y-100420000D02*
X150830000Y-99490000D01*
X150830000Y-97260000D02*
X150830000Y-98190000D01*
X150830000Y-97260000D02*
X148670000Y-97260000D01*
X150830000Y-100420000D02*
X149370000Y-100420000D01*
X151638000Y-96226000D02*
X151638000Y-95296000D01*
X151638000Y-93066000D02*
X151638000Y-93996000D01*
X151638000Y-93066000D02*
X149478000Y-93066000D01*
X151638000Y-96226000D02*
X150178000Y-96226000D01*
X145600000Y-95210000D02*
X145600000Y-94280000D01*
X145600000Y-92050000D02*
X145600000Y-92980000D01*
X145600000Y-92050000D02*
X143440000Y-92050000D01*
X145600000Y-95210000D02*
X144140000Y-95210000D01*
X154100000Y-92910000D02*
X153600000Y-92910000D01*
X153600000Y-93970000D02*
X154100000Y-93970000D01*
X154050000Y-91160000D02*
X153550000Y-91160000D01*
X153550000Y-92220000D02*
X154050000Y-92220000D01*
X154040000Y-89417000D02*
X153540000Y-89417000D01*
X153540000Y-90477000D02*
X154040000Y-90477000D01*
X156360000Y-89550000D02*
X155860000Y-89550000D01*
X155860000Y-90610000D02*
X156360000Y-90610000D01*
X156360000Y-91150000D02*
X155860000Y-91150000D01*
X155860000Y-92210000D02*
X156360000Y-92210000D01*
X146836000Y-97367000D02*
X146836000Y-96867000D01*
X145776000Y-96867000D02*
X145776000Y-97367000D01*
X147979000Y-97875000D02*
X147979000Y-97375000D01*
X146919000Y-97375000D02*
X146919000Y-97875000D01*
X153620000Y-95800000D02*
X154120000Y-95800000D01*
X154120000Y-94740000D02*
X153620000Y-94740000D01*
X146570000Y-91730000D02*
X147070000Y-91730000D01*
X147070000Y-90670000D02*
X146570000Y-90670000D01*
X147935000Y-93634000D02*
X147935000Y-94134000D01*
X148995000Y-94134000D02*
X148995000Y-93634000D01*
X153620000Y-97390000D02*
X154120000Y-97390000D01*
X154120000Y-96330000D02*
X153620000Y-96330000D01*
X147210000Y-105840000D02*
X147210000Y-105340000D01*
X146150000Y-105340000D02*
X146150000Y-105840000D01*
X144920000Y-90780000D02*
X144420000Y-90780000D01*
X144420000Y-91840000D02*
X144920000Y-91840000D01*
X146665000Y-93761000D02*
X146665000Y-94261000D01*
X147725000Y-94261000D02*
X147725000Y-93761000D01*
X147240000Y-108100000D02*
X147240000Y-107600000D01*
X146180000Y-107600000D02*
X146180000Y-108100000D01*
X156490000Y-98300000D02*
X156490000Y-98000000D01*
X156490000Y-98000000D02*
X153190000Y-98000000D01*
X153190000Y-98000000D02*
X153190000Y-98300000D01*
X156490000Y-100500000D02*
X156490000Y-100800000D01*
X156490000Y-100800000D02*
X153190000Y-100800000D01*
X153190000Y-100800000D02*
X153190000Y-100500000D01*
D10*
X151964000Y-84760000D02*
G75*
G03X151964000Y-84760000I-254000J0D01*
G01*
D15*
X149810000Y-87360000D02*
X149810000Y-85210000D01*
X149810000Y-71910000D02*
X149810000Y-69760000D01*
X149810000Y-69760000D02*
X146960000Y-69760000D01*
X136960000Y-69760000D02*
X134110000Y-69760000D01*
X134110000Y-69760000D02*
X134110000Y-71910000D01*
X134110000Y-85210000D02*
X134110000Y-87360000D01*
X134110000Y-87360000D02*
X136960000Y-87360000D01*
X146960000Y-87360000D02*
X149810000Y-87360000D01*
D14*
X131720000Y-83310000D02*
X131720000Y-82810000D01*
X130660000Y-82810000D02*
X130660000Y-83310000D01*
X129250000Y-84010000D02*
X129750000Y-84010000D01*
X129750000Y-83070000D02*
X129250000Y-83070000D01*
X129260000Y-83080000D02*
X129760000Y-83080000D01*
X129760000Y-82140000D02*
X129260000Y-82140000D01*
X149580000Y-107280000D02*
X149580000Y-105860000D01*
X156180000Y-108040000D02*
X156180000Y-105860000D01*
X156180000Y-101440000D02*
X156180000Y-103620000D01*
X149580000Y-102200000D02*
X149580000Y-103620000D01*
X156180000Y-108040000D02*
X150340000Y-108040000D01*
X150340000Y-108040000D02*
X149580000Y-107280000D01*
X149580000Y-102200000D02*
X150340000Y-101440000D01*
X150340000Y-101440000D02*
X156180000Y-101440000D01*
X144700000Y-116100000D02*
X144700000Y-119400000D01*
X144700000Y-119400000D02*
X150100000Y-119400000D01*
X144700000Y-116100000D02*
X150100000Y-116100000D01*
D10*
X152842381Y-119966666D02*
X152866190Y-119895237D01*
X152866190Y-119776190D01*
X152842381Y-119728571D01*
X152818571Y-119704761D01*
X152770952Y-119680952D01*
X152723333Y-119680952D01*
X152675714Y-119704761D01*
X152651905Y-119728571D01*
X152628095Y-119776190D01*
X152604286Y-119871428D01*
X152580476Y-119919047D01*
X152556667Y-119942856D01*
X152509048Y-119966666D01*
X152461429Y-119966666D01*
X152413810Y-119942856D01*
X152390000Y-119919047D01*
X152366190Y-119871428D01*
X152366190Y-119752380D01*
X152390000Y-119680952D01*
X152366190Y-119514285D02*
X152866190Y-119395238D01*
X152509048Y-119300000D01*
X152866190Y-119204762D01*
X152366190Y-119085714D01*
X152413810Y-118919047D02*
X152390000Y-118895237D01*
X152366190Y-118847618D01*
X152366190Y-118728571D01*
X152390000Y-118680952D01*
X152413810Y-118657142D01*
X152461429Y-118633333D01*
X152509048Y-118633333D01*
X152580476Y-118657142D01*
X152866190Y-118942856D01*
X152866190Y-118633333D01*
X145376667Y-113976190D02*
X145138572Y-113976190D01*
X145138572Y-113476190D01*
X145805238Y-113976190D02*
X145519524Y-113976190D01*
X145662381Y-113976190D02*
X145662381Y-113476190D01*
X145614762Y-113547619D01*
X145567143Y-113595238D01*
X145519524Y-113619048D01*
X127771190Y-108299952D02*
X128175952Y-108299952D01*
X128223571Y-108276143D01*
X128247381Y-108252333D01*
X128271190Y-108204714D01*
X128271190Y-108109476D01*
X128247381Y-108061857D01*
X128223571Y-108038048D01*
X128175952Y-108014238D01*
X127771190Y-108014238D01*
X127818810Y-107799952D02*
X127795000Y-107776142D01*
X127771190Y-107728523D01*
X127771190Y-107609476D01*
X127795000Y-107561857D01*
X127818810Y-107538047D01*
X127866429Y-107514238D01*
X127914048Y-107514238D01*
X127985476Y-107538047D01*
X128271190Y-107823761D01*
X128271190Y-107514238D01*
X134165571Y-95237333D02*
X134189381Y-95261143D01*
X134213190Y-95332571D01*
X134213190Y-95380190D01*
X134189381Y-95451619D01*
X134141762Y-95499238D01*
X134094143Y-95523047D01*
X133998905Y-95546857D01*
X133927476Y-95546857D01*
X133832238Y-95523047D01*
X133784619Y-95499238D01*
X133737000Y-95451619D01*
X133713190Y-95380190D01*
X133713190Y-95332571D01*
X133737000Y-95261143D01*
X133760810Y-95237333D01*
X134213190Y-94761143D02*
X134213190Y-95046857D01*
X134213190Y-94904000D02*
X133713190Y-94904000D01*
X133784619Y-94951619D01*
X133832238Y-94999238D01*
X133856048Y-95046857D01*
X141150571Y-92570333D02*
X141174381Y-92594143D01*
X141198190Y-92665571D01*
X141198190Y-92713190D01*
X141174381Y-92784619D01*
X141126762Y-92832238D01*
X141079143Y-92856047D01*
X140983905Y-92879857D01*
X140912476Y-92879857D01*
X140817238Y-92856047D01*
X140769619Y-92832238D01*
X140722000Y-92784619D01*
X140698190Y-92713190D01*
X140698190Y-92665571D01*
X140722000Y-92594143D01*
X140745810Y-92570333D01*
X140745810Y-92379857D02*
X140722000Y-92356047D01*
X140698190Y-92308428D01*
X140698190Y-92189381D01*
X140722000Y-92141762D01*
X140745810Y-92117952D01*
X140793429Y-92094143D01*
X140841048Y-92094143D01*
X140912476Y-92117952D01*
X141198190Y-92403666D01*
X141198190Y-92094143D01*
X140896571Y-91300333D02*
X140920381Y-91324143D01*
X140944190Y-91395571D01*
X140944190Y-91443190D01*
X140920381Y-91514619D01*
X140872762Y-91562238D01*
X140825143Y-91586047D01*
X140729905Y-91609857D01*
X140658476Y-91609857D01*
X140563238Y-91586047D01*
X140515619Y-91562238D01*
X140468000Y-91514619D01*
X140444190Y-91443190D01*
X140444190Y-91395571D01*
X140468000Y-91324143D01*
X140491810Y-91300333D01*
X140444190Y-91133666D02*
X140444190Y-90824143D01*
X140634667Y-90990809D01*
X140634667Y-90919381D01*
X140658476Y-90871762D01*
X140682286Y-90847952D01*
X140729905Y-90824143D01*
X140848952Y-90824143D01*
X140896571Y-90847952D01*
X140920381Y-90871762D01*
X140944190Y-90919381D01*
X140944190Y-91062238D01*
X140920381Y-91109857D01*
X140896571Y-91133666D01*
X140896571Y-90030333D02*
X140920381Y-90054143D01*
X140944190Y-90125571D01*
X140944190Y-90173190D01*
X140920381Y-90244619D01*
X140872762Y-90292238D01*
X140825143Y-90316047D01*
X140729905Y-90339857D01*
X140658476Y-90339857D01*
X140563238Y-90316047D01*
X140515619Y-90292238D01*
X140468000Y-90244619D01*
X140444190Y-90173190D01*
X140444190Y-90125571D01*
X140468000Y-90054143D01*
X140491810Y-90030333D01*
X140610857Y-89601762D02*
X140944190Y-89601762D01*
X140420381Y-89720809D02*
X140777524Y-89839857D01*
X140777524Y-89530333D01*
X131283571Y-118121428D02*
X131307381Y-118145238D01*
X131331190Y-118216666D01*
X131331190Y-118264285D01*
X131307381Y-118335714D01*
X131259762Y-118383333D01*
X131212143Y-118407142D01*
X131116905Y-118430952D01*
X131045476Y-118430952D01*
X130950238Y-118407142D01*
X130902619Y-118383333D01*
X130855000Y-118335714D01*
X130831190Y-118264285D01*
X130831190Y-118216666D01*
X130855000Y-118145238D01*
X130878810Y-118121428D01*
X131331190Y-117645238D02*
X131331190Y-117930952D01*
X131331190Y-117788095D02*
X130831190Y-117788095D01*
X130902619Y-117835714D01*
X130950238Y-117883333D01*
X130974048Y-117930952D01*
X130831190Y-117478571D02*
X130831190Y-117145238D01*
X131331190Y-117359524D01*
D16*
X140299048Y-115048429D02*
X141060953Y-115048429D01*
X140680001Y-115429381D02*
X140680001Y-114667476D01*
D10*
X143473572Y-119232571D02*
X143449762Y-119256381D01*
X143378334Y-119280190D01*
X143330715Y-119280190D01*
X143259286Y-119256381D01*
X143211667Y-119208762D01*
X143187858Y-119161143D01*
X143164048Y-119065905D01*
X143164048Y-118994476D01*
X143187858Y-118899238D01*
X143211667Y-118851619D01*
X143259286Y-118804000D01*
X143330715Y-118780190D01*
X143378334Y-118780190D01*
X143449762Y-118804000D01*
X143473572Y-118827810D01*
X143949762Y-119280190D02*
X143664048Y-119280190D01*
X143806905Y-119280190D02*
X143806905Y-118780190D01*
X143759286Y-118851619D01*
X143711667Y-118899238D01*
X143664048Y-118923048D01*
X144235476Y-118994476D02*
X144187857Y-118970667D01*
X144164048Y-118946857D01*
X144140238Y-118899238D01*
X144140238Y-118875429D01*
X144164048Y-118827810D01*
X144187857Y-118804000D01*
X144235476Y-118780190D01*
X144330714Y-118780190D01*
X144378333Y-118804000D01*
X144402143Y-118827810D01*
X144425952Y-118875429D01*
X144425952Y-118899238D01*
X144402143Y-118946857D01*
X144378333Y-118970667D01*
X144330714Y-118994476D01*
X144235476Y-118994476D01*
X144187857Y-119018286D01*
X144164048Y-119042095D01*
X144140238Y-119089714D01*
X144140238Y-119184952D01*
X144164048Y-119232571D01*
X144187857Y-119256381D01*
X144235476Y-119280190D01*
X144330714Y-119280190D01*
X144378333Y-119256381D01*
X144402143Y-119232571D01*
X144425952Y-119184952D01*
X144425952Y-119089714D01*
X144402143Y-119042095D01*
X144378333Y-119018286D01*
X144330714Y-118994476D01*
X153317572Y-112050571D02*
X153293762Y-112074381D01*
X153222334Y-112098190D01*
X153174715Y-112098190D01*
X153103286Y-112074381D01*
X153055667Y-112026762D01*
X153031858Y-111979143D01*
X153008048Y-111883905D01*
X153008048Y-111812476D01*
X153031858Y-111717238D01*
X153055667Y-111669619D01*
X153103286Y-111622000D01*
X153174715Y-111598190D01*
X153222334Y-111598190D01*
X153293762Y-111622000D01*
X153317572Y-111645810D01*
X153508048Y-111645810D02*
X153531858Y-111622000D01*
X153579477Y-111598190D01*
X153698524Y-111598190D01*
X153746143Y-111622000D01*
X153769953Y-111645810D01*
X153793762Y-111693429D01*
X153793762Y-111741048D01*
X153769953Y-111812476D01*
X153484239Y-112098190D01*
X153793762Y-112098190D01*
X154103286Y-111598190D02*
X154150905Y-111598190D01*
X154198524Y-111622000D01*
X154222333Y-111645810D01*
X154246143Y-111693429D01*
X154269952Y-111788667D01*
X154269952Y-111907714D01*
X154246143Y-112002952D01*
X154222333Y-112050571D01*
X154198524Y-112074381D01*
X154150905Y-112098190D01*
X154103286Y-112098190D01*
X154055667Y-112074381D01*
X154031857Y-112050571D01*
X154008048Y-112002952D01*
X153984238Y-111907714D01*
X153984238Y-111788667D01*
X154008048Y-111693429D01*
X154031857Y-111645810D01*
X154055667Y-111622000D01*
X154103286Y-111598190D01*
X130481190Y-99819047D02*
X129981190Y-99819047D01*
X129981190Y-99700000D01*
X130005000Y-99628571D01*
X130052619Y-99580952D01*
X130100238Y-99557143D01*
X130195476Y-99533333D01*
X130266905Y-99533333D01*
X130362143Y-99557143D01*
X130409762Y-99580952D01*
X130457381Y-99628571D01*
X130481190Y-99700000D01*
X130481190Y-99819047D01*
X130481190Y-99057143D02*
X130481190Y-99342857D01*
X130481190Y-99200000D02*
X129981190Y-99200000D01*
X130052619Y-99247619D01*
X130100238Y-99295238D01*
X130124048Y-99342857D01*
X155341906Y-94562381D02*
X155413335Y-94586190D01*
X155532382Y-94586190D01*
X155580001Y-94562381D01*
X155603811Y-94538571D01*
X155627620Y-94490952D01*
X155627620Y-94443333D01*
X155603811Y-94395714D01*
X155580001Y-94371905D01*
X155532382Y-94348095D01*
X155437144Y-94324286D01*
X155389525Y-94300476D01*
X155365716Y-94276667D01*
X155341906Y-94229048D01*
X155341906Y-94181429D01*
X155365716Y-94133810D01*
X155389525Y-94110000D01*
X155437144Y-94086190D01*
X155556192Y-94086190D01*
X155627620Y-94110000D01*
X155770477Y-94086190D02*
X156056191Y-94086190D01*
X155913334Y-94586190D02*
X155913334Y-94086190D01*
X156199048Y-94443333D02*
X156437143Y-94443333D01*
X156151429Y-94586190D02*
X156318096Y-94086190D01*
X156484762Y-94586190D01*
X156580000Y-94086190D02*
X156865714Y-94086190D01*
X156722857Y-94586190D02*
X156722857Y-94086190D01*
X157032381Y-94086190D02*
X157032381Y-94490952D01*
X157056190Y-94538571D01*
X157080000Y-94562381D01*
X157127619Y-94586190D01*
X157222857Y-94586190D01*
X157270476Y-94562381D01*
X157294285Y-94538571D01*
X157318095Y-94490952D01*
X157318095Y-94086190D01*
X157532381Y-94562381D02*
X157603810Y-94586190D01*
X157722857Y-94586190D01*
X157770476Y-94562381D01*
X157794286Y-94538571D01*
X157818095Y-94490952D01*
X157818095Y-94443333D01*
X157794286Y-94395714D01*
X157770476Y-94371905D01*
X157722857Y-94348095D01*
X157627619Y-94324286D01*
X157580000Y-94300476D01*
X157556191Y-94276667D01*
X157532381Y-94229048D01*
X157532381Y-94181429D01*
X157556191Y-94133810D01*
X157580000Y-94110000D01*
X157627619Y-94086190D01*
X157746667Y-94086190D01*
X157818095Y-94110000D01*
X155266190Y-97489523D02*
X154766190Y-97489523D01*
X155266190Y-97203809D01*
X154766190Y-97203809D01*
X155004286Y-96965713D02*
X155004286Y-96799047D01*
X155266190Y-96727618D02*
X155266190Y-96965713D01*
X154766190Y-96965713D01*
X154766190Y-96727618D01*
X154766190Y-96584761D02*
X154766190Y-96299047D01*
X155266190Y-96441904D02*
X154766190Y-96441904D01*
X129533334Y-75606190D02*
X129533334Y-75963333D01*
X129509524Y-76034762D01*
X129461905Y-76082381D01*
X129390477Y-76106190D01*
X129342858Y-76106190D01*
X129985714Y-75606190D02*
X129890476Y-75606190D01*
X129842857Y-75630000D01*
X129819048Y-75653810D01*
X129771429Y-75725238D01*
X129747619Y-75820476D01*
X129747619Y-76010952D01*
X129771429Y-76058571D01*
X129795238Y-76082381D01*
X129842857Y-76106190D01*
X129938095Y-76106190D01*
X129985714Y-76082381D01*
X130009524Y-76058571D01*
X130033333Y-76010952D01*
X130033333Y-75891905D01*
X130009524Y-75844286D01*
X129985714Y-75820476D01*
X129938095Y-75796667D01*
X129842857Y-75796667D01*
X129795238Y-75820476D01*
X129771429Y-75844286D01*
X129747619Y-75891905D01*
X139131190Y-99608333D02*
X139131190Y-99846428D01*
X138631190Y-99846428D01*
X138678810Y-99465476D02*
X138655000Y-99441666D01*
X138631190Y-99394047D01*
X138631190Y-99275000D01*
X138655000Y-99227381D01*
X138678810Y-99203571D01*
X138726429Y-99179762D01*
X138774048Y-99179762D01*
X138845476Y-99203571D01*
X139131190Y-99489285D01*
X139131190Y-99179762D01*
X152548810Y-99011619D02*
X152525000Y-99059238D01*
X152477381Y-99106857D01*
X152405952Y-99178286D01*
X152382143Y-99225905D01*
X152382143Y-99273524D01*
X152501190Y-99249714D02*
X152477381Y-99297333D01*
X152429762Y-99344952D01*
X152334524Y-99368762D01*
X152167857Y-99368762D01*
X152072619Y-99344952D01*
X152025000Y-99297333D01*
X152001190Y-99249714D01*
X152001190Y-99154476D01*
X152025000Y-99106857D01*
X152072619Y-99059238D01*
X152167857Y-99035429D01*
X152334524Y-99035429D01*
X152429762Y-99059238D01*
X152477381Y-99106857D01*
X152501190Y-99154476D01*
X152501190Y-99249714D01*
X152501190Y-98559238D02*
X152501190Y-98844952D01*
X152501190Y-98702095D02*
X152001190Y-98702095D01*
X152072619Y-98749714D01*
X152120238Y-98797333D01*
X152144048Y-98844952D01*
X151117810Y-92482619D02*
X151094000Y-92530238D01*
X151046381Y-92577857D01*
X150974952Y-92649286D01*
X150951143Y-92696905D01*
X150951143Y-92744524D01*
X151070190Y-92720714D02*
X151046381Y-92768333D01*
X150998762Y-92815952D01*
X150903524Y-92839762D01*
X150736857Y-92839762D01*
X150641619Y-92815952D01*
X150594000Y-92768333D01*
X150570190Y-92720714D01*
X150570190Y-92625476D01*
X150594000Y-92577857D01*
X150641619Y-92530238D01*
X150736857Y-92506429D01*
X150903524Y-92506429D01*
X150998762Y-92530238D01*
X151046381Y-92577857D01*
X151070190Y-92625476D01*
X151070190Y-92720714D01*
X150617810Y-92315952D02*
X150594000Y-92292142D01*
X150570190Y-92244523D01*
X150570190Y-92125476D01*
X150594000Y-92077857D01*
X150617810Y-92054047D01*
X150665429Y-92030238D01*
X150713048Y-92030238D01*
X150784476Y-92054047D01*
X151070190Y-92339761D01*
X151070190Y-92030238D01*
X144166810Y-96061619D02*
X144143000Y-96109238D01*
X144095381Y-96156857D01*
X144023952Y-96228286D01*
X144000143Y-96275905D01*
X144000143Y-96323524D01*
X144119190Y-96299714D02*
X144095381Y-96347333D01*
X144047762Y-96394952D01*
X143952524Y-96418762D01*
X143785857Y-96418762D01*
X143690619Y-96394952D01*
X143643000Y-96347333D01*
X143619190Y-96299714D01*
X143619190Y-96204476D01*
X143643000Y-96156857D01*
X143690619Y-96109238D01*
X143785857Y-96085429D01*
X143952524Y-96085429D01*
X144047762Y-96109238D01*
X144095381Y-96156857D01*
X144119190Y-96204476D01*
X144119190Y-96299714D01*
X143619190Y-95918761D02*
X143619190Y-95609238D01*
X143809667Y-95775904D01*
X143809667Y-95704476D01*
X143833476Y-95656857D01*
X143857286Y-95633047D01*
X143904905Y-95609238D01*
X144023952Y-95609238D01*
X144071571Y-95633047D01*
X144095381Y-95656857D01*
X144119190Y-95704476D01*
X144119190Y-95847333D01*
X144095381Y-95894952D01*
X144071571Y-95918761D01*
X152882190Y-93459333D02*
X152644095Y-93626000D01*
X152882190Y-93745047D02*
X152382190Y-93745047D01*
X152382190Y-93554571D01*
X152406000Y-93506952D01*
X152429810Y-93483143D01*
X152477429Y-93459333D01*
X152548857Y-93459333D01*
X152596476Y-93483143D01*
X152620286Y-93506952D01*
X152644095Y-93554571D01*
X152644095Y-93745047D01*
X152548857Y-93030762D02*
X152882190Y-93030762D01*
X152358381Y-93149809D02*
X152715524Y-93268857D01*
X152715524Y-92959333D01*
X152755190Y-91808333D02*
X152517095Y-91975000D01*
X152755190Y-92094047D02*
X152255190Y-92094047D01*
X152255190Y-91903571D01*
X152279000Y-91855952D01*
X152302810Y-91832143D01*
X152350429Y-91808333D01*
X152421857Y-91808333D01*
X152469476Y-91832143D01*
X152493286Y-91855952D01*
X152517095Y-91903571D01*
X152517095Y-92094047D01*
X152255190Y-91355952D02*
X152255190Y-91594047D01*
X152493286Y-91617857D01*
X152469476Y-91594047D01*
X152445667Y-91546428D01*
X152445667Y-91427381D01*
X152469476Y-91379762D01*
X152493286Y-91355952D01*
X152540905Y-91332143D01*
X152659952Y-91332143D01*
X152707571Y-91355952D01*
X152731381Y-91379762D01*
X152755190Y-91427381D01*
X152755190Y-91546428D01*
X152731381Y-91594047D01*
X152707571Y-91617857D01*
X152755190Y-90030333D02*
X152517095Y-90197000D01*
X152755190Y-90316047D02*
X152255190Y-90316047D01*
X152255190Y-90125571D01*
X152279000Y-90077952D01*
X152302810Y-90054143D01*
X152350429Y-90030333D01*
X152421857Y-90030333D01*
X152469476Y-90054143D01*
X152493286Y-90077952D01*
X152517095Y-90125571D01*
X152517095Y-90316047D01*
X152469476Y-89744619D02*
X152445667Y-89792238D01*
X152421857Y-89816047D01*
X152374238Y-89839857D01*
X152350429Y-89839857D01*
X152302810Y-89816047D01*
X152279000Y-89792238D01*
X152255190Y-89744619D01*
X152255190Y-89649381D01*
X152279000Y-89601762D01*
X152302810Y-89577952D01*
X152350429Y-89554143D01*
X152374238Y-89554143D01*
X152421857Y-89577952D01*
X152445667Y-89601762D01*
X152469476Y-89649381D01*
X152469476Y-89744619D01*
X152493286Y-89792238D01*
X152517095Y-89816047D01*
X152564714Y-89839857D01*
X152659952Y-89839857D01*
X152707571Y-89816047D01*
X152731381Y-89792238D01*
X152755190Y-89744619D01*
X152755190Y-89649381D01*
X152731381Y-89601762D01*
X152707571Y-89577952D01*
X152659952Y-89554143D01*
X152564714Y-89554143D01*
X152517095Y-89577952D01*
X152493286Y-89601762D01*
X152469476Y-89649381D01*
X157581190Y-90395428D02*
X157343095Y-90562095D01*
X157581190Y-90681142D02*
X157081190Y-90681142D01*
X157081190Y-90490666D01*
X157105000Y-90443047D01*
X157128810Y-90419238D01*
X157176429Y-90395428D01*
X157247857Y-90395428D01*
X157295476Y-90419238D01*
X157319286Y-90443047D01*
X157343095Y-90490666D01*
X157343095Y-90681142D01*
X157581190Y-89919238D02*
X157581190Y-90204952D01*
X157581190Y-90062095D02*
X157081190Y-90062095D01*
X157152619Y-90109714D01*
X157200238Y-90157333D01*
X157224048Y-90204952D01*
X157581190Y-89443048D02*
X157581190Y-89728762D01*
X157581190Y-89585905D02*
X157081190Y-89585905D01*
X157152619Y-89633524D01*
X157200238Y-89681143D01*
X157224048Y-89728762D01*
X157581190Y-92046428D02*
X157343095Y-92213095D01*
X157581190Y-92332142D02*
X157081190Y-92332142D01*
X157081190Y-92141666D01*
X157105000Y-92094047D01*
X157128810Y-92070238D01*
X157176429Y-92046428D01*
X157247857Y-92046428D01*
X157295476Y-92070238D01*
X157319286Y-92094047D01*
X157343095Y-92141666D01*
X157343095Y-92332142D01*
X157581190Y-91570238D02*
X157581190Y-91855952D01*
X157581190Y-91713095D02*
X157081190Y-91713095D01*
X157152619Y-91760714D01*
X157200238Y-91808333D01*
X157224048Y-91855952D01*
X157247857Y-91141667D02*
X157581190Y-91141667D01*
X157057381Y-91260714D02*
X157414524Y-91379762D01*
X157414524Y-91070238D01*
X145516190Y-97888428D02*
X145278095Y-98055095D01*
X145516190Y-98174142D02*
X145016190Y-98174142D01*
X145016190Y-97983666D01*
X145040000Y-97936047D01*
X145063810Y-97912238D01*
X145111429Y-97888428D01*
X145182857Y-97888428D01*
X145230476Y-97912238D01*
X145254286Y-97936047D01*
X145278095Y-97983666D01*
X145278095Y-98174142D01*
X145516190Y-97412238D02*
X145516190Y-97697952D01*
X145516190Y-97555095D02*
X145016190Y-97555095D01*
X145087619Y-97602714D01*
X145135238Y-97650333D01*
X145159048Y-97697952D01*
X145016190Y-96959857D02*
X145016190Y-97197952D01*
X145254286Y-97221762D01*
X145230476Y-97197952D01*
X145206667Y-97150333D01*
X145206667Y-97031286D01*
X145230476Y-96983667D01*
X145254286Y-96959857D01*
X145301905Y-96936048D01*
X145420952Y-96936048D01*
X145468571Y-96959857D01*
X145492381Y-96983667D01*
X145516190Y-97031286D01*
X145516190Y-97150333D01*
X145492381Y-97197952D01*
X145468571Y-97221762D01*
X147675190Y-99666428D02*
X147437095Y-99833095D01*
X147675190Y-99952142D02*
X147175190Y-99952142D01*
X147175190Y-99761666D01*
X147199000Y-99714047D01*
X147222810Y-99690238D01*
X147270429Y-99666428D01*
X147341857Y-99666428D01*
X147389476Y-99690238D01*
X147413286Y-99714047D01*
X147437095Y-99761666D01*
X147437095Y-99952142D01*
X147675190Y-99190238D02*
X147675190Y-99475952D01*
X147675190Y-99333095D02*
X147175190Y-99333095D01*
X147246619Y-99380714D01*
X147294238Y-99428333D01*
X147318048Y-99475952D01*
X147175190Y-98761667D02*
X147175190Y-98856905D01*
X147199000Y-98904524D01*
X147222810Y-98928333D01*
X147294238Y-98975952D01*
X147389476Y-98999762D01*
X147579952Y-98999762D01*
X147627571Y-98975952D01*
X147651381Y-98952143D01*
X147675190Y-98904524D01*
X147675190Y-98809286D01*
X147651381Y-98761667D01*
X147627571Y-98737857D01*
X147579952Y-98714048D01*
X147460905Y-98714048D01*
X147413286Y-98737857D01*
X147389476Y-98761667D01*
X147365667Y-98809286D01*
X147365667Y-98904524D01*
X147389476Y-98952143D01*
X147413286Y-98975952D01*
X147460905Y-98999762D01*
X152882190Y-95602428D02*
X152644095Y-95769095D01*
X152882190Y-95888142D02*
X152382190Y-95888142D01*
X152382190Y-95697666D01*
X152406000Y-95650047D01*
X152429810Y-95626238D01*
X152477429Y-95602428D01*
X152548857Y-95602428D01*
X152596476Y-95626238D01*
X152620286Y-95650047D01*
X152644095Y-95697666D01*
X152644095Y-95888142D01*
X152882190Y-95126238D02*
X152882190Y-95411952D01*
X152882190Y-95269095D02*
X152382190Y-95269095D01*
X152453619Y-95316714D01*
X152501238Y-95364333D01*
X152525048Y-95411952D01*
X152382190Y-94959571D02*
X152382190Y-94626238D01*
X152882190Y-94840524D01*
X147046190Y-90141428D02*
X146808095Y-90308095D01*
X147046190Y-90427142D02*
X146546190Y-90427142D01*
X146546190Y-90236666D01*
X146570000Y-90189047D01*
X146593810Y-90165238D01*
X146641429Y-90141428D01*
X146712857Y-90141428D01*
X146760476Y-90165238D01*
X146784286Y-90189047D01*
X146808095Y-90236666D01*
X146808095Y-90427142D01*
X147046190Y-89665238D02*
X147046190Y-89950952D01*
X147046190Y-89808095D02*
X146546190Y-89808095D01*
X146617619Y-89855714D01*
X146665238Y-89903333D01*
X146689048Y-89950952D01*
X146760476Y-89379524D02*
X146736667Y-89427143D01*
X146712857Y-89450952D01*
X146665238Y-89474762D01*
X146641429Y-89474762D01*
X146593810Y-89450952D01*
X146570000Y-89427143D01*
X146546190Y-89379524D01*
X146546190Y-89284286D01*
X146570000Y-89236667D01*
X146593810Y-89212857D01*
X146641429Y-89189048D01*
X146665238Y-89189048D01*
X146712857Y-89212857D01*
X146736667Y-89236667D01*
X146760476Y-89284286D01*
X146760476Y-89379524D01*
X146784286Y-89427143D01*
X146808095Y-89450952D01*
X146855714Y-89474762D01*
X146950952Y-89474762D01*
X146998571Y-89450952D01*
X147022381Y-89427143D01*
X147046190Y-89379524D01*
X147046190Y-89284286D01*
X147022381Y-89236667D01*
X146998571Y-89212857D01*
X146950952Y-89189048D01*
X146855714Y-89189048D01*
X146808095Y-89212857D01*
X146784286Y-89236667D01*
X146760476Y-89284286D01*
X148657190Y-95927428D02*
X148419095Y-96094095D01*
X148657190Y-96213142D02*
X148157190Y-96213142D01*
X148157190Y-96022666D01*
X148181000Y-95975047D01*
X148204810Y-95951238D01*
X148252429Y-95927428D01*
X148323857Y-95927428D01*
X148371476Y-95951238D01*
X148395286Y-95975047D01*
X148419095Y-96022666D01*
X148419095Y-96213142D01*
X148657190Y-95451238D02*
X148657190Y-95736952D01*
X148657190Y-95594095D02*
X148157190Y-95594095D01*
X148228619Y-95641714D01*
X148276238Y-95689333D01*
X148300048Y-95736952D01*
X148657190Y-95213143D02*
X148657190Y-95117905D01*
X148633381Y-95070286D01*
X148609571Y-95046476D01*
X148538143Y-94998857D01*
X148442905Y-94975048D01*
X148252429Y-94975048D01*
X148204810Y-94998857D01*
X148181000Y-95022667D01*
X148157190Y-95070286D01*
X148157190Y-95165524D01*
X148181000Y-95213143D01*
X148204810Y-95236952D01*
X148252429Y-95260762D01*
X148371476Y-95260762D01*
X148419095Y-95236952D01*
X148442905Y-95213143D01*
X148466714Y-95165524D01*
X148466714Y-95070286D01*
X148442905Y-95022667D01*
X148419095Y-94998857D01*
X148371476Y-94975048D01*
X152882190Y-97126428D02*
X152644095Y-97293095D01*
X152882190Y-97412142D02*
X152382190Y-97412142D01*
X152382190Y-97221666D01*
X152406000Y-97174047D01*
X152429810Y-97150238D01*
X152477429Y-97126428D01*
X152548857Y-97126428D01*
X152596476Y-97150238D01*
X152620286Y-97174047D01*
X152644095Y-97221666D01*
X152644095Y-97412142D01*
X152429810Y-96935952D02*
X152406000Y-96912142D01*
X152382190Y-96864523D01*
X152382190Y-96745476D01*
X152406000Y-96697857D01*
X152429810Y-96674047D01*
X152477429Y-96650238D01*
X152525048Y-96650238D01*
X152596476Y-96674047D01*
X152882190Y-96959761D01*
X152882190Y-96650238D01*
X152882190Y-96174048D02*
X152882190Y-96459762D01*
X152882190Y-96316905D02*
X152382190Y-96316905D01*
X152453619Y-96364524D01*
X152501238Y-96412143D01*
X152525048Y-96459762D01*
X145789190Y-105868428D02*
X145551095Y-106035095D01*
X145789190Y-106154142D02*
X145289190Y-106154142D01*
X145289190Y-105963666D01*
X145313000Y-105916047D01*
X145336810Y-105892238D01*
X145384429Y-105868428D01*
X145455857Y-105868428D01*
X145503476Y-105892238D01*
X145527286Y-105916047D01*
X145551095Y-105963666D01*
X145551095Y-106154142D01*
X145336810Y-105677952D02*
X145313000Y-105654142D01*
X145289190Y-105606523D01*
X145289190Y-105487476D01*
X145313000Y-105439857D01*
X145336810Y-105416047D01*
X145384429Y-105392238D01*
X145432048Y-105392238D01*
X145503476Y-105416047D01*
X145789190Y-105701761D01*
X145789190Y-105392238D01*
X145336810Y-105201762D02*
X145313000Y-105177952D01*
X145289190Y-105130333D01*
X145289190Y-105011286D01*
X145313000Y-104963667D01*
X145336810Y-104939857D01*
X145384429Y-104916048D01*
X145432048Y-104916048D01*
X145503476Y-104939857D01*
X145789190Y-105225571D01*
X145789190Y-104916048D01*
X144896190Y-90268428D02*
X144658095Y-90435095D01*
X144896190Y-90554142D02*
X144396190Y-90554142D01*
X144396190Y-90363666D01*
X144420000Y-90316047D01*
X144443810Y-90292238D01*
X144491429Y-90268428D01*
X144562857Y-90268428D01*
X144610476Y-90292238D01*
X144634286Y-90316047D01*
X144658095Y-90363666D01*
X144658095Y-90554142D01*
X144443810Y-90077952D02*
X144420000Y-90054142D01*
X144396190Y-90006523D01*
X144396190Y-89887476D01*
X144420000Y-89839857D01*
X144443810Y-89816047D01*
X144491429Y-89792238D01*
X144539048Y-89792238D01*
X144610476Y-89816047D01*
X144896190Y-90101761D01*
X144896190Y-89792238D01*
X144396190Y-89625571D02*
X144396190Y-89316048D01*
X144586667Y-89482714D01*
X144586667Y-89411286D01*
X144610476Y-89363667D01*
X144634286Y-89339857D01*
X144681905Y-89316048D01*
X144800952Y-89316048D01*
X144848571Y-89339857D01*
X144872381Y-89363667D01*
X144896190Y-89411286D01*
X144896190Y-89554143D01*
X144872381Y-89601762D01*
X144848571Y-89625571D01*
X147421190Y-92808428D02*
X147183095Y-92975095D01*
X147421190Y-93094142D02*
X146921190Y-93094142D01*
X146921190Y-92903666D01*
X146945000Y-92856047D01*
X146968810Y-92832238D01*
X147016429Y-92808428D01*
X147087857Y-92808428D01*
X147135476Y-92832238D01*
X147159286Y-92856047D01*
X147183095Y-92903666D01*
X147183095Y-93094142D01*
X146968810Y-92617952D02*
X146945000Y-92594142D01*
X146921190Y-92546523D01*
X146921190Y-92427476D01*
X146945000Y-92379857D01*
X146968810Y-92356047D01*
X147016429Y-92332238D01*
X147064048Y-92332238D01*
X147135476Y-92356047D01*
X147421190Y-92641761D01*
X147421190Y-92332238D01*
X147087857Y-91903667D02*
X147421190Y-91903667D01*
X146897381Y-92022714D02*
X147254524Y-92141762D01*
X147254524Y-91832238D01*
X145894190Y-108267428D02*
X145656095Y-108434095D01*
X145894190Y-108553142D02*
X145394190Y-108553142D01*
X145394190Y-108362666D01*
X145418000Y-108315047D01*
X145441810Y-108291238D01*
X145489429Y-108267428D01*
X145560857Y-108267428D01*
X145608476Y-108291238D01*
X145632286Y-108315047D01*
X145656095Y-108362666D01*
X145656095Y-108553142D01*
X145441810Y-108076952D02*
X145418000Y-108053142D01*
X145394190Y-108005523D01*
X145394190Y-107886476D01*
X145418000Y-107838857D01*
X145441810Y-107815047D01*
X145489429Y-107791238D01*
X145537048Y-107791238D01*
X145608476Y-107815047D01*
X145894190Y-108100761D01*
X145894190Y-107791238D01*
X145394190Y-107338857D02*
X145394190Y-107576952D01*
X145632286Y-107600762D01*
X145608476Y-107576952D01*
X145584667Y-107529333D01*
X145584667Y-107410286D01*
X145608476Y-107362667D01*
X145632286Y-107338857D01*
X145679905Y-107315048D01*
X145798952Y-107315048D01*
X145846571Y-107338857D01*
X145870381Y-107362667D01*
X145894190Y-107410286D01*
X145894190Y-107529333D01*
X145870381Y-107576952D01*
X145846571Y-107600762D01*
X157676190Y-100444762D02*
X157176190Y-100444762D01*
X157176190Y-100254286D01*
X157200000Y-100206667D01*
X157223810Y-100182858D01*
X157271429Y-100159048D01*
X157342857Y-100159048D01*
X157390476Y-100182858D01*
X157414286Y-100206667D01*
X157438095Y-100254286D01*
X157438095Y-100444762D01*
X157176190Y-99849524D02*
X157176190Y-99754286D01*
X157200000Y-99706667D01*
X157247619Y-99659048D01*
X157342857Y-99635239D01*
X157509524Y-99635239D01*
X157604762Y-99659048D01*
X157652381Y-99706667D01*
X157676190Y-99754286D01*
X157676190Y-99849524D01*
X157652381Y-99897143D01*
X157604762Y-99944762D01*
X157509524Y-99968572D01*
X157342857Y-99968572D01*
X157247619Y-99944762D01*
X157200000Y-99897143D01*
X157176190Y-99849524D01*
X157176190Y-99468571D02*
X157676190Y-99349524D01*
X157319048Y-99254286D01*
X157676190Y-99159048D01*
X157176190Y-99040000D01*
X157414286Y-98849523D02*
X157414286Y-98682857D01*
X157676190Y-98611428D02*
X157676190Y-98849523D01*
X157176190Y-98849523D01*
X157176190Y-98611428D01*
X157676190Y-98111428D02*
X157438095Y-98278095D01*
X157676190Y-98397142D02*
X157176190Y-98397142D01*
X157176190Y-98206666D01*
X157200000Y-98159047D01*
X157223810Y-98135238D01*
X157271429Y-98111428D01*
X157342857Y-98111428D01*
X157390476Y-98135238D01*
X157414286Y-98159047D01*
X157438095Y-98206666D01*
X157438095Y-98397142D01*
X135431190Y-89255952D02*
X135835952Y-89255952D01*
X135883571Y-89232143D01*
X135907381Y-89208333D01*
X135931190Y-89160714D01*
X135931190Y-89065476D01*
X135907381Y-89017857D01*
X135883571Y-88994048D01*
X135835952Y-88970238D01*
X135431190Y-88970238D01*
X135931190Y-88470238D02*
X135931190Y-88755952D01*
X135931190Y-88613095D02*
X135431190Y-88613095D01*
X135502619Y-88660714D01*
X135550238Y-88708333D01*
X135574048Y-88755952D01*
X132416190Y-83103333D02*
X132178095Y-83270000D01*
X132416190Y-83389047D02*
X131916190Y-83389047D01*
X131916190Y-83198571D01*
X131940000Y-83150952D01*
X131963810Y-83127143D01*
X132011429Y-83103333D01*
X132082857Y-83103333D01*
X132130476Y-83127143D01*
X132154286Y-83150952D01*
X132178095Y-83198571D01*
X132178095Y-83389047D01*
X131916190Y-82674762D02*
X131916190Y-82770000D01*
X131940000Y-82817619D01*
X131963810Y-82841428D01*
X132035238Y-82889047D01*
X132130476Y-82912857D01*
X132320952Y-82912857D01*
X132368571Y-82889047D01*
X132392381Y-82865238D01*
X132416190Y-82817619D01*
X132416190Y-82722381D01*
X132392381Y-82674762D01*
X132368571Y-82650952D01*
X132320952Y-82627143D01*
X132201905Y-82627143D01*
X132154286Y-82650952D01*
X132130476Y-82674762D01*
X132106667Y-82722381D01*
X132106667Y-82817619D01*
X132130476Y-82865238D01*
X132154286Y-82889047D01*
X132201905Y-82912857D01*
X129288571Y-84663333D02*
X129312381Y-84687143D01*
X129336190Y-84758571D01*
X129336190Y-84806190D01*
X129312381Y-84877619D01*
X129264762Y-84925238D01*
X129217143Y-84949047D01*
X129121905Y-84972857D01*
X129050476Y-84972857D01*
X128955238Y-84949047D01*
X128907619Y-84925238D01*
X128860000Y-84877619D01*
X128836190Y-84806190D01*
X128836190Y-84758571D01*
X128860000Y-84687143D01*
X128883810Y-84663333D01*
X128836190Y-84496666D02*
X128836190Y-84163333D01*
X129336190Y-84377619D01*
X128258571Y-83033333D02*
X128282381Y-83057143D01*
X128306190Y-83128571D01*
X128306190Y-83176190D01*
X128282381Y-83247619D01*
X128234762Y-83295238D01*
X128187143Y-83319047D01*
X128091905Y-83342857D01*
X128020476Y-83342857D01*
X127925238Y-83319047D01*
X127877619Y-83295238D01*
X127830000Y-83247619D01*
X127806190Y-83176190D01*
X127806190Y-83128571D01*
X127830000Y-83057143D01*
X127853810Y-83033333D01*
X128020476Y-82747619D02*
X127996667Y-82795238D01*
X127972857Y-82819047D01*
X127925238Y-82842857D01*
X127901429Y-82842857D01*
X127853810Y-82819047D01*
X127830000Y-82795238D01*
X127806190Y-82747619D01*
X127806190Y-82652381D01*
X127830000Y-82604762D01*
X127853810Y-82580952D01*
X127901429Y-82557143D01*
X127925238Y-82557143D01*
X127972857Y-82580952D01*
X127996667Y-82604762D01*
X128020476Y-82652381D01*
X128020476Y-82747619D01*
X128044286Y-82795238D01*
X128068095Y-82819047D01*
X128115714Y-82842857D01*
X128210952Y-82842857D01*
X128258571Y-82819047D01*
X128282381Y-82795238D01*
X128306190Y-82747619D01*
X128306190Y-82652381D01*
X128282381Y-82604762D01*
X128258571Y-82580952D01*
X128210952Y-82557143D01*
X128115714Y-82557143D01*
X128068095Y-82580952D01*
X128044286Y-82604762D01*
X128020476Y-82652381D01*
X153068572Y-108848571D02*
X153044762Y-108872381D01*
X152973334Y-108896190D01*
X152925715Y-108896190D01*
X152854286Y-108872381D01*
X152806667Y-108824762D01*
X152782858Y-108777143D01*
X152759048Y-108681905D01*
X152759048Y-108610476D01*
X152782858Y-108515238D01*
X152806667Y-108467619D01*
X152854286Y-108420000D01*
X152925715Y-108396190D01*
X152973334Y-108396190D01*
X153044762Y-108420000D01*
X153068572Y-108443810D01*
X153544762Y-108896190D02*
X153259048Y-108896190D01*
X153401905Y-108896190D02*
X153401905Y-108396190D01*
X153354286Y-108467619D01*
X153306667Y-108515238D01*
X153259048Y-108539048D01*
X153782857Y-108896190D02*
X153878095Y-108896190D01*
X153925714Y-108872381D01*
X153949524Y-108848571D01*
X153997143Y-108777143D01*
X154020952Y-108681905D01*
X154020952Y-108491429D01*
X153997143Y-108443810D01*
X153973333Y-108420000D01*
X153925714Y-108396190D01*
X153830476Y-108396190D01*
X153782857Y-108420000D01*
X153759048Y-108443810D01*
X153735238Y-108491429D01*
X153735238Y-108610476D01*
X153759048Y-108658095D01*
X153782857Y-108681905D01*
X153830476Y-108705714D01*
X153925714Y-108705714D01*
X153973333Y-108681905D01*
X153997143Y-108658095D01*
X154020952Y-108610476D01*
D16*
X148219048Y-107721429D02*
X148980953Y-107721429D01*
X148600001Y-108102381D02*
X148600001Y-107340476D01*
D10*
X144790953Y-115786190D02*
X144790953Y-115286190D01*
X144910000Y-115286190D01*
X144981429Y-115310000D01*
X145029048Y-115357619D01*
X145052857Y-115405238D01*
X145076667Y-115500476D01*
X145076667Y-115571905D01*
X145052857Y-115667143D01*
X145029048Y-115714762D01*
X144981429Y-115762381D01*
X144910000Y-115786190D01*
X144790953Y-115786190D01*
X145505238Y-115452857D02*
X145505238Y-115786190D01*
X145386191Y-115262381D02*
X145267143Y-115619524D01*
X145576667Y-115619524D01*
M02*
