G04 #@! TF.FileFunction,Copper,L3,Inr,Signal*
%FSLAX46Y46*%
G04 Gerber Fmt 4.6, Leading zero omitted, Abs format (unit mm)*
G04 Created by KiCad (PCBNEW 4.0.7) date 06/11/18 13:45:27*
%MOMM*%
%LPD*%
G01*
G04 APERTURE LIST*
%ADD10C,0.100000*%
%ADD11C,0.600000*%
%ADD12R,1.700000X1.700000*%
%ADD13O,1.700000X1.700000*%
%ADD14C,0.250000*%
%ADD15C,0.254000*%
G04 APERTURE END LIST*
D10*
D11*
X152810000Y-107660000D03*
X153280000Y-102450000D03*
X151180000Y-102550000D03*
X130220000Y-81740000D03*
X151140000Y-70150000D03*
X148450000Y-65150000D03*
X147910000Y-67420000D03*
X147800000Y-66000000D03*
X135430000Y-67160000D03*
X133410000Y-68500000D03*
X134570000Y-65450000D03*
X136860000Y-66300000D03*
X133000000Y-66640000D03*
X130930000Y-69760000D03*
X129860000Y-71710000D03*
X129160000Y-81730000D03*
X129910000Y-84450000D03*
X130940000Y-84420000D03*
X132080000Y-84420000D03*
X129070000Y-74210000D03*
X130280000Y-74520000D03*
X131790000Y-74860000D03*
X131840000Y-76070000D03*
X130820000Y-75890000D03*
X129240000Y-75830000D03*
X132600000Y-123780000D03*
X129380000Y-122440000D03*
X130310000Y-120140000D03*
X130760000Y-122760000D03*
X132320000Y-120420000D03*
X131750000Y-121750000D03*
X131780000Y-114370000D03*
X129460000Y-99300000D03*
X129770000Y-94440000D03*
X131310000Y-96590000D03*
X131360000Y-89440000D03*
X129570000Y-92860000D03*
X132330000Y-95770000D03*
X132020000Y-92090000D03*
X133430000Y-91380000D03*
X129770000Y-89860000D03*
X129430000Y-85570000D03*
X130130000Y-87610000D03*
X149110000Y-64170000D03*
X147110000Y-64170000D03*
X145110000Y-64170000D03*
X143110000Y-64170000D03*
X141110000Y-64170000D03*
X139110000Y-64170000D03*
X137110000Y-64170000D03*
X135110000Y-64170000D03*
X133110000Y-64170000D03*
X131990000Y-65420000D03*
X128030000Y-66120000D03*
X128030000Y-68120000D03*
X128030000Y-70120000D03*
X128030000Y-72120000D03*
X128030000Y-74120000D03*
X128030000Y-76120000D03*
X128030000Y-78120000D03*
X128030000Y-80120000D03*
X128030000Y-82120000D03*
X128030000Y-84120000D03*
X128030000Y-86120000D03*
X128030000Y-88120000D03*
X128030000Y-90120000D03*
X128030000Y-92120000D03*
X128030000Y-94120000D03*
X128030000Y-96120000D03*
X128030000Y-98120000D03*
X128030000Y-100120000D03*
X128030000Y-102120000D03*
X128030000Y-104120000D03*
X128030000Y-106120000D03*
X128030000Y-108120000D03*
X128030000Y-110120000D03*
X128030000Y-112120000D03*
X128030000Y-114120000D03*
X128030000Y-116120000D03*
X128030000Y-118120000D03*
X128030000Y-120120000D03*
X128030000Y-122120000D03*
X128030000Y-124120000D03*
X156770000Y-118910000D03*
X145280000Y-114590000D03*
X133340000Y-93060000D03*
X129700000Y-96810000D03*
X130530000Y-91150000D03*
X131100000Y-94070000D03*
X129080000Y-114840000D03*
X129240000Y-117780000D03*
X136610000Y-114990000D03*
X153430000Y-122940000D03*
D12*
X153230000Y-71650000D03*
D13*
X155770000Y-71650000D03*
X153230000Y-74190000D03*
X155770000Y-74190000D03*
X153230000Y-76730000D03*
X155770000Y-76730000D03*
X153230000Y-79270000D03*
X155770000Y-79270000D03*
X153230000Y-81810000D03*
X155770000Y-81810000D03*
X153230000Y-84350000D03*
X155770000Y-84350000D03*
X153230000Y-86890000D03*
X155770000Y-86890000D03*
D11*
X156720000Y-92741000D03*
X137670000Y-91090000D03*
X151767000Y-99980000D03*
X138720000Y-97560000D03*
X145036000Y-96297000D03*
X146052000Y-103409000D03*
D12*
X156570000Y-112350000D03*
D13*
X156570000Y-109810000D03*
D11*
X154960000Y-94440000D03*
X154860000Y-99580000D03*
X140596942Y-120166942D03*
X138041000Y-94896890D03*
X144147000Y-67341000D03*
X140610000Y-119270000D03*
X140972000Y-67214000D03*
X137416000Y-98329000D03*
X141149489Y-122870381D03*
X151386000Y-73437000D03*
X141044529Y-121957457D03*
X151259000Y-72294000D03*
X142560000Y-123490000D03*
X151386000Y-75723000D03*
X154434000Y-88423000D03*
X146052000Y-95281000D03*
X138559000Y-101123000D03*
X153164000Y-88550000D03*
X143512000Y-102012000D03*
X141590000Y-124580000D03*
X144180000Y-113570000D03*
X151386000Y-78644000D03*
X147314950Y-121760000D03*
X151386000Y-83216000D03*
X146516130Y-121803476D03*
X149481000Y-90963000D03*
X141494380Y-121295915D03*
X145671000Y-65563000D03*
X141607000Y-93122000D03*
X140590000Y-121020000D03*
X139206000Y-93933984D03*
X145036000Y-66452000D03*
X154310000Y-123730000D03*
X151386000Y-82200000D03*
X145592843Y-122057244D03*
X151386000Y-81057000D03*
X144660000Y-123070000D03*
X151386000Y-79787000D03*
X140353908Y-122627534D03*
X144060000Y-115090000D03*
X151386000Y-77755000D03*
X135917400Y-122217700D03*
X130469100Y-116236000D03*
X143355401Y-91749484D03*
X141630000Y-123510000D03*
X151386000Y-74580000D03*
X152440000Y-121980000D03*
D14*
X154860000Y-99580000D02*
X154860000Y-94540000D01*
X154860000Y-94540000D02*
X154960000Y-94440000D01*
X138041000Y-94896890D02*
X138041000Y-94280000D01*
X138041000Y-93339000D02*
X138041000Y-94280000D01*
X140545962Y-90834038D02*
X138041000Y-93339000D01*
X141330960Y-90834038D02*
X140545962Y-90834038D01*
X138041000Y-94896890D02*
X138041000Y-98629002D01*
X138630000Y-102410000D02*
X138732970Y-102512970D01*
X138041000Y-98629002D02*
X137483989Y-99186013D01*
X137483989Y-99186013D02*
X137483990Y-101609402D01*
X137483990Y-101609402D02*
X138284588Y-102410000D01*
X138284588Y-102410000D02*
X138630000Y-102410000D01*
X138732970Y-102512970D02*
X138732971Y-116467969D01*
X138732971Y-116467969D02*
X141235001Y-118969999D01*
X141235001Y-118969999D02*
X141235001Y-119528883D01*
X141235001Y-119528883D02*
X140596942Y-120166942D01*
X144147000Y-71786000D02*
X144147000Y-67341000D01*
X141330960Y-90834038D02*
X141330961Y-74602039D01*
X141330961Y-74602039D02*
X144147000Y-71786000D01*
X140972000Y-67214000D02*
X140880952Y-67305048D01*
X140880952Y-67305048D02*
X140880951Y-90074000D01*
X140880951Y-90074000D02*
X139966000Y-90074000D01*
X137416000Y-97300000D02*
X137416000Y-98329000D01*
X139966000Y-90074000D02*
X136910000Y-93130000D01*
X136910000Y-93130000D02*
X136910000Y-96794000D01*
X136910000Y-96794000D02*
X137416000Y-97300000D01*
X137416000Y-98329000D02*
X137033980Y-98711021D01*
X137033980Y-98711021D02*
X137033981Y-101795803D01*
X138098187Y-102860009D02*
X138098187Y-116758187D01*
X137033981Y-101795803D02*
X138098187Y-102860009D01*
X138098187Y-116758187D02*
X140610000Y-119270000D01*
X143060037Y-121190045D02*
X143060037Y-121291670D01*
X143060037Y-121291670D02*
X141481326Y-122870381D01*
X141481326Y-122870381D02*
X141149489Y-122870381D01*
X143150000Y-118339358D02*
X143150000Y-120720000D01*
X143150000Y-120720000D02*
X143060038Y-120809962D01*
X143060038Y-120809962D02*
X143060037Y-121190045D01*
X140533010Y-114144600D02*
X140533010Y-115722368D01*
X140533010Y-115722368D02*
X143150000Y-118339358D01*
X140533010Y-114144600D02*
X140533010Y-112356990D01*
X140891971Y-111998029D02*
X140891971Y-100615000D01*
X145394960Y-79510366D02*
X146674300Y-78231026D01*
X140533010Y-112356990D02*
X140891971Y-111998029D01*
X140891971Y-100615000D02*
X142034970Y-99472001D01*
X146674300Y-78231026D02*
X146674300Y-78148700D01*
X142034970Y-99472001D02*
X142034970Y-94257562D01*
X142034970Y-94257562D02*
X143131000Y-93161532D01*
X143131000Y-93161532D02*
X143131000Y-92982300D01*
X143131000Y-92982300D02*
X143235961Y-92877339D01*
X143235961Y-92877339D02*
X143235962Y-92753168D01*
X143235962Y-92753168D02*
X145394960Y-90594170D01*
X145394960Y-90594170D02*
X145394960Y-79510366D01*
X146674300Y-78148700D02*
X151386000Y-73437000D01*
X142610028Y-121003644D02*
X142610028Y-121105269D01*
X142610028Y-121105269D02*
X141757840Y-121957457D01*
X141757840Y-121957457D02*
X141044529Y-121957457D01*
X151259000Y-72294000D02*
X150588720Y-71623720D01*
X142680990Y-75337630D02*
X142680990Y-92975132D01*
X150588720Y-71623720D02*
X146394900Y-71623720D01*
X142680990Y-92975132D02*
X141584960Y-94071162D01*
X146394900Y-71623720D02*
X142680990Y-75337630D01*
X141584960Y-94071162D02*
X141584960Y-98986040D01*
X141584960Y-98986040D02*
X140083000Y-100488000D01*
X142610028Y-118435796D02*
X142610028Y-121003644D01*
X140083000Y-100488000D02*
X140083000Y-115908768D01*
X140083000Y-115908768D02*
X142610028Y-118435796D01*
X144050020Y-117966558D02*
X144050020Y-121999980D01*
X144050020Y-121999980D02*
X142560000Y-123490000D01*
X141540000Y-115420000D02*
X142850000Y-116730000D01*
X142850000Y-116730000D02*
X142850000Y-116766538D01*
X142850000Y-116766538D02*
X144050020Y-117966558D01*
X141540000Y-113920000D02*
X141540000Y-115420000D01*
X141791991Y-113626991D02*
X141791991Y-113668009D01*
X141791991Y-113668009D02*
X141540000Y-113920000D01*
X151386000Y-75723000D02*
X147322000Y-79787000D01*
X147322000Y-79787000D02*
X147322000Y-80801590D01*
X147322000Y-80801590D02*
X146998990Y-81124600D01*
X146998990Y-81124600D02*
X146998990Y-81758190D01*
X146998990Y-81758190D02*
X146294980Y-82462200D01*
X142934990Y-94630362D02*
X142934990Y-99861589D01*
X146294980Y-82462200D02*
X146294980Y-90966970D01*
X146294980Y-90966970D02*
X144135980Y-93125970D01*
X144135980Y-93125970D02*
X144135980Y-93429372D01*
X144135980Y-93429372D02*
X142934990Y-94630362D01*
X142934990Y-99861589D02*
X141791991Y-101004588D01*
X141791991Y-101004588D02*
X141791991Y-113626991D01*
X142886999Y-108270000D02*
X142886999Y-112276999D01*
X142886999Y-112276999D02*
X144180000Y-113570000D01*
X142886999Y-101377000D02*
X142886999Y-108270000D01*
X151386000Y-78644000D02*
X147449000Y-82581000D01*
X147449000Y-82581000D02*
X147449000Y-82957770D01*
X147449000Y-82957770D02*
X147195000Y-83211770D01*
X145093990Y-93744182D02*
X143893000Y-94945172D01*
X147195000Y-83211770D02*
X147195000Y-91339770D01*
X147195000Y-91339770D02*
X145093990Y-93440780D01*
X143893000Y-100370999D02*
X142886999Y-101377000D01*
X145093990Y-93440780D02*
X145093990Y-93744182D01*
X143893000Y-94945172D02*
X143893000Y-100370999D01*
X147314950Y-121760000D02*
X148614950Y-120460000D01*
X150106001Y-91263001D02*
X150106001Y-90662999D01*
X148614950Y-120460000D02*
X150790000Y-120460000D01*
X150790000Y-120460000D02*
X153660000Y-117590000D01*
X147612002Y-108272002D02*
X147612002Y-93757000D01*
X153660000Y-117590000D02*
X153660000Y-114320000D01*
X153660000Y-114320000D02*
X147612002Y-108272002D01*
X147612002Y-93757000D02*
X150106001Y-91263001D01*
X150106001Y-90662999D02*
X148855999Y-89412997D01*
X148855999Y-89412997D02*
X148855999Y-83460001D01*
X148855999Y-83460001D02*
X149100000Y-83216000D01*
X149100000Y-83216000D02*
X151386000Y-83216000D01*
X147612002Y-121462948D02*
X147314950Y-121760000D01*
X150920000Y-119360000D02*
X153000000Y-117280000D01*
X148428550Y-120009990D02*
X149960000Y-120009990D01*
X150920000Y-119360000D02*
X150609990Y-119360000D01*
X150609990Y-119360000D02*
X149960000Y-120009990D01*
X146516130Y-121803476D02*
X146516130Y-121379212D01*
X153000000Y-117280000D02*
X153000000Y-114870000D01*
X146516130Y-121379212D02*
X146760343Y-121134999D01*
X146760343Y-121134999D02*
X147303541Y-121134999D01*
X147303541Y-121134999D02*
X148428550Y-120009990D01*
X146931001Y-108801001D02*
X146931001Y-93512999D01*
X153000000Y-114870000D02*
X146931001Y-108801001D01*
X146931001Y-93512999D02*
X149481000Y-90963000D01*
X142160018Y-120664246D02*
X142126049Y-120664246D01*
X142126049Y-120664246D02*
X141494380Y-121295915D01*
X141607000Y-93122000D02*
X141307001Y-93421999D01*
X139632990Y-100301600D02*
X139632990Y-116095168D01*
X141307001Y-93421999D02*
X141307001Y-93712711D01*
X141134950Y-98799640D02*
X139632990Y-100301600D01*
X141307001Y-93712711D02*
X141134950Y-93884762D01*
X141134950Y-93884762D02*
X141134950Y-98799640D01*
X139632990Y-116095168D02*
X142160018Y-118622196D01*
X142160018Y-118622196D02*
X142160018Y-120664246D01*
X141607000Y-93122000D02*
X142230980Y-92498020D01*
X142230980Y-92498020D02*
X142230980Y-75151230D01*
X142230980Y-75151230D02*
X145671000Y-71711210D01*
X145671000Y-71711210D02*
X145671000Y-70922400D01*
X145671000Y-70922400D02*
X145671000Y-65563000D01*
X141040000Y-92763998D02*
X140684940Y-93119058D01*
X137933999Y-100822999D02*
X137933999Y-101423001D01*
X140886410Y-121020000D02*
X140590000Y-121020000D01*
X140684940Y-93119058D02*
X140684940Y-98613240D01*
X140684940Y-98613240D02*
X138800181Y-100497999D01*
X138800181Y-100497999D02*
X138258999Y-100497999D01*
X138258999Y-100497999D02*
X137933999Y-100822999D01*
X137933999Y-101423001D02*
X138258999Y-101748001D01*
X138258999Y-101748001D02*
X139171999Y-101748001D01*
X141710009Y-118808597D02*
X141710009Y-120196401D01*
X139171999Y-101748001D02*
X139182980Y-101737020D01*
X139182980Y-101737020D02*
X139182980Y-116281568D01*
X139182980Y-116281568D02*
X141710009Y-118808597D01*
X141710009Y-120196401D02*
X140886410Y-121020000D01*
X141040000Y-92763998D02*
X141780970Y-92023028D01*
X140108400Y-93695598D02*
X141040000Y-92763998D01*
X139919998Y-93884000D02*
X140108400Y-93695598D01*
X139206000Y-93933984D02*
X139870014Y-93933984D01*
X139870014Y-93933984D02*
X140108400Y-93695598D01*
X141780970Y-92023028D02*
X141780970Y-74964830D01*
X141780970Y-74964830D02*
X145036000Y-71709800D01*
X145036000Y-71709800D02*
X145036000Y-66876264D01*
X145036000Y-66876264D02*
X145036000Y-66452000D01*
X148062012Y-107732012D02*
X154310000Y-113980000D01*
X154310000Y-113980000D02*
X154310000Y-123730000D01*
X148062012Y-94159988D02*
X148062012Y-107550000D01*
X148062012Y-107550000D02*
X148062012Y-107732012D01*
X154310000Y-122924998D02*
X154310000Y-123730000D01*
X149306009Y-89226597D02*
X150556011Y-90476599D01*
X151386000Y-82200000D02*
X150995001Y-82590999D01*
X151686001Y-82590999D02*
X152011001Y-82915999D01*
X150995001Y-82590999D02*
X151686001Y-82590999D01*
X149354000Y-83978000D02*
X149306009Y-84025991D01*
X152011001Y-82915999D02*
X152011001Y-83516001D01*
X152011001Y-83516001D02*
X151549002Y-83978000D01*
X150556011Y-91665989D02*
X148062012Y-94159988D01*
X151549002Y-83978000D02*
X149354000Y-83978000D01*
X149306009Y-84025991D02*
X149306009Y-89226597D01*
X150556011Y-90476599D02*
X150556011Y-91665989D01*
X145592843Y-122057244D02*
X145592843Y-121347157D01*
X145592843Y-121347157D02*
X147170000Y-119770000D01*
X147170000Y-119770000D02*
X147430000Y-119770000D01*
X146480991Y-100589009D02*
X146480991Y-96816989D01*
X147430000Y-119770000D02*
X148200000Y-119000000D01*
X145426999Y-103709001D02*
X145426999Y-101643001D01*
X148200000Y-119000000D02*
X150247180Y-119000000D01*
X150247180Y-119000000D02*
X152370000Y-116877180D01*
X146480991Y-96816989D02*
X145426999Y-95762997D01*
X152370000Y-116877180D02*
X152370000Y-115230000D01*
X152370000Y-115230000D02*
X146480991Y-109340991D01*
X145426999Y-101643001D02*
X146480991Y-100589009D01*
X145426999Y-95762997D02*
X145426999Y-95580000D01*
X146480991Y-109340991D02*
X146480991Y-105430991D01*
X146480991Y-105430991D02*
X145887998Y-104837998D01*
X145887998Y-104837998D02*
X145887998Y-104170000D01*
X145887998Y-104170000D02*
X145426999Y-103709001D01*
X145426999Y-95580000D02*
X145426999Y-95798999D01*
X145426999Y-94683993D02*
X145426999Y-95580000D01*
X146480991Y-96852991D02*
X146480991Y-99307008D01*
X145426999Y-95798999D02*
X146480991Y-96852991D01*
X151386000Y-81057000D02*
X150622590Y-81057000D01*
X148211000Y-91596590D02*
X146480992Y-93326598D01*
X150622590Y-81057000D02*
X148211000Y-83468590D01*
X148211000Y-83468590D02*
X148211000Y-91596590D01*
X146480992Y-93326598D02*
X146480992Y-93630000D01*
X146480992Y-93630000D02*
X145426999Y-94683993D01*
X147790000Y-118150000D02*
X144660000Y-121280000D01*
X144660000Y-121280000D02*
X144660000Y-123070000D01*
X148600000Y-117340000D02*
X147790000Y-118150000D01*
X151150000Y-117340000D02*
X148600000Y-117340000D01*
X151150000Y-114900000D02*
X151150000Y-117340000D01*
X144401000Y-108151000D02*
X151150000Y-114900000D01*
X144401000Y-102393000D02*
X144401000Y-104210000D01*
X144401000Y-104210000D02*
X144401000Y-108151000D01*
X151386000Y-79787000D02*
X151086001Y-80086999D01*
X144343010Y-95211990D02*
X144343010Y-102335010D01*
X151086001Y-80086999D02*
X150956181Y-80086999D01*
X145544000Y-93930582D02*
X144976989Y-94497593D01*
X150956181Y-80086999D02*
X147760990Y-83282190D01*
X147760990Y-83282190D02*
X147760990Y-91410190D01*
X147760990Y-91410190D02*
X145544000Y-93627180D01*
X145544000Y-93627180D02*
X145544000Y-93930582D01*
X144976989Y-94497593D02*
X144976989Y-94578011D01*
X144976989Y-94578011D02*
X144343010Y-95211990D01*
X144343010Y-102335010D02*
X144401000Y-102393000D01*
X142436989Y-108440000D02*
X142436989Y-113466989D01*
X142436989Y-113466989D02*
X144060000Y-115090000D01*
X142436989Y-108440000D02*
X142436989Y-108600000D01*
X142436989Y-100996000D02*
X142436989Y-108440000D01*
X151386000Y-77755000D02*
X151086001Y-78054999D01*
X151086001Y-78054999D02*
X150705001Y-78054999D01*
X150705001Y-78054999D02*
X147449000Y-81311000D01*
X146744990Y-91153370D02*
X144585990Y-93312370D01*
X147449000Y-81311000D02*
X147449000Y-81944590D01*
X147449000Y-81944590D02*
X146744990Y-82648600D01*
X146744990Y-82648600D02*
X146744990Y-91153370D01*
X143385000Y-100107000D02*
X143325989Y-100107000D01*
X143325989Y-100107000D02*
X142436989Y-100996000D01*
X144585990Y-93312370D02*
X144585990Y-93615772D01*
X144585990Y-93615772D02*
X143385000Y-94816762D01*
X143385000Y-94816762D02*
X143385000Y-100107000D01*
X130469100Y-116236000D02*
X130469100Y-116769400D01*
X130469100Y-116769400D02*
X135917400Y-122217700D01*
X140990000Y-114570000D02*
X140990000Y-115210000D01*
X140990000Y-115210000D02*
X140990000Y-115542948D01*
X140983020Y-112543390D02*
X140983020Y-115203020D01*
X141341981Y-110160000D02*
X141341980Y-112184430D01*
X141341980Y-112184430D02*
X140983020Y-112543390D01*
X140983020Y-115203020D02*
X140990000Y-115210000D01*
X141341981Y-110160000D02*
X141341981Y-100818188D01*
X143600010Y-118152958D02*
X143600010Y-121539990D01*
X143600010Y-121539990D02*
X141630000Y-123510000D01*
X140990000Y-115542948D02*
X143600010Y-118152958D01*
X143685970Y-93242972D02*
X143685971Y-92939569D01*
X141341981Y-100818188D02*
X142484980Y-99675189D01*
X142484980Y-94443962D02*
X143685970Y-93242972D01*
X150961736Y-74580000D02*
X151386000Y-74580000D01*
X142484980Y-99675189D02*
X142484980Y-94443962D01*
X143685971Y-92939569D02*
X145844970Y-90780570D01*
X145844970Y-90780570D02*
X145844970Y-81619630D01*
X145844970Y-81619630D02*
X146871990Y-80592610D01*
X146871990Y-80592610D02*
X146871990Y-78669746D01*
X146871990Y-78669746D02*
X150961736Y-74580000D01*
D15*
G36*
X152674439Y-64042687D02*
X151765877Y-64949664D01*
X151273561Y-66135294D01*
X151272441Y-67419074D01*
X151762687Y-68605561D01*
X152669664Y-69514123D01*
X153855294Y-70006439D01*
X155139074Y-70007559D01*
X156325561Y-69517313D01*
X157234123Y-68610336D01*
X157513000Y-67938725D01*
X157513000Y-108682456D01*
X157451358Y-108614817D01*
X156926892Y-108368514D01*
X156697000Y-108489181D01*
X156697000Y-109683000D01*
X156717000Y-109683000D01*
X156717000Y-109937000D01*
X156697000Y-109937000D01*
X156697000Y-109957000D01*
X156443000Y-109957000D01*
X156443000Y-109937000D01*
X155249845Y-109937000D01*
X155128524Y-110166890D01*
X155298355Y-110576924D01*
X155688642Y-111005183D01*
X155815236Y-111064635D01*
X155720000Y-111064635D01*
X155561763Y-111094409D01*
X155416433Y-111187927D01*
X155318936Y-111330619D01*
X155284635Y-111500000D01*
X155284635Y-113200000D01*
X155314409Y-113358237D01*
X155407927Y-113503567D01*
X155550619Y-113601064D01*
X155720000Y-113635365D01*
X157420000Y-113635365D01*
X157513000Y-113617866D01*
X157513000Y-124613000D01*
X156680000Y-124613000D01*
X156673787Y-124614236D01*
X156646608Y-124613289D01*
X156592136Y-124622165D01*
X156536942Y-124622165D01*
X156226972Y-124683823D01*
X156226967Y-124683823D01*
X156130033Y-124723975D01*
X156055018Y-124755047D01*
X156055016Y-124755049D01*
X155792236Y-124930633D01*
X155750585Y-124972284D01*
X142216114Y-124967898D01*
X142316874Y-124725244D01*
X142317126Y-124436025D01*
X142206680Y-124168725D01*
X142103099Y-124064964D01*
X142104915Y-124063151D01*
X142147650Y-124105961D01*
X142414756Y-124216874D01*
X142703975Y-124217126D01*
X142971275Y-124106680D01*
X143175961Y-123902350D01*
X143286874Y-123635244D01*
X143286954Y-123543692D01*
X143952466Y-122878180D01*
X143933126Y-122924756D01*
X143932874Y-123213975D01*
X144043320Y-123481275D01*
X144247650Y-123685961D01*
X144514756Y-123796874D01*
X144803975Y-123797126D01*
X145071275Y-123686680D01*
X145275961Y-123482350D01*
X145386874Y-123215244D01*
X145387126Y-122926025D01*
X145303823Y-122724417D01*
X145447599Y-122784118D01*
X145736818Y-122784370D01*
X146004118Y-122673924D01*
X146208804Y-122469594D01*
X146211123Y-122464010D01*
X146370886Y-122530350D01*
X146660105Y-122530602D01*
X146927405Y-122420156D01*
X146951384Y-122396218D01*
X147169706Y-122486874D01*
X147458925Y-122487126D01*
X147726225Y-122376680D01*
X147930911Y-122172350D01*
X147950998Y-122123975D01*
X151712874Y-122123975D01*
X151823320Y-122391275D01*
X152027650Y-122595961D01*
X152294756Y-122706874D01*
X152583975Y-122707126D01*
X152851275Y-122596680D01*
X153055961Y-122392350D01*
X153166874Y-122125244D01*
X153167126Y-121836025D01*
X153056680Y-121568725D01*
X152852350Y-121364039D01*
X152585244Y-121253126D01*
X152296025Y-121252874D01*
X152028725Y-121363320D01*
X151824039Y-121567650D01*
X151713126Y-121834756D01*
X151712874Y-122123975D01*
X147950998Y-122123975D01*
X148041824Y-121905244D01*
X148041904Y-121813692D01*
X148843596Y-121012000D01*
X150790000Y-121012000D01*
X151001242Y-120969982D01*
X151180323Y-120850323D01*
X153758000Y-118272646D01*
X153758000Y-123253800D01*
X153694039Y-123317650D01*
X153583126Y-123584756D01*
X153582874Y-123873975D01*
X153693320Y-124141275D01*
X153897650Y-124345961D01*
X154164756Y-124456874D01*
X154453975Y-124457126D01*
X154721275Y-124346680D01*
X154925961Y-124142350D01*
X155036874Y-123875244D01*
X155037126Y-123586025D01*
X154926680Y-123318725D01*
X154862000Y-123253932D01*
X154862000Y-120443681D01*
X155212849Y-120443681D01*
X155346082Y-120766131D01*
X155592571Y-121013051D01*
X155914789Y-121146847D01*
X156263681Y-121147151D01*
X156586131Y-121013918D01*
X156833051Y-120767429D01*
X156966847Y-120445211D01*
X156967151Y-120096319D01*
X156833918Y-119773869D01*
X156587429Y-119526949D01*
X156265211Y-119393153D01*
X155916319Y-119392849D01*
X155593869Y-119526082D01*
X155346949Y-119772571D01*
X155213153Y-120094789D01*
X155212849Y-120443681D01*
X154862000Y-120443681D01*
X154862000Y-117443681D01*
X155212849Y-117443681D01*
X155346082Y-117766131D01*
X155592571Y-118013051D01*
X155914789Y-118146847D01*
X156263681Y-118147151D01*
X156586131Y-118013918D01*
X156833051Y-117767429D01*
X156966847Y-117445211D01*
X156967151Y-117096319D01*
X156833918Y-116773869D01*
X156587429Y-116526949D01*
X156265211Y-116393153D01*
X155916319Y-116392849D01*
X155593869Y-116526082D01*
X155346949Y-116772571D01*
X155213153Y-117094789D01*
X155212849Y-117443681D01*
X154862000Y-117443681D01*
X154862000Y-113980000D01*
X154819982Y-113768759D01*
X154700323Y-113589677D01*
X150563756Y-109453110D01*
X155128524Y-109453110D01*
X155249845Y-109683000D01*
X156443000Y-109683000D01*
X156443000Y-108489181D01*
X156213108Y-108368514D01*
X155688642Y-108614817D01*
X155298355Y-109043076D01*
X155128524Y-109453110D01*
X150563756Y-109453110D01*
X148614012Y-107503366D01*
X148614012Y-99723975D01*
X154132874Y-99723975D01*
X154243320Y-99991275D01*
X154447650Y-100195961D01*
X154714756Y-100306874D01*
X155003975Y-100307126D01*
X155271275Y-100196680D01*
X155475961Y-99992350D01*
X155586874Y-99725244D01*
X155587126Y-99436025D01*
X155476680Y-99168725D01*
X155412000Y-99103932D01*
X155412000Y-95016026D01*
X155575961Y-94852350D01*
X155686874Y-94585244D01*
X155687126Y-94296025D01*
X155576680Y-94028725D01*
X155372350Y-93824039D01*
X155105244Y-93713126D01*
X154816025Y-93712874D01*
X154548725Y-93823320D01*
X154344039Y-94027650D01*
X154233126Y-94294756D01*
X154232874Y-94583975D01*
X154308000Y-94765794D01*
X154308000Y-99103800D01*
X154244039Y-99167650D01*
X154133126Y-99434756D01*
X154132874Y-99723975D01*
X148614012Y-99723975D01*
X148614012Y-94388634D01*
X150946334Y-92056312D01*
X151065993Y-91877231D01*
X151108011Y-91665989D01*
X151108011Y-90476599D01*
X151104110Y-90456988D01*
X151065993Y-90265357D01*
X150946334Y-90086276D01*
X149858009Y-88997951D01*
X149858009Y-84530000D01*
X151549002Y-84530000D01*
X151760244Y-84487982D01*
X151932530Y-84372863D01*
X152025188Y-84838687D01*
X152302007Y-85252975D01*
X152716295Y-85529794D01*
X153169791Y-85620000D01*
X152716295Y-85710206D01*
X152302007Y-85987025D01*
X152025188Y-86401313D01*
X151927982Y-86890000D01*
X152025188Y-87378687D01*
X152302007Y-87792975D01*
X152656222Y-88029655D01*
X152548039Y-88137650D01*
X152437126Y-88404756D01*
X152436874Y-88693975D01*
X152547320Y-88961275D01*
X152751650Y-89165961D01*
X153018756Y-89276874D01*
X153307975Y-89277126D01*
X153575275Y-89166680D01*
X153779961Y-88962350D01*
X153828495Y-88845469D01*
X154021650Y-89038961D01*
X154288756Y-89149874D01*
X154577975Y-89150126D01*
X154845275Y-89039680D01*
X155049961Y-88835350D01*
X155160874Y-88568244D01*
X155161126Y-88279025D01*
X155127353Y-88197288D01*
X155413108Y-88331486D01*
X155643000Y-88210819D01*
X155643000Y-87017000D01*
X155897000Y-87017000D01*
X155897000Y-88210819D01*
X156126892Y-88331486D01*
X156651358Y-88085183D01*
X157041645Y-87656924D01*
X157211476Y-87246890D01*
X157090155Y-87017000D01*
X155897000Y-87017000D01*
X155643000Y-87017000D01*
X155623000Y-87017000D01*
X155623000Y-86763000D01*
X155643000Y-86763000D01*
X155643000Y-86743000D01*
X155897000Y-86743000D01*
X155897000Y-86763000D01*
X157090155Y-86763000D01*
X157211476Y-86533110D01*
X157041645Y-86123076D01*
X156651358Y-85694817D01*
X156290417Y-85525309D01*
X156697993Y-85252975D01*
X156974812Y-84838687D01*
X157072018Y-84350000D01*
X156974812Y-83861313D01*
X156697993Y-83447025D01*
X156283705Y-83170206D01*
X155830209Y-83080000D01*
X156283705Y-82989794D01*
X156697993Y-82712975D01*
X156974812Y-82298687D01*
X157072018Y-81810000D01*
X156974812Y-81321313D01*
X156697993Y-80907025D01*
X156283705Y-80630206D01*
X155830209Y-80540000D01*
X156283705Y-80449794D01*
X156697993Y-80172975D01*
X156974812Y-79758687D01*
X157072018Y-79270000D01*
X156974812Y-78781313D01*
X156697993Y-78367025D01*
X156290417Y-78094691D01*
X156651358Y-77925183D01*
X157041645Y-77496924D01*
X157211476Y-77086890D01*
X157090155Y-76857000D01*
X155897000Y-76857000D01*
X155897000Y-76877000D01*
X155643000Y-76877000D01*
X155643000Y-76857000D01*
X155623000Y-76857000D01*
X155623000Y-76603000D01*
X155643000Y-76603000D01*
X155643000Y-76583000D01*
X155897000Y-76583000D01*
X155897000Y-76603000D01*
X157090155Y-76603000D01*
X157211476Y-76373110D01*
X157041645Y-75963076D01*
X156651358Y-75534817D01*
X156290417Y-75365309D01*
X156697993Y-75092975D01*
X156974812Y-74678687D01*
X157072018Y-74190000D01*
X156974812Y-73701313D01*
X156697993Y-73287025D01*
X156283705Y-73010206D01*
X155830209Y-72920000D01*
X156283705Y-72829794D01*
X156697993Y-72552975D01*
X156974812Y-72138687D01*
X157072018Y-71650000D01*
X156974812Y-71161313D01*
X156697993Y-70747025D01*
X156283705Y-70470206D01*
X155795018Y-70373000D01*
X155744982Y-70373000D01*
X155256295Y-70470206D01*
X154842007Y-70747025D01*
X154565188Y-71161313D01*
X154515365Y-71411790D01*
X154515365Y-70800000D01*
X154485591Y-70641763D01*
X154392073Y-70496433D01*
X154249381Y-70398936D01*
X154080000Y-70364635D01*
X152380000Y-70364635D01*
X152221763Y-70394409D01*
X152076433Y-70487927D01*
X151978936Y-70630619D01*
X151944635Y-70800000D01*
X151944635Y-72049609D01*
X151875680Y-71882725D01*
X151671350Y-71678039D01*
X151404244Y-71567126D01*
X151312692Y-71567046D01*
X150979043Y-71233397D01*
X150799962Y-71113738D01*
X150588720Y-71071720D01*
X146394900Y-71071720D01*
X146223000Y-71105913D01*
X146223000Y-66039200D01*
X146286961Y-65975350D01*
X146397874Y-65708244D01*
X146398126Y-65419025D01*
X146287680Y-65151725D01*
X146083350Y-64947039D01*
X145816244Y-64836126D01*
X145527025Y-64835874D01*
X145259725Y-64946320D01*
X145055039Y-65150650D01*
X144944126Y-65417756D01*
X144943874Y-65706975D01*
X144951291Y-65724926D01*
X144892025Y-65724874D01*
X144624725Y-65835320D01*
X144420039Y-66039650D01*
X144309126Y-66306756D01*
X144308874Y-66595975D01*
X144321371Y-66626221D01*
X144292244Y-66614126D01*
X144003025Y-66613874D01*
X143735725Y-66724320D01*
X143531039Y-66928650D01*
X143420126Y-67195756D01*
X143419874Y-67484975D01*
X143530320Y-67752275D01*
X143595000Y-67817068D01*
X143595000Y-71557354D01*
X141432952Y-73719402D01*
X141432952Y-67781089D01*
X141587961Y-67626350D01*
X141698874Y-67359244D01*
X141699126Y-67070025D01*
X141588680Y-66802725D01*
X141384350Y-66598039D01*
X141117244Y-66487126D01*
X140828025Y-66486874D01*
X140560725Y-66597320D01*
X140356039Y-66801650D01*
X140245126Y-67068756D01*
X140244874Y-67357975D01*
X140328952Y-67561459D01*
X140328951Y-89522000D01*
X139966000Y-89522000D01*
X139754758Y-89564018D01*
X139575677Y-89683677D01*
X136519677Y-92739677D01*
X136400018Y-92918758D01*
X136388805Y-92975132D01*
X136358000Y-93130000D01*
X136358000Y-96794000D01*
X136400018Y-97005242D01*
X136519677Y-97184323D01*
X136864000Y-97528646D01*
X136864000Y-97852800D01*
X136800039Y-97916650D01*
X136689126Y-98183756D01*
X136689046Y-98275310D01*
X136643660Y-98320696D01*
X136643657Y-98320698D01*
X136523998Y-98499780D01*
X136481980Y-98711021D01*
X136481981Y-101795803D01*
X136523999Y-102007045D01*
X136643658Y-102186126D01*
X137546187Y-103088655D01*
X137546187Y-116758187D01*
X137588205Y-116969429D01*
X137707864Y-117148510D01*
X139882953Y-119323599D01*
X139882874Y-119413975D01*
X139993320Y-119681275D01*
X140023820Y-119711828D01*
X139980981Y-119754592D01*
X139870068Y-120021698D01*
X139869816Y-120310917D01*
X139980262Y-120578217D01*
X139991872Y-120589848D01*
X139974039Y-120607650D01*
X139863126Y-120874756D01*
X139862874Y-121163975D01*
X139973320Y-121431275D01*
X140177650Y-121635961D01*
X140359489Y-121711468D01*
X140317655Y-121812213D01*
X140317578Y-121900502D01*
X140209933Y-121900408D01*
X139942633Y-122010854D01*
X139737947Y-122215184D01*
X139627034Y-122482290D01*
X139626782Y-122771509D01*
X139737228Y-123038809D01*
X139941558Y-123243495D01*
X140208664Y-123354408D01*
X140497883Y-123354660D01*
X140574205Y-123323124D01*
X140737139Y-123486342D01*
X140902960Y-123555197D01*
X140902874Y-123653975D01*
X141013320Y-123921275D01*
X141116901Y-124025036D01*
X140974039Y-124167650D01*
X140863126Y-124434756D01*
X140862874Y-124723975D01*
X140963493Y-124967492D01*
X140447000Y-124967325D01*
X140447000Y-124130000D01*
X140410691Y-123947460D01*
X140307290Y-123792710D01*
X140152540Y-123689309D01*
X139970000Y-123653000D01*
X138460000Y-123653000D01*
X138277460Y-123689309D01*
X138122710Y-123792710D01*
X138019309Y-123947460D01*
X137983000Y-124130000D01*
X137983000Y-124966527D01*
X130134784Y-124963983D01*
X129893500Y-124802763D01*
X129721552Y-124731539D01*
X129721551Y-124731539D01*
X129423058Y-124672165D01*
X129356076Y-124672165D01*
X129310000Y-124663000D01*
X127557000Y-124663000D01*
X127557000Y-116379975D01*
X129741974Y-116379975D01*
X129852420Y-116647275D01*
X129917100Y-116712068D01*
X129917100Y-116769400D01*
X129959118Y-116980642D01*
X130078777Y-117159723D01*
X135190353Y-122271299D01*
X135190274Y-122361675D01*
X135300720Y-122628975D01*
X135505050Y-122833661D01*
X135772156Y-122944574D01*
X136061375Y-122944826D01*
X136328675Y-122834380D01*
X136533361Y-122630050D01*
X136644274Y-122362944D01*
X136644526Y-122073725D01*
X136534080Y-121806425D01*
X136329750Y-121601739D01*
X136062644Y-121490826D01*
X135971092Y-121490746D01*
X131097864Y-116617518D01*
X131195974Y-116381244D01*
X131196226Y-116092025D01*
X131085780Y-115824725D01*
X130881450Y-115620039D01*
X130614344Y-115509126D01*
X130325125Y-115508874D01*
X130057825Y-115619320D01*
X129853139Y-115823650D01*
X129742226Y-116090756D01*
X129741974Y-116379975D01*
X127557000Y-116379975D01*
X127557000Y-66397264D01*
X128135512Y-65175981D01*
X129146531Y-64260741D01*
X130457857Y-63792419D01*
X130983670Y-63757000D01*
X153365855Y-63757000D01*
X152674439Y-64042687D01*
X152674439Y-64042687D01*
G37*
X152674439Y-64042687D02*
X151765877Y-64949664D01*
X151273561Y-66135294D01*
X151272441Y-67419074D01*
X151762687Y-68605561D01*
X152669664Y-69514123D01*
X153855294Y-70006439D01*
X155139074Y-70007559D01*
X156325561Y-69517313D01*
X157234123Y-68610336D01*
X157513000Y-67938725D01*
X157513000Y-108682456D01*
X157451358Y-108614817D01*
X156926892Y-108368514D01*
X156697000Y-108489181D01*
X156697000Y-109683000D01*
X156717000Y-109683000D01*
X156717000Y-109937000D01*
X156697000Y-109937000D01*
X156697000Y-109957000D01*
X156443000Y-109957000D01*
X156443000Y-109937000D01*
X155249845Y-109937000D01*
X155128524Y-110166890D01*
X155298355Y-110576924D01*
X155688642Y-111005183D01*
X155815236Y-111064635D01*
X155720000Y-111064635D01*
X155561763Y-111094409D01*
X155416433Y-111187927D01*
X155318936Y-111330619D01*
X155284635Y-111500000D01*
X155284635Y-113200000D01*
X155314409Y-113358237D01*
X155407927Y-113503567D01*
X155550619Y-113601064D01*
X155720000Y-113635365D01*
X157420000Y-113635365D01*
X157513000Y-113617866D01*
X157513000Y-124613000D01*
X156680000Y-124613000D01*
X156673787Y-124614236D01*
X156646608Y-124613289D01*
X156592136Y-124622165D01*
X156536942Y-124622165D01*
X156226972Y-124683823D01*
X156226967Y-124683823D01*
X156130033Y-124723975D01*
X156055018Y-124755047D01*
X156055016Y-124755049D01*
X155792236Y-124930633D01*
X155750585Y-124972284D01*
X142216114Y-124967898D01*
X142316874Y-124725244D01*
X142317126Y-124436025D01*
X142206680Y-124168725D01*
X142103099Y-124064964D01*
X142104915Y-124063151D01*
X142147650Y-124105961D01*
X142414756Y-124216874D01*
X142703975Y-124217126D01*
X142971275Y-124106680D01*
X143175961Y-123902350D01*
X143286874Y-123635244D01*
X143286954Y-123543692D01*
X143952466Y-122878180D01*
X143933126Y-122924756D01*
X143932874Y-123213975D01*
X144043320Y-123481275D01*
X144247650Y-123685961D01*
X144514756Y-123796874D01*
X144803975Y-123797126D01*
X145071275Y-123686680D01*
X145275961Y-123482350D01*
X145386874Y-123215244D01*
X145387126Y-122926025D01*
X145303823Y-122724417D01*
X145447599Y-122784118D01*
X145736818Y-122784370D01*
X146004118Y-122673924D01*
X146208804Y-122469594D01*
X146211123Y-122464010D01*
X146370886Y-122530350D01*
X146660105Y-122530602D01*
X146927405Y-122420156D01*
X146951384Y-122396218D01*
X147169706Y-122486874D01*
X147458925Y-122487126D01*
X147726225Y-122376680D01*
X147930911Y-122172350D01*
X147950998Y-122123975D01*
X151712874Y-122123975D01*
X151823320Y-122391275D01*
X152027650Y-122595961D01*
X152294756Y-122706874D01*
X152583975Y-122707126D01*
X152851275Y-122596680D01*
X153055961Y-122392350D01*
X153166874Y-122125244D01*
X153167126Y-121836025D01*
X153056680Y-121568725D01*
X152852350Y-121364039D01*
X152585244Y-121253126D01*
X152296025Y-121252874D01*
X152028725Y-121363320D01*
X151824039Y-121567650D01*
X151713126Y-121834756D01*
X151712874Y-122123975D01*
X147950998Y-122123975D01*
X148041824Y-121905244D01*
X148041904Y-121813692D01*
X148843596Y-121012000D01*
X150790000Y-121012000D01*
X151001242Y-120969982D01*
X151180323Y-120850323D01*
X153758000Y-118272646D01*
X153758000Y-123253800D01*
X153694039Y-123317650D01*
X153583126Y-123584756D01*
X153582874Y-123873975D01*
X153693320Y-124141275D01*
X153897650Y-124345961D01*
X154164756Y-124456874D01*
X154453975Y-124457126D01*
X154721275Y-124346680D01*
X154925961Y-124142350D01*
X155036874Y-123875244D01*
X155037126Y-123586025D01*
X154926680Y-123318725D01*
X154862000Y-123253932D01*
X154862000Y-120443681D01*
X155212849Y-120443681D01*
X155346082Y-120766131D01*
X155592571Y-121013051D01*
X155914789Y-121146847D01*
X156263681Y-121147151D01*
X156586131Y-121013918D01*
X156833051Y-120767429D01*
X156966847Y-120445211D01*
X156967151Y-120096319D01*
X156833918Y-119773869D01*
X156587429Y-119526949D01*
X156265211Y-119393153D01*
X155916319Y-119392849D01*
X155593869Y-119526082D01*
X155346949Y-119772571D01*
X155213153Y-120094789D01*
X155212849Y-120443681D01*
X154862000Y-120443681D01*
X154862000Y-117443681D01*
X155212849Y-117443681D01*
X155346082Y-117766131D01*
X155592571Y-118013051D01*
X155914789Y-118146847D01*
X156263681Y-118147151D01*
X156586131Y-118013918D01*
X156833051Y-117767429D01*
X156966847Y-117445211D01*
X156967151Y-117096319D01*
X156833918Y-116773869D01*
X156587429Y-116526949D01*
X156265211Y-116393153D01*
X155916319Y-116392849D01*
X155593869Y-116526082D01*
X155346949Y-116772571D01*
X155213153Y-117094789D01*
X155212849Y-117443681D01*
X154862000Y-117443681D01*
X154862000Y-113980000D01*
X154819982Y-113768759D01*
X154700323Y-113589677D01*
X150563756Y-109453110D01*
X155128524Y-109453110D01*
X155249845Y-109683000D01*
X156443000Y-109683000D01*
X156443000Y-108489181D01*
X156213108Y-108368514D01*
X155688642Y-108614817D01*
X155298355Y-109043076D01*
X155128524Y-109453110D01*
X150563756Y-109453110D01*
X148614012Y-107503366D01*
X148614012Y-99723975D01*
X154132874Y-99723975D01*
X154243320Y-99991275D01*
X154447650Y-100195961D01*
X154714756Y-100306874D01*
X155003975Y-100307126D01*
X155271275Y-100196680D01*
X155475961Y-99992350D01*
X155586874Y-99725244D01*
X155587126Y-99436025D01*
X155476680Y-99168725D01*
X155412000Y-99103932D01*
X155412000Y-95016026D01*
X155575961Y-94852350D01*
X155686874Y-94585244D01*
X155687126Y-94296025D01*
X155576680Y-94028725D01*
X155372350Y-93824039D01*
X155105244Y-93713126D01*
X154816025Y-93712874D01*
X154548725Y-93823320D01*
X154344039Y-94027650D01*
X154233126Y-94294756D01*
X154232874Y-94583975D01*
X154308000Y-94765794D01*
X154308000Y-99103800D01*
X154244039Y-99167650D01*
X154133126Y-99434756D01*
X154132874Y-99723975D01*
X148614012Y-99723975D01*
X148614012Y-94388634D01*
X150946334Y-92056312D01*
X151065993Y-91877231D01*
X151108011Y-91665989D01*
X151108011Y-90476599D01*
X151104110Y-90456988D01*
X151065993Y-90265357D01*
X150946334Y-90086276D01*
X149858009Y-88997951D01*
X149858009Y-84530000D01*
X151549002Y-84530000D01*
X151760244Y-84487982D01*
X151932530Y-84372863D01*
X152025188Y-84838687D01*
X152302007Y-85252975D01*
X152716295Y-85529794D01*
X153169791Y-85620000D01*
X152716295Y-85710206D01*
X152302007Y-85987025D01*
X152025188Y-86401313D01*
X151927982Y-86890000D01*
X152025188Y-87378687D01*
X152302007Y-87792975D01*
X152656222Y-88029655D01*
X152548039Y-88137650D01*
X152437126Y-88404756D01*
X152436874Y-88693975D01*
X152547320Y-88961275D01*
X152751650Y-89165961D01*
X153018756Y-89276874D01*
X153307975Y-89277126D01*
X153575275Y-89166680D01*
X153779961Y-88962350D01*
X153828495Y-88845469D01*
X154021650Y-89038961D01*
X154288756Y-89149874D01*
X154577975Y-89150126D01*
X154845275Y-89039680D01*
X155049961Y-88835350D01*
X155160874Y-88568244D01*
X155161126Y-88279025D01*
X155127353Y-88197288D01*
X155413108Y-88331486D01*
X155643000Y-88210819D01*
X155643000Y-87017000D01*
X155897000Y-87017000D01*
X155897000Y-88210819D01*
X156126892Y-88331486D01*
X156651358Y-88085183D01*
X157041645Y-87656924D01*
X157211476Y-87246890D01*
X157090155Y-87017000D01*
X155897000Y-87017000D01*
X155643000Y-87017000D01*
X155623000Y-87017000D01*
X155623000Y-86763000D01*
X155643000Y-86763000D01*
X155643000Y-86743000D01*
X155897000Y-86743000D01*
X155897000Y-86763000D01*
X157090155Y-86763000D01*
X157211476Y-86533110D01*
X157041645Y-86123076D01*
X156651358Y-85694817D01*
X156290417Y-85525309D01*
X156697993Y-85252975D01*
X156974812Y-84838687D01*
X157072018Y-84350000D01*
X156974812Y-83861313D01*
X156697993Y-83447025D01*
X156283705Y-83170206D01*
X155830209Y-83080000D01*
X156283705Y-82989794D01*
X156697993Y-82712975D01*
X156974812Y-82298687D01*
X157072018Y-81810000D01*
X156974812Y-81321313D01*
X156697993Y-80907025D01*
X156283705Y-80630206D01*
X155830209Y-80540000D01*
X156283705Y-80449794D01*
X156697993Y-80172975D01*
X156974812Y-79758687D01*
X157072018Y-79270000D01*
X156974812Y-78781313D01*
X156697993Y-78367025D01*
X156290417Y-78094691D01*
X156651358Y-77925183D01*
X157041645Y-77496924D01*
X157211476Y-77086890D01*
X157090155Y-76857000D01*
X155897000Y-76857000D01*
X155897000Y-76877000D01*
X155643000Y-76877000D01*
X155643000Y-76857000D01*
X155623000Y-76857000D01*
X155623000Y-76603000D01*
X155643000Y-76603000D01*
X155643000Y-76583000D01*
X155897000Y-76583000D01*
X155897000Y-76603000D01*
X157090155Y-76603000D01*
X157211476Y-76373110D01*
X157041645Y-75963076D01*
X156651358Y-75534817D01*
X156290417Y-75365309D01*
X156697993Y-75092975D01*
X156974812Y-74678687D01*
X157072018Y-74190000D01*
X156974812Y-73701313D01*
X156697993Y-73287025D01*
X156283705Y-73010206D01*
X155830209Y-72920000D01*
X156283705Y-72829794D01*
X156697993Y-72552975D01*
X156974812Y-72138687D01*
X157072018Y-71650000D01*
X156974812Y-71161313D01*
X156697993Y-70747025D01*
X156283705Y-70470206D01*
X155795018Y-70373000D01*
X155744982Y-70373000D01*
X155256295Y-70470206D01*
X154842007Y-70747025D01*
X154565188Y-71161313D01*
X154515365Y-71411790D01*
X154515365Y-70800000D01*
X154485591Y-70641763D01*
X154392073Y-70496433D01*
X154249381Y-70398936D01*
X154080000Y-70364635D01*
X152380000Y-70364635D01*
X152221763Y-70394409D01*
X152076433Y-70487927D01*
X151978936Y-70630619D01*
X151944635Y-70800000D01*
X151944635Y-72049609D01*
X151875680Y-71882725D01*
X151671350Y-71678039D01*
X151404244Y-71567126D01*
X151312692Y-71567046D01*
X150979043Y-71233397D01*
X150799962Y-71113738D01*
X150588720Y-71071720D01*
X146394900Y-71071720D01*
X146223000Y-71105913D01*
X146223000Y-66039200D01*
X146286961Y-65975350D01*
X146397874Y-65708244D01*
X146398126Y-65419025D01*
X146287680Y-65151725D01*
X146083350Y-64947039D01*
X145816244Y-64836126D01*
X145527025Y-64835874D01*
X145259725Y-64946320D01*
X145055039Y-65150650D01*
X144944126Y-65417756D01*
X144943874Y-65706975D01*
X144951291Y-65724926D01*
X144892025Y-65724874D01*
X144624725Y-65835320D01*
X144420039Y-66039650D01*
X144309126Y-66306756D01*
X144308874Y-66595975D01*
X144321371Y-66626221D01*
X144292244Y-66614126D01*
X144003025Y-66613874D01*
X143735725Y-66724320D01*
X143531039Y-66928650D01*
X143420126Y-67195756D01*
X143419874Y-67484975D01*
X143530320Y-67752275D01*
X143595000Y-67817068D01*
X143595000Y-71557354D01*
X141432952Y-73719402D01*
X141432952Y-67781089D01*
X141587961Y-67626350D01*
X141698874Y-67359244D01*
X141699126Y-67070025D01*
X141588680Y-66802725D01*
X141384350Y-66598039D01*
X141117244Y-66487126D01*
X140828025Y-66486874D01*
X140560725Y-66597320D01*
X140356039Y-66801650D01*
X140245126Y-67068756D01*
X140244874Y-67357975D01*
X140328952Y-67561459D01*
X140328951Y-89522000D01*
X139966000Y-89522000D01*
X139754758Y-89564018D01*
X139575677Y-89683677D01*
X136519677Y-92739677D01*
X136400018Y-92918758D01*
X136388805Y-92975132D01*
X136358000Y-93130000D01*
X136358000Y-96794000D01*
X136400018Y-97005242D01*
X136519677Y-97184323D01*
X136864000Y-97528646D01*
X136864000Y-97852800D01*
X136800039Y-97916650D01*
X136689126Y-98183756D01*
X136689046Y-98275310D01*
X136643660Y-98320696D01*
X136643657Y-98320698D01*
X136523998Y-98499780D01*
X136481980Y-98711021D01*
X136481981Y-101795803D01*
X136523999Y-102007045D01*
X136643658Y-102186126D01*
X137546187Y-103088655D01*
X137546187Y-116758187D01*
X137588205Y-116969429D01*
X137707864Y-117148510D01*
X139882953Y-119323599D01*
X139882874Y-119413975D01*
X139993320Y-119681275D01*
X140023820Y-119711828D01*
X139980981Y-119754592D01*
X139870068Y-120021698D01*
X139869816Y-120310917D01*
X139980262Y-120578217D01*
X139991872Y-120589848D01*
X139974039Y-120607650D01*
X139863126Y-120874756D01*
X139862874Y-121163975D01*
X139973320Y-121431275D01*
X140177650Y-121635961D01*
X140359489Y-121711468D01*
X140317655Y-121812213D01*
X140317578Y-121900502D01*
X140209933Y-121900408D01*
X139942633Y-122010854D01*
X139737947Y-122215184D01*
X139627034Y-122482290D01*
X139626782Y-122771509D01*
X139737228Y-123038809D01*
X139941558Y-123243495D01*
X140208664Y-123354408D01*
X140497883Y-123354660D01*
X140574205Y-123323124D01*
X140737139Y-123486342D01*
X140902960Y-123555197D01*
X140902874Y-123653975D01*
X141013320Y-123921275D01*
X141116901Y-124025036D01*
X140974039Y-124167650D01*
X140863126Y-124434756D01*
X140862874Y-124723975D01*
X140963493Y-124967492D01*
X140447000Y-124967325D01*
X140447000Y-124130000D01*
X140410691Y-123947460D01*
X140307290Y-123792710D01*
X140152540Y-123689309D01*
X139970000Y-123653000D01*
X138460000Y-123653000D01*
X138277460Y-123689309D01*
X138122710Y-123792710D01*
X138019309Y-123947460D01*
X137983000Y-124130000D01*
X137983000Y-124966527D01*
X130134784Y-124963983D01*
X129893500Y-124802763D01*
X129721552Y-124731539D01*
X129721551Y-124731539D01*
X129423058Y-124672165D01*
X129356076Y-124672165D01*
X129310000Y-124663000D01*
X127557000Y-124663000D01*
X127557000Y-116379975D01*
X129741974Y-116379975D01*
X129852420Y-116647275D01*
X129917100Y-116712068D01*
X129917100Y-116769400D01*
X129959118Y-116980642D01*
X130078777Y-117159723D01*
X135190353Y-122271299D01*
X135190274Y-122361675D01*
X135300720Y-122628975D01*
X135505050Y-122833661D01*
X135772156Y-122944574D01*
X136061375Y-122944826D01*
X136328675Y-122834380D01*
X136533361Y-122630050D01*
X136644274Y-122362944D01*
X136644526Y-122073725D01*
X136534080Y-121806425D01*
X136329750Y-121601739D01*
X136062644Y-121490826D01*
X135971092Y-121490746D01*
X131097864Y-116617518D01*
X131195974Y-116381244D01*
X131196226Y-116092025D01*
X131085780Y-115824725D01*
X130881450Y-115620039D01*
X130614344Y-115509126D01*
X130325125Y-115508874D01*
X130057825Y-115619320D01*
X129853139Y-115823650D01*
X129742226Y-116090756D01*
X129741974Y-116379975D01*
X127557000Y-116379975D01*
X127557000Y-66397264D01*
X128135512Y-65175981D01*
X129146531Y-64260741D01*
X130457857Y-63792419D01*
X130983670Y-63757000D01*
X153365855Y-63757000D01*
X152674439Y-64042687D01*
G36*
X143849000Y-108151000D02*
X143891018Y-108362242D01*
X144010677Y-108541323D01*
X150598000Y-115128646D01*
X150598000Y-116788000D01*
X148600000Y-116788000D01*
X148388758Y-116830018D01*
X148209677Y-116949677D01*
X144602020Y-120557334D01*
X144602020Y-117966558D01*
X144560002Y-117755317D01*
X144440343Y-117576235D01*
X143313900Y-116449792D01*
X143240323Y-116339677D01*
X142092000Y-115191354D01*
X142092000Y-114148646D01*
X142182314Y-114058332D01*
X142208498Y-114019144D01*
X143332953Y-115143599D01*
X143332874Y-115233975D01*
X143443320Y-115501275D01*
X143647650Y-115705961D01*
X143914756Y-115816874D01*
X144203975Y-115817126D01*
X144471275Y-115706680D01*
X144675961Y-115502350D01*
X144786874Y-115235244D01*
X144787126Y-114946025D01*
X144676680Y-114678725D01*
X144472350Y-114474039D01*
X144205244Y-114363126D01*
X144113692Y-114363046D01*
X144047531Y-114296885D01*
X144323975Y-114297126D01*
X144591275Y-114186680D01*
X144795961Y-113982350D01*
X144906874Y-113715244D01*
X144907126Y-113426025D01*
X144796680Y-113158725D01*
X144592350Y-112954039D01*
X144325244Y-112843126D01*
X144233692Y-112843046D01*
X143438999Y-112048353D01*
X143438999Y-102738937D01*
X143655975Y-102739126D01*
X143849000Y-102659370D01*
X143849000Y-108151000D01*
X143849000Y-108151000D01*
G37*
X143849000Y-108151000D02*
X143891018Y-108362242D01*
X144010677Y-108541323D01*
X150598000Y-115128646D01*
X150598000Y-116788000D01*
X148600000Y-116788000D01*
X148388758Y-116830018D01*
X148209677Y-116949677D01*
X144602020Y-120557334D01*
X144602020Y-117966558D01*
X144560002Y-117755317D01*
X144440343Y-117576235D01*
X143313900Y-116449792D01*
X143240323Y-116339677D01*
X142092000Y-115191354D01*
X142092000Y-114148646D01*
X142182314Y-114058332D01*
X142208498Y-114019144D01*
X143332953Y-115143599D01*
X143332874Y-115233975D01*
X143443320Y-115501275D01*
X143647650Y-115705961D01*
X143914756Y-115816874D01*
X144203975Y-115817126D01*
X144471275Y-115706680D01*
X144675961Y-115502350D01*
X144786874Y-115235244D01*
X144787126Y-114946025D01*
X144676680Y-114678725D01*
X144472350Y-114474039D01*
X144205244Y-114363126D01*
X144113692Y-114363046D01*
X144047531Y-114296885D01*
X144323975Y-114297126D01*
X144591275Y-114186680D01*
X144795961Y-113982350D01*
X144906874Y-113715244D01*
X144907126Y-113426025D01*
X144796680Y-113158725D01*
X144592350Y-112954039D01*
X144325244Y-112843126D01*
X144233692Y-112843046D01*
X143438999Y-112048353D01*
X143438999Y-102738937D01*
X143655975Y-102739126D01*
X143849000Y-102659370D01*
X143849000Y-108151000D01*
G36*
X146379001Y-103930354D02*
X146278321Y-103779677D01*
X145978999Y-103480355D01*
X145978999Y-101871647D01*
X146379001Y-101471645D01*
X146379001Y-103930354D01*
X146379001Y-103930354D01*
G37*
X146379001Y-103930354D02*
X146278321Y-103779677D01*
X145978999Y-103480355D01*
X145978999Y-101871647D01*
X146379001Y-101471645D01*
X146379001Y-103930354D01*
G36*
X144917017Y-96010241D02*
X145036676Y-96189322D01*
X145928991Y-97081637D01*
X145928991Y-100360363D01*
X145036676Y-101252678D01*
X144917017Y-101431759D01*
X144917017Y-101431760D01*
X144895010Y-101542398D01*
X144895010Y-95899603D01*
X144917017Y-96010241D01*
X144917017Y-96010241D01*
G37*
X144917017Y-96010241D02*
X145036676Y-96189322D01*
X145928991Y-97081637D01*
X145928991Y-100360363D01*
X145036676Y-101252678D01*
X144917017Y-101431759D01*
X144917017Y-101431760D01*
X144895010Y-101542398D01*
X144895010Y-95899603D01*
X144917017Y-96010241D01*
G36*
X138793650Y-94549945D02*
X139060756Y-94660858D01*
X139349975Y-94661110D01*
X139617275Y-94550664D01*
X139682068Y-94485984D01*
X139870014Y-94485984D01*
X140081256Y-94443966D01*
X140132940Y-94409432D01*
X140132940Y-98384594D01*
X138571535Y-99945999D01*
X138258999Y-99945999D01*
X138047758Y-99988017D01*
X138035989Y-99995881D01*
X138035989Y-99414659D01*
X138431323Y-99019325D01*
X138550982Y-98840243D01*
X138593000Y-98629002D01*
X138593000Y-95373090D01*
X138656961Y-95309240D01*
X138767874Y-95042134D01*
X138768126Y-94752915D01*
X138657680Y-94485615D01*
X138593000Y-94420822D01*
X138593000Y-94348945D01*
X138793650Y-94549945D01*
X138793650Y-94549945D01*
G37*
X138793650Y-94549945D02*
X139060756Y-94660858D01*
X139349975Y-94661110D01*
X139617275Y-94550664D01*
X139682068Y-94485984D01*
X139870014Y-94485984D01*
X140081256Y-94443966D01*
X140132940Y-94409432D01*
X140132940Y-98384594D01*
X138571535Y-99945999D01*
X138258999Y-99945999D01*
X138047758Y-99988017D01*
X138035989Y-99995881D01*
X138035989Y-99414659D01*
X138431323Y-99019325D01*
X138550982Y-98840243D01*
X138593000Y-98629002D01*
X138593000Y-95373090D01*
X138656961Y-95309240D01*
X138767874Y-95042134D01*
X138768126Y-94752915D01*
X138657680Y-94485615D01*
X138593000Y-94420822D01*
X138593000Y-94348945D01*
X138793650Y-94549945D01*
G36*
X153357000Y-81683000D02*
X153377000Y-81683000D01*
X153377000Y-81937000D01*
X153357000Y-81937000D01*
X153357000Y-81957000D01*
X153103000Y-81957000D01*
X153103000Y-81937000D01*
X153083000Y-81937000D01*
X153083000Y-81683000D01*
X153103000Y-81683000D01*
X153103000Y-81663000D01*
X153357000Y-81663000D01*
X153357000Y-81683000D01*
X153357000Y-81683000D01*
G37*
X153357000Y-81683000D02*
X153377000Y-81683000D01*
X153377000Y-81937000D01*
X153357000Y-81937000D01*
X153357000Y-81957000D01*
X153103000Y-81957000D01*
X153103000Y-81937000D01*
X153083000Y-81937000D01*
X153083000Y-81683000D01*
X153103000Y-81683000D01*
X153103000Y-81663000D01*
X153357000Y-81663000D01*
X153357000Y-81683000D01*
M02*
