G04 #@! TF.FileFunction,Soldermask,Bot*
%FSLAX46Y46*%
G04 Gerber Fmt 4.6, Leading zero omitted, Abs format (unit mm)*
G04 Created by KiCad (PCBNEW 4.0.7) date 06/11/18 13:45:27*
%MOMM*%
%LPD*%
G01*
G04 APERTURE LIST*
%ADD10C,0.100000*%
%ADD11R,0.600000X2.000000*%
%ADD12C,0.900000*%
%ADD13R,1.000000X2.300000*%
%ADD14R,0.500000X2.300000*%
%ADD15R,1.000000X4.000000*%
%ADD16R,1.700000X1.700000*%
%ADD17O,1.700000X1.700000*%
%ADD18R,0.500000X0.600000*%
%ADD19R,0.650000X1.060000*%
%ADD20R,0.600000X0.400000*%
%ADD21C,6.200000*%
G04 APERTURE END LIST*
D10*
D11*
X131665001Y-126785001D03*
X132465001Y-126785001D03*
X133265001Y-126785001D03*
X134065001Y-126785001D03*
X134865001Y-126785001D03*
X135665001Y-126785001D03*
X136465001Y-126785001D03*
X137265001Y-126785001D03*
X141265001Y-126785001D03*
X142065001Y-126785001D03*
X142865001Y-126785001D03*
X143665001Y-126785001D03*
X144465001Y-126785001D03*
X145265001Y-126785001D03*
X146065001Y-126785001D03*
X146865001Y-126785001D03*
X147665001Y-126785001D03*
X148465001Y-126785001D03*
X149265001Y-126785001D03*
X150065001Y-126785001D03*
X150865001Y-126785001D03*
X151665001Y-126785001D03*
X152465001Y-126785001D03*
X153265001Y-126785001D03*
X154065001Y-126785001D03*
X154865001Y-126785001D03*
D12*
X156090000Y-120270000D03*
X156090000Y-117270000D03*
D13*
X144147000Y-89425000D03*
X142877000Y-89425000D03*
X141607000Y-89425000D03*
X139067000Y-89425000D03*
X137797000Y-89425000D03*
X140337000Y-89425000D03*
D14*
X134257000Y-89425000D03*
X132957000Y-89425000D03*
D15*
X150497000Y-66325000D03*
X130097000Y-66325000D03*
D16*
X153230000Y-71650000D03*
D17*
X155770000Y-71650000D03*
X153230000Y-74190000D03*
X155770000Y-74190000D03*
X153230000Y-76730000D03*
X155770000Y-76730000D03*
X153230000Y-79270000D03*
X155770000Y-79270000D03*
X153230000Y-81810000D03*
X155770000Y-81810000D03*
X153230000Y-84350000D03*
X155770000Y-84350000D03*
X153230000Y-86890000D03*
X155770000Y-86890000D03*
D18*
X138432000Y-92783000D03*
X138432000Y-91683000D03*
X144160000Y-91824000D03*
X144160000Y-92924000D03*
D19*
X141861000Y-97227000D03*
X140911000Y-97227000D03*
X139961000Y-97227000D03*
X139961000Y-95027000D03*
X141861000Y-95027000D03*
X140911000Y-95027000D03*
D16*
X156570000Y-112350000D03*
D17*
X156570000Y-109810000D03*
D20*
X141510000Y-91529000D03*
X141510000Y-92429000D03*
X140210000Y-91529000D03*
X140210000Y-92429000D03*
X136908000Y-91656000D03*
X136908000Y-92556000D03*
D21*
X154500000Y-66780000D03*
M02*
