M48
;DRILL file {KiCad 4.0.7} date 06/11/18 13:45:31
;FORMAT={-:-/ absolute / metric / decimal}
FMAT,2
METRIC,TZ
T1C0.300
T2C1.000
%
G90
G05
M71
T1
X128.03Y-66.12
X128.03Y-68.12
X128.03Y-70.12
X128.03Y-72.12
X128.03Y-74.12
X128.03Y-76.12
X128.03Y-78.12
X128.03Y-80.12
X128.03Y-82.12
X128.03Y-84.12
X128.03Y-86.12
X128.03Y-88.12
X128.03Y-90.12
X128.03Y-92.12
X128.03Y-94.12
X128.03Y-96.12
X128.03Y-98.12
X128.03Y-100.12
X128.03Y-102.12
X128.03Y-104.12
X128.03Y-106.12
X128.03Y-108.12
X128.03Y-110.12
X128.03Y-112.12
X128.03Y-114.12
X128.03Y-116.12
X128.03Y-118.12
X128.03Y-120.12
X128.03Y-122.12
X128.03Y-124.12
X129.07Y-74.21
X129.08Y-114.84
X129.16Y-81.73
X129.24Y-75.83
X129.24Y-117.78
X129.38Y-122.44
X129.43Y-85.57
X129.46Y-99.3
X129.57Y-92.86
X129.7Y-96.81
X129.77Y-89.86
X129.77Y-94.44
X129.86Y-71.71
X129.91Y-84.45
X130.13Y-87.61
X130.22Y-81.74
X130.28Y-74.52
X130.31Y-120.14
X130.469Y-116.236
X130.53Y-91.15
X130.76Y-122.76
X130.82Y-75.89
X130.93Y-69.76
X130.94Y-84.42
X131.1Y-94.07
X131.31Y-96.59
X131.36Y-89.44
X131.75Y-121.75
X131.78Y-114.37
X131.79Y-74.86
X131.84Y-76.07
X131.99Y-65.42
X132.02Y-92.09
X132.08Y-84.42
X132.32Y-120.42
X132.33Y-95.77
X132.6Y-123.78
X133.Y-66.64
X133.11Y-64.17
X133.34Y-93.06
X133.41Y-68.5
X133.43Y-91.38
X134.57Y-65.45
X135.11Y-64.17
X135.43Y-67.16
X135.917Y-122.218
X136.61Y-114.99
X136.86Y-66.3
X137.11Y-64.17
X137.416Y-98.329
X137.67Y-91.09
X138.041Y-94.897
X138.559Y-101.123
X138.72Y-97.56
X139.11Y-64.17
X139.206Y-93.934
X140.354Y-122.628
X140.59Y-121.02
X140.597Y-120.167
X140.61Y-119.27
X140.972Y-67.214
X141.045Y-121.957
X141.11Y-64.17
X141.149Y-122.87
X141.494Y-121.296
X141.59Y-124.58
X141.607Y-93.122
X141.63Y-123.51
X142.56Y-123.49
X143.11Y-64.17
X143.355Y-91.749
X143.512Y-102.012
X144.06Y-115.09
X144.147Y-67.341
X144.18Y-113.57
X144.66Y-123.07
X145.036Y-66.452
X145.036Y-96.297
X145.11Y-64.17
X145.28Y-114.59
X145.593Y-122.057
X145.671Y-65.563
X146.052Y-95.281
X146.052Y-103.409
X146.516Y-121.803
X147.11Y-64.17
X147.315Y-121.76
X147.8Y-66.
X147.91Y-67.42
X148.45Y-65.15
X149.11Y-64.17
X149.481Y-90.963
X151.14Y-70.15
X151.18Y-102.55
X151.259Y-72.294
X151.386Y-73.437
X151.386Y-74.58
X151.386Y-75.723
X151.386Y-77.755
X151.386Y-78.644
X151.386Y-79.787
X151.386Y-81.057
X151.386Y-82.2
X151.386Y-83.216
X151.767Y-99.98
X152.44Y-121.98
X152.81Y-107.66
X153.164Y-88.55
X153.28Y-102.45
X153.43Y-122.94
X154.31Y-123.73
X154.434Y-88.423
X154.86Y-99.58
X154.96Y-94.44
X156.72Y-92.741
X156.77Y-118.91
T2
X153.23Y-71.65
X153.23Y-74.19
X153.23Y-76.73
X153.23Y-79.27
X153.23Y-81.81
X153.23Y-84.35
X153.23Y-86.89
X155.77Y-71.65
X155.77Y-74.19
X155.77Y-76.73
X155.77Y-79.27
X155.77Y-81.81
X155.77Y-84.35
X155.77Y-86.89
X156.57Y-109.81
X156.57Y-112.35
T0
M30
